<?xml version="1.0" encoding="UTF-8" standalone="no"?>
<!-- Created with Inkscape (http://www.inkscape.org/) -->

<svg
   width="8.4666662mm"
   height="8.4666672mm"
   viewBox="0 0 8.4666663 8.4666672"
   version="1.1"
   id="svg5"
   xml:space="preserve"
   inkscape:version="1.2.2 (732a01da63, 2022-12-09)"
   sodipodi:docname="all_icons.svg"
   xmlns:inkscape="http://www.inkscape.org/namespaces/inkscape"
   xmlns:sodipodi="http://sodipodi.sourceforge.net/DTD/sodipodi-0.dtd"
   xmlns="http://www.w3.org/2000/svg"
   xmlns:svg="http://www.w3.org/2000/svg"><sodipodi:namedview
     id="namedview7"
     pagecolor="#ffffff"
     bordercolor="#666666"
     borderopacity="1.0"
     inkscape:showpageshadow="2"
     inkscape:pageopacity="0.0"
     inkscape:pagecheckerboard="0"
     inkscape:deskcolor="#d1d1d1"
     inkscape:document-units="mm"
     showgrid="false"
     inkscape:zoom="18.406871"
     inkscape:cx="84.723796"
     inkscape:cy="11.435947"
     inkscape:window-width="1920"
     inkscape:window-height="1010"
     inkscape:window-x="1438"
     inkscape:window-y="939"
     inkscape:window-maximized="1"
     inkscape:current-layer="layer1"><inkscape:page
       x="0"
       y="0"
       width="8.4666662"
       height="8.4666672"
       id="page1120"
       inkscape:label="group"
       inkscape:export-filename="ranked-choice-playground\src\assets\group.svg"
       inkscape:export-xdpi="3000"
       inkscape:export-ydpi="3000" /><inkscape:page
       x="9.2697897"
       y="-2.3798597e-07"
       width="8.4666653"
       height="8.4666672"
       id="page1122"
       inkscape:label="person" /><inkscape:page
       x="18.466666"
       y="0"
       width="8.4666643"
       height="8.4666674"
       id="page3894"
       inkscape:label="podium" /></sodipodi:namedview><defs
     id="defs2" /><g
     inkscape:label="Layer 1"
     inkscape:groupmode="layer"
     id="layer1"
     transform="translate(-81.441548,-87.08176)"><path
       id="path512"
       style="color:#000000;overflow:visible;fill:#000000;fill-rule:evenodd;stroke:none;stroke-width:0.1;-inkscape-stroke:none;paint-order:fill markers stroke;stop-color:#000000"
       d="M 85.674881 87.969561 A 1.0149362 1.0149362 0 0 0 84.659956 88.984486 A 1.0149362 1.0149362 0 0 0 85.674881 89.999411 A 1.0149362 1.0149362 0 0 0 86.689806 88.984486 A 1.0149362 1.0149362 0 0 0 85.674881 87.969561 z M 83.518941 88.544203 A 0.73707453 0.73761507 0 0 0 82.782035 89.281626 A 0.73707453 0.73761507 0 0 0 83.518941 90.019048 A 0.73707453 0.73761507 0 0 0 84.256363 89.281626 A 0.73707453 0.73761507 0 0 0 83.518941 88.544203 z M 87.868029 88.544203 A 0.73707453 0.73761507 0 0 0 87.131123 89.281626 A 0.73707453 0.73761507 0 0 0 87.868029 90.019048 A 0.73707453 0.73761507 0 0 0 88.604935 89.281626 A 0.73707453 0.73761507 0 0 0 87.868029 88.544203 z M 84.805167 90.289316 C 84.407036 90.289316 84.086348 90.610005 84.086348 91.008135 L 84.086348 92.167754 C 84.086348 92.784723 84.025907 92.716606 84.69923 92.862802 L 84.792248 94.433766 C 84.799648 94.559272 84.893383 94.660626 85.019107 94.660626 L 85.674881 94.660626 L 86.330655 94.660626 C 86.456382 94.660626 86.550059 94.559272 86.557515 94.433766 L 86.650532 92.862802 C 87.323852 92.716606 87.263415 92.784723 87.263415 92.167754 L 87.263415 91.008135 C 87.263415 90.610005 86.942727 90.289316 86.544596 90.289316 L 85.674881 90.289316 L 84.805167 90.289316 z M 82.88177 90.321872 C 82.580642 90.321872 82.328316 90.680932 82.328316 90.875844 L 82.328316 92.006524 C 82.328316 92.482014 82.282105 92.42974 82.800638 92.542409 L 82.872468 94.017254 C 82.87821 94.113974 82.950315 94.19192 83.047135 94.19192 L 83.552013 94.19192 L 83.896179 94.19192 C 83.993001 94.19192 84.065662 94.113984 84.071362 94.017254 L 84.118387 93.040569 C 84.04559 93.012161 83.972924 92.970539 83.908064 92.896909 C 83.806901 92.782054 83.784756 92.642967 83.778356 92.534657 C 83.771956 92.426347 83.776806 92.316942 83.776806 92.167754 L 83.776806 91.008135 C 83.776806 90.745458 83.877502 90.504383 84.041906 90.321872 L 83.552013 90.321872 L 82.88177 90.321872 z M 87.307857 90.321872 C 87.47226 90.504383 87.572957 90.745458 87.572957 91.008135 L 87.572957 92.167754 C 87.572957 92.316942 87.577806 92.426347 87.571406 92.534657 C 87.565006 92.642967 87.54286 92.782054 87.441699 92.896909 C 87.376839 92.970539 87.304171 93.012161 87.231375 93.040569 L 87.278401 94.017254 C 87.284101 94.113984 87.35676 94.19192 87.453584 94.19192 L 87.797749 94.19192 L 88.302628 94.19192 C 88.399448 94.19192 88.471552 94.113974 88.477294 94.017254 L 88.549124 92.542409 C 89.067658 92.42974 89.021447 92.482014 89.021447 92.006524 L 89.021447 90.875844 C 89.021447 90.680932 88.769121 90.321872 88.467992 90.321872 L 87.797749 90.321872 L 87.307857 90.321872 z " /><path
       id="path1131"
       style="color:#000000;overflow:visible;fill:#000000;fill-rule:evenodd;stroke:none;stroke-width:0.1;-inkscape-stroke:none;paint-order:fill markers stroke;stop-color:#000000"
       d="m 94.944705,87.969407 a 1.0149362,1.0149362 0 0 0 -1.01496,1.014961 1.0149362,1.0149362 0 0 0 1.01496,1.014883 1.0149362,1.0149362 0 0 0 1.01496,-1.014883 1.0149362,1.0149362 0 0 0 -1.01496,-1.014961 z m -0.86995,2.319877 c -0.39813,0 -0.71867,0.320465 -0.71867,0.718596 v 1.159977 c 0,0.616969 -0.0604,0.549002 0.61288,0.695199 l 0.0932,1.570779 c 0.007,0.125506 0.10122,0.226946 0.22695,0.226946 h 0.65558 0.65559 c 0.12573,0 0.21949,-0.10144 0.22694,-0.226946 l 0.0932,-1.570779 c 0.67332,-0.146197 0.61289,-0.07823 0.61289,-0.695199 V 91.00788 c 0,-0.398131 -0.32054,-0.718596 -0.71868,-0.718596 h -0.86994 z" /><path
       id="path4150"
       style="color:#000000;overflow:visible;opacity:1;fill:#000000;fill-rule:evenodd;stroke:none;stroke-width:0.0999996;-inkscape-stroke:none;paint-order:fill markers stroke;stop-color:#000000"
       d="m 104.14181,88.140094 a 0.68898242,0.68898242 0 0 0 -0.68936,0.689363 0.68898242,0.68898242 0 0 0 0.68936,0.688847 0.68898242,0.68898242 0 0 0 0.68833,-0.688847 0.68898242,0.68898242 0 0 0 -0.68833,-0.689363 z m -0.66921,1.648478 c -0.31894,0 -0.57516,0.256739 -0.57516,0.575675 v 0.956531 h 2.48822 v -0.956531 c 0,-0.318936 -0.25674,-0.575675 -0.57567,-0.575675 h -0.10181 l -0.56689,0.56689 -0.56689,-0.56689 z m -1.53789,1.793172 c -0.0764,0 -0.13798,0.06156 -0.13798,0.137976 0,0.07641 0.0616,0.137976 0.13798,0.137976 h 0.27233 v 2.465483 c 0,0.09269 0.0753,0.166915 0.16795,0.166915 h 3.53312 c 0.0927,0 0.16743,-0.07422 0.16743,-0.166915 v -2.465483 h 0.27285 c 0.0764,0 0.13798,-0.06157 0.13798,-0.137976 0,-0.07641 -0.0616,-0.137976 -0.13798,-0.137976 z" /></g></svg>
