<?xml version="1.0" encoding="UTF-8" standalone="no"?>
<svg
   width="44mm"
   height="72mm"
   viewBox="0 0 44 72"
   version="1.1"
   id="svg1166"
   sodipodi:docname="Men_Body_merged.svg"
   inkscape:version="1.2.2 (732a01da63, 2022-12-09)"
   xmlns:inkscape="http://www.inkscape.org/namespaces/inkscape"
   xmlns:sodipodi="http://sodipodi.sourceforge.net/DTD/sodipodi-0.dtd"
   xmlns="http://www.w3.org/2000/svg"
   xmlns:svg="http://www.w3.org/2000/svg">
  <sodipodi:namedview
     id="namedview1168"
     pagecolor="#ffffff"
     bordercolor="#666666"
     borderopacity="1.0"
     inkscape:showpageshadow="2"
     inkscape:pageopacity="0.0"
     inkscape:pagecheckerboard="0"
     inkscape:deskcolor="#d1d1d1"
     inkscape:document-units="mm"
     showgrid="false"
     inkscape:zoom="1.3142217"
     inkscape:cx="-28.914452"
     inkscape:cy="138.86546"
     inkscape:window-width="1440"
     inkscape:window-height="830"
     inkscape:window-x="-2"
     inkscape:window-y="-2"
     inkscape:window-maximized="1"
     inkscape:current-layer="svg1166" />
  <defs
     id="defs1147" />
  <path
     id="Head"
     style="display:inline;fill:#ff0000;fill-rule:evenodd"
     d="m 22.000208,12.753743 c -0.528556,0 -1.218791,0.0015 -1.64021,0.04444 -2.259081,0.230252 -3.550376,1.134691 -5.432227,2.713013 -2.841075,2.910647 -2.594462,6.565417 -2.831352,10.823112 -10e-4,0.0045 -0.01344,0.05168 -0.01344,0.05168 0,0 -2.3452583,0.26749 -2.6132768,1.807125 -0.173729,0.998013 0.3009673,3.652402 0.8583458,4.766118 0.804035,1.606574 2.290816,1.124995 2.290816,1.124995 0.0483,0.02806 0.462901,5.20375 1.444356,6.981486 0.16149,0.292507 0.749467,0.797313 1.4118,1.30173 0.0856,0.602054 0.15017,1.249567 0.125574,1.741496 -0.03133,0.626496 -0.859542,6.517725 -1.02371,7.232633 0.0038,-0.002 3.055627,1.88619 3.055627,1.88619 l 4.367693,-0.233578 4.367692,0.233578 c 0,0 3.051827,-1.88819 3.055627,-1.88619 -0.164168,-0.714908 -0.99238,-6.606137 -1.02371,-7.232633 -0.0246,-0.491929 0.03997,-1.139442 0.125574,-1.741496 0.662333,-0.504417 1.25031,-1.009223 1.4118,-1.30173 0.981455,-1.777736 1.396056,-6.953426 1.444356,-6.981486 0,0 1.486781,0.481579 2.290816,-1.124995 0.557379,-1.113716 1.032075,-3.768105 0.858346,-4.766118 -0.268019,-1.539635 -2.613277,-1.807125 -2.613277,-1.807125 0,0 -0.01244,-0.04718 -0.01344,-0.05168 -0.23689,-4.257695 0.0097,-7.912465 -2.831352,-10.823112 -1.881851,-1.578322 -3.173146,-2.482761 -5.432227,-2.713013 -0.421419,-0.04297 -1.111654,-0.04444 -1.640209,-0.04444 z" />
  <path
     id="path4280"
     style="display:inline;fill:#afdde9;fill-rule:evenodd"
     inkscape:label="Shirt"
     d="m 15.278654,46.992997 -3.003434,0.8785 c -0.59021,0.312424 -1.300209,0.646411 -1.808159,0.872298 C 8.057845,49.815187 3.9547061,50.940409 1.8164266,52.082609 1.0541506,52.515876 0.4593077,52.852487 0,53.224658 V 71.99974 h 12.173417 l 0.0031,5.16e-4 h 9.82369 9.823689 l 0.0031,-5.16e-4 H 44.000415 V 53.224658 c -0.459308,-0.372171 -1.054151,-0.708782 -1.816427,-1.142049 -2.138279,-1.1422 -6.241418,-2.267422 -8.650634,-3.338814 -0.50795,-0.225887 -1.217949,-0.559874 -1.808159,-0.872298 l -3.003434,-0.8785 c -1.173367,1.307691 -2.3362,3.375058 -6.721553,4.55011 -4.385354,-1.175052 -5.548187,-3.242419 -6.721554,-4.55011 z" />
  <g
     id="g4669"
     inkscape:label="CollarGroup"
     style="display:inline">
    <path
       id="path4462"
       style="color:#000000;font-variation-settings:normal;opacity:1;vector-effect:none;fill:#000000;fill-opacity:0.22;fill-rule:evenodd;stroke-width:1;stroke-linecap:butt;stroke-linejoin:miter;stroke-miterlimit:4;stroke-dasharray:none;stroke-dashoffset:0;stroke-opacity:1;-inkscape-stroke:none;stop-color:#000000;stop-opacity:1"
       d="m 11.631331,48.197575 c -0.140052,0.06881 -0.277573,0.135885 -0.414961,0.201021 0.06715,0.235866 0.191697,0.447082 0.351916,0.716752 0.191266,0.321928 0.438418,0.690491 0.711068,1.070219 0.545297,0.759458 1.188559,1.559716 1.683618,2.089795 1.299307,1.39122 2.233183,2.354258 3.386357,3.644739 l 0.425813,0.476457 0.304891,-0.558623 c 0.411481,-0.751061 0.826209,-1.348952 1.642794,-2.218986 0.820511,-0.874215 1.379849,-1.347946 2.146122,-1.826245 l 0.131259,-0.08165 0.03991,-0.30453 c 0,0 -0.191134,-0.0561 -0.419824,0.0098 -0.781921,0.491486 -1.400583,1.015115 -2.225571,1.8941 -0.835762,0.890464 -1.283866,1.534581 -1.70894,2.310453 -1.159499,-1.297556 -2.096513,-2.263691 -3.393074,-3.651973 -0.936658,-1.002916 -2.526487,-3.138461 -2.661337,-3.771346 z"
       sodipodi:nodetypes="ccssscccsccccscscc"
       inkscape:label="CollarShadow" />
    <path
       id="path4449"
       style="display:inline;fill:#ffffff;fill-rule:evenodd"
       d="m 15.259811,46.26828 c 0,0 -0.215833,-0.07687 -0.372772,-0.0022 -0.723515,0.344266 -2.656681,1.447978 -2.939118,1.633001 -0.156644,0.102616 -0.332607,0.21364 -0.32084,0.280085 0.107973,0.609779 1.719882,2.777288 2.665455,3.78975 1.296565,1.388284 2.233721,2.354413 3.393222,3.651973 0.425074,-0.775874 0.872951,-1.419739 1.708715,-2.310205 0.835765,-0.890467 1.439679,-1.401347 2.236727,-1.898854 -1.420698,-1.14505 -6.374547,-5.138755 -6.374547,-5.138755 l -4.2e-5,-5e-6"
       sodipodi:nodetypes="cssssccccc"
       inkscape:label="Collar" />
    <path
       id="path11863"
       style="color:#000000;font-variation-settings:normal;display:inline;opacity:1;vector-effect:none;fill:#000000;fill-opacity:0.22;fill-rule:evenodd;stroke-width:1;stroke-linecap:butt;stroke-linejoin:miter;stroke-miterlimit:4;stroke-dasharray:none;stroke-dashoffset:0;stroke-opacity:1;-inkscape-stroke:none;stop-color:#000000;stop-opacity:1"
       d="m 11.631331,48.197575 c -0.140052,0.06881 -0.277573,0.135885 -0.414961,0.201021 0.06715,0.235866 0.191697,0.447082 0.351916,0.716752 0.191266,0.321928 0.438418,0.690491 0.711068,1.070219 0.545297,0.759458 1.188559,1.559716 1.683618,2.089795 1.299307,1.39122 2.233183,2.354258 3.386357,3.644739 l 0.425813,0.476457 0.304891,-0.558623 c 0.411481,-0.751061 0.826209,-1.348952 1.642794,-2.218986 0.820511,-0.874215 1.379849,-1.347946 2.146122,-1.826245 l 0.131259,-0.08165 0.03991,-0.30453 c 0,0 -0.191134,-0.0561 -0.419824,0.0098 -0.781921,0.491486 -1.400583,1.015115 -2.225571,1.8941 -0.835762,0.890464 -1.283866,1.534581 -1.70894,2.310453 -1.159499,-1.297556 -2.096513,-2.263691 -3.393074,-3.651973 -0.936658,-1.002916 -2.526487,-3.138461 -2.661337,-3.771346 z"
       sodipodi:nodetypes="ccssscccsccccscscc"
       inkscape:label="CollarShadow"
       transform="matrix(-1,0,0,1,44.000219,0)" />
    <path
       id="path11865"
       style="display:inline;fill:#ffffff;fill-rule:evenodd"
       d="m 15.259811,46.26828 c 0,0 -0.215833,-0.07687 -0.372772,-0.0022 -0.723515,0.344266 -2.656681,1.447978 -2.939118,1.633001 -0.156644,0.102616 -0.332607,0.21364 -0.32084,0.280085 0.107973,0.609779 1.719882,2.777288 2.665455,3.78975 1.296565,1.388284 2.233721,2.354413 3.393222,3.651973 0.425074,-0.775874 0.872951,-1.419739 1.708715,-2.310205 0.835765,-0.890467 1.439679,-1.401347 2.236727,-1.898854 -1.420698,-1.14505 -6.374547,-5.138755 -6.374547,-5.138755 l -4.2e-5,-5e-6"
       sodipodi:nodetypes="cssssccccc"
       inkscape:label="Collar"
       transform="matrix(-1,0,0,1,44.000219,0)" />
  </g>
  <g
     id="g4674"
     inkscape:label="BowtieGroup"
     style="display:inline">
    <path
       id="Bowtie"
       style="display:inline;fill:#00ff00;fill-rule:evenodd"
       d="m 15.994889,50.021753 c -0.05647,6.37e-4 -0.10142,0.0061 -0.135909,0.0155 -0.967556,0.265111 -0.772758,2.923082 -0.699182,3.830257 0.07358,0.907176 0.552156,3.091189 0.84646,3.427181 0.294304,0.335992 3.12664,-1.041617 3.825606,-1.680001 0.319351,-0.291669 0.653055,-0.660033 0.922425,-0.974617 3.6e-4,3.26e-4 7.71e-4,8.06e-4 0.001,10e-4 0.05836,0.05269 0.315123,0.285873 0.513147,0.33538 0.08516,0.02129 0.357172,0.03364 0.731739,0.03979 0.374566,-0.0062 0.646578,-0.0185 0.731738,-0.03979 0.198024,-0.04951 0.454787,-0.28269 0.513147,-0.33538 2.62e-4,-2.27e-4 6.73e-4,-7.07e-4 0.001,-10e-4 0.26937,0.314584 0.603074,0.682948 0.922425,0.974617 0.698966,0.638384 3.531302,2.015993 3.825606,1.680001 0.294304,-0.335992 0.77288,-2.520005 0.84646,-3.427181 0.07358,-0.907175 0.268374,-3.565146 -0.699182,-3.830257 -0.03449,-0.0094 -0.07944,-0.01487 -0.135909,-0.0155 -0.499164,-0.0056 -1.883258,0.378773 -4.589384,1.934766 -0.375174,-0.301963 -0.781717,-0.59583 -1.415934,-0.59583 -0.634218,0 -1.040761,0.293867 -1.415935,0.59583 -2.706126,-1.555993 -4.09022,-1.940396 -4.589384,-1.934766 z" />
    <path
       id="BowtieShadow"
       style="display:inline;fill:#000000;fill-opacity:0.129518;fill-rule:evenodd"
       d="m 22.000208,51.360689 c -0.636861,0 -1.0445,0.296549 -1.421102,0.599964 -0.335992,0.268789 -0.285288,1.579102 -0.150896,2.049487 0.06839,0.23936 0.159637,0.479765 0.327112,0.630969 0.05836,0.05269 0.315123,0.285873 0.513147,0.33538 0.08516,0.02129 0.357172,0.03364 0.731739,0.03979 0.374566,-0.0062 0.646578,-0.0185 0.731738,-0.03979 0.198024,-0.04951 0.454787,-0.28269 0.513147,-0.33538 0.167475,-0.151204 0.258722,-0.391609 0.327112,-0.630969 0.134392,-0.470385 0.185096,-1.780698 -0.150896,-2.049487 -0.376602,-0.303415 -0.784241,-0.599964 -1.421101,-0.599964 z m -4.904094,1.738912 c -0.09006,0.0017 -0.144924,0.0287 -0.162264,0.09612 -0.460041,1.788727 1.98261,0.495793 2.755387,0.646989 0.177706,0.03477 0.364933,0.04866 0.548287,0.05013 -0.04144,-0.212121 -0.0919,-0.309321 -0.09508,-0.591695 -1.598189,0.261397 -2.65607,-0.208855 -3.046326,-0.201538 z m 9.808187,0 c -0.390256,-0.0073 -1.448137,0.462935 -3.046326,0.201538 -0.0032,0.282374 -0.05364,0.379574 -0.09508,0.591695 0.183354,-0.0015 0.370581,-0.01536 0.548287,-0.05013 0.772777,-0.151196 3.215428,1.141738 2.755387,-0.646989 -0.01734,-0.06742 -0.0722,-0.09442 -0.162264,-0.09612 z" />
  </g>
  <path
     id="path4363"
     style="display:inline;fill:#4d4d4d;fill-rule:evenodd"
     inkscape:label="Suit"
     d="m 14.188281,46.626611 c -0.0092,0.005 -0.01656,0.009 -0.02584,0.01395 -0.143696,0.07739 -0.295504,0.160213 -0.449068,0.244946 -0.153564,0.08473 -0.309212,0.17131 -0.461471,0.256832 -0.304514,0.171045 -0.595086,0.336935 -0.827339,0.471806 -0.02329,0.01352 -0.03788,0.02227 -0.05994,0.03514 -0.224177,0.144664 -0.445394,0.29271 -0.664042,0.447001 l -0.07028,0.09612 -0.0067,0.0093 c -0.411913,0.202233 -0.82684,0.395476 -1.156519,0.542086 C 8.0578268,49.815189 3.954704,50.94041 1.8164266,52.082609 1.0541514,52.515876 0.45930724,52.852488 0,53.224658 V 71.99974 h 12.037508 v 5.16e-4 h 3.865397 l -0.0026,-0.01809 c -0.460087,-3.474477 -1.39744,-10.689327 -1.658296,-13.863237 -0.13748,-1.672639 -0.165064,-4.076769 -0.148312,-6.368603 0.01324,-1.811535 0.05429,-3.553061 0.08992,-4.806942 z m 15.623853,0 0.0047,0.316777 c 0.03563,1.253881 0.07668,2.995407 0.08992,4.806942 0.01675,2.291834 -0.01083,4.695964 -0.148312,6.368603 -0.260856,3.17391 -1.198209,10.38876 -1.658296,13.863237 l -0.0026,0.01809 h 3.865397 v -5.2e-4 H 44.000415 V 53.224658 c -0.459307,-0.37217 -1.054151,-0.708782 -1.816427,-1.142049 -2.138277,-1.142199 -6.2414,-2.26742 -8.650634,-3.338814 -0.329679,-0.14661 -0.744606,-0.339853 -1.156519,-0.542086 l -0.0067,-0.0093 -0.07028,-0.09612 c -0.218648,-0.154291 -0.439865,-0.302337 -0.664042,-0.447001 -0.02206,-0.01287 -0.03666,-0.02162 -0.05995,-0.03514 -0.232253,-0.134871 -0.522825,-0.300761 -0.827339,-0.471806 -0.152259,-0.08552 -0.307907,-0.172102 -0.461471,-0.256832 -0.153564,-0.08473 -0.305372,-0.167556 -0.449068,-0.244946 -0.0093,-0.005 -0.01664,-0.009 -0.02584,-0.01395 z" />
  <g
     id="g4519"
     inkscape:label="LapelGroup"
     style="display:inline">
    <path
       id="LapelShadow"
       style="display:inline;fill:#000000;fill-opacity:0.15;fill-rule:evenodd;stop-color:#000000"
       d="m 8.3622803,52.895996 -0.3999756,0.510563 1.3575399,1.94045 -1.9399333,2.032434 c 1.032247,1.153695 3.1487627,8.41369 4.3589067,14.620813 h 0.434599 C 11.82158,70.262547 9.8739248,60.86776 8.0093302,57.051815 l 1.8613851,-1.999878 z m 27.2758547,0 -1.508435,2.155941 1.861385,1.999878 C 34.12649,60.86776 32.178836,70.262547 31.826998,72.000256 h 0.434599 c 1.210144,-6.207123 3.32666,-13.467118 4.358907,-14.620813 l -1.939934,-2.032434 1.35754,-1.94045 z" />
    <path
       id="Lapel"
       style="color:#000000;display:inline;fill:#666666;fill-rule:evenodd;stroke-width:0.264583px"
       d="m 14.188281,46.626611 c -0.0092,0.005 -0.01656,0.009 -0.02584,0.01395 -0.143696,0.07739 -0.295504,0.160213 -0.449068,0.244946 -0.153564,0.08473 -0.309212,0.17131 -0.461471,0.256832 -0.304515,0.171045 -0.595085,0.336935 -0.827339,0.471806 -0.02329,0.01352 -0.03788,0.02227 -0.05994,0.03514 -0.224177,0.144664 -0.445394,0.29271 -0.664042,0.447001 l -0.07028,0.09612 -3.4313153,4.699972 1.5022339,2.148706 -1.8515665,1.986442 0.040824,0.08165 c 0.9214735,1.885813 1.8775279,5.18935 2.6406659,8.228955 0.757922,3.018829 1.326482,5.774387 1.506368,6.662125 h 3.865397 l -0.0026,-0.01809 C 15.44022,68.507686 14.502869,61.292842 14.242012,58.118929 14.104532,56.446288 14.076948,54.042163 14.0937,51.750326 c 0.01324,-1.811536 0.05429,-3.55306 0.08992,-4.806942 z m 15.623853,0 0.0047,0.316777 c 0.03563,1.253882 0.07668,2.995406 0.08992,4.806942 0.01675,2.291837 -0.01083,4.695962 -0.148312,6.368603 -0.260857,3.173913 -1.198208,10.388757 -1.658296,13.863237 l -0.0026,0.01809 h 3.865397 c 0.179886,-0.887738 0.748446,-3.643296 1.506368,-6.662125 0.763138,-3.039605 1.719192,-6.343142 2.640666,-8.228955 l 0.04082,-0.08165 -1.851567,-1.986442 1.502234,-2.148706 -3.431315,-4.699972 -0.07028,-0.09612 c -0.218648,-0.154291 -0.439865,-0.302337 -0.664042,-0.447001 -0.02206,-0.01287 -0.03666,-0.02162 -0.05995,-0.03514 -0.232254,-0.134871 -0.522824,-0.300761 -0.827339,-0.471806 -0.152259,-0.08552 -0.307907,-0.172102 -0.461471,-0.256832 -0.153564,-0.08473 -0.305372,-0.167556 -0.449068,-0.244946 -0.0093,-0.005 -0.01664,-0.009 -0.02584,-0.01395 z" />
  </g>
  <g
     id="g11689"
     inkscape:label="TieGroup"
     style="display:inline">
    <path
       id="path11685"
       style="display:inline;fill:#00ff00;fill-rule:evenodd"
       inkscape:label="Tie"
       d="m 22.000208,51.406681 -0.768946,0.0124 c 0.0229,-0.0069 -0.836713,0.30839 -2.124418,1.723409 l 1.084688,2.150256 -2.071191,16.706991 h 3.879867 3.879866 L 23.808883,55.292746 24.893571,53.14249 c -1.287705,-1.415019 -2.147318,-1.730309 -2.124418,-1.723409 z" />
    <path
       id="path11687"
       style="color:#000000;overflow:visible;fill:#000000;fill-opacity:0.0907692;fill-rule:evenodd;stroke:none;stroke-width:0.0999999;paint-order:fill markers stroke;stop-color:#000000"
       inkscape:label="TieTint"
       d="M 20.191016,55.295333 18.120341,71.99974 h 3.879867 3.879866 L 23.809399,55.295333 h -1.809191 z" />
  </g>
  <g
     id="g11526"
     inkscape:label="PocketGroup"
     style="display:inline">
    <path
       id="rect7109"
       style="overflow:visible;opacity:1;vector-effect:none;fill:#ffffff;fill-opacity:0.210843;fill-rule:evenodd;paint-order:fill markers stroke;stop-color:#000000;stop-opacity:1"
       inkscape:label="PocketTint"
       d="m 40.077148,60.527928 -1.78e-4,0.428682 c 0,0 2.977525,0.120263 4.463892,0.118563 1.13443,-0.0013 3.869637,-0.19728 4.349904,-0.232254 l -0.02715,-0.34724 c -0.494678,0.02354 -3.188777,0.149478 -4.316356,0.150844 -1.488554,0.0018 -4.470115,-0.118595 -4.470115,-0.118595 z"
       transform="rotate(4.4702086)" />
    <path
       id="rect7322"
       style="overflow:visible;opacity:1;vector-effect:none;fill-opacity:0.15;fill-rule:evenodd;paint-order:fill markers stroke;stop-color:#000000;stop-opacity:1"
       inkscape:label="Pocket"
       d="m 40.076771,60.098771 3.77e-4,0.429157 8.789129,0.0018 -0.03339,-0.427095 z"
       transform="rotate(4.4702086)" />
    <path
       id="path7532"
       style="display:none;fill:#00ff00;fill-opacity:1;fill-rule:evenodd;stroke:none;stroke-width:0.264583px;stroke-linecap:butt;stroke-linejoin:miter;stroke-opacity:1"
       inkscape:label="PocketSquare"
       d="m 41.297738,60.151367 c -1.291799,1.159958 -3.244768,2.260966 -4.775419,3.463355 0.986207,0.110765 2.311556,0.253846 3.162597,0.31936 1.124254,0.08652 3.819957,0.170972 4.314982,0.186035 v -1.414901 c -0.828989,-1.006636 -1.886282,-2.150695 -2.70216,-2.553849 z" />
    <path
       id="path11517"
       style="display:inline;overflow:visible;opacity:1;vector-effect:none;fill:#00ff00;fill-opacity:1;fill-rule:evenodd;paint-order:fill markers stroke;stop-color:#000000;stop-opacity:1"
       inkscape:label="PocketSquare"
       d="m 36.395711,62.54657 c -0.282491,-0.01105 -0.377901,0.459407 -0.428397,0.646989 l -0.09354,0.347782 c 0.950152,0.10935 2.750502,0.311092 3.811137,0.392741 0.713357,0.0549 2.865354,0.143086 4.314982,0.198438 v -0.777214 c -1.285266,-0.09145 -3.668801,-0.232933 -4.314982,-0.28267 -1.085557,-0.08357 -2.509319,-0.362198 -3.19567,-0.505912 -0.03339,-0.01229 -0.06431,-0.01901 -0.09354,-0.02015 z" />
  </g>
  <g
     id="g11894"
     inkscape:label="Tints">
    <path
       style="display:inline;fill:#000000;fill-opacity:0.2;fill-rule:evenodd;stop-color:#000000"
       id="NeckShadow"
       d="m 15.624886,42.480094 c 1.953676,1.934615 4.27668,3.750928 6.375322,3.724838 2.098641,0.02609 4.421645,-1.790223 6.375321,-3.724838 -0.81766,0.612635 -1.705932,1.20105 -2.031917,1.382345 -0.001,7e-4 -0.0031,0.0019 -0.0041,0.0026 h -5.17e-4 c -0.17513,0.09696 -0.350287,0.195712 -0.527617,0.293522 -0.0591,0.03259 -0.118583,0.06487 -0.178283,0.09715 -0.865899,0.468101 -1.804974,0.892287 -3.099553,0.957047 -3.2e-4,1.8e-5 -6.93e-4,-1.7e-5 -0.001,0 -10e-4,4.3e-5 -0.0017,-4.2e-5 -0.0026,0 -0.002,1.28e-4 -0.0052,4.04e-4 -0.0072,5.17e-4 -0.04803,0.0024 -0.09673,0.0044 -0.145727,0.0057 -0.0183,4.6e-4 -0.03689,6.82e-4 -0.05529,10e-4 -0.0314,5.63e-4 -0.06277,8.64e-4 -0.09457,0.001 -0.0267,1.52e-4 -0.05362,1.52e-4 -0.08062,0 -0.04813,-3e-4 -0.09663,-7.67e-4 -0.145728,-0.0021 h -5.16e-4 -5.17e-4 c -0.0491,0.0013 -0.0976,0.0018 -0.145728,0.0021 -0.027,1.52e-4 -0.05391,1.52e-4 -0.08062,0 -0.0318,-1.69e-4 -0.06317,-4.7e-4 -0.09457,-0.001 -0.0184,-3.52e-4 -0.03699,-5.74e-4 -0.05529,-10e-4 -0.049,-0.0013 -0.0977,-0.0033 -0.145727,-0.0057 -0.002,-1.13e-4 -0.0052,-3.89e-4 -0.0072,-5.17e-4 -8.5e-4,-4.2e-5 -0.0016,4.3e-5 -0.0026,0 -3.4e-4,-1.7e-5 -7.13e-4,1.8e-5 -0.001,0 -1.294579,-0.06476 -2.233654,-0.488946 -3.099553,-0.957047 -0.0597,-0.03228 -0.119183,-0.06456 -0.178283,-0.09715 -0.17733,-0.09781 -0.352487,-0.196561 -0.527617,-0.293522 h -5.17e-4 c -9.99e-4,-6.7e-4 -0.0031,-0.0019 -0.0041,-0.0026 -0.325985,-0.181295 -1.214257,-0.76971 -2.031917,-1.382345 z" />
    <path
       style="display:inline;fill:#666666;fill-opacity:0.15;fill-rule:evenodd"
       d="m 28.729305,46.308801 c 0.0675,0.03564 0.941257,0.498002 1.219047,0.644922 0.0053,0.186316 0.01063,0.401553 0.01602,0.605648 -0.0055,-0.208384 -0.01068,-0.432707 -0.01602,-0.620634 0.285473,0.150775 1.079524,0.570789 1.783871,0.943612 l -0.0083,-0.01085 c 0.59021,0.312427 1.300209,0.64641 1.808159,0.872298 2.409224,1.071395 6.512349,2.196611 8.650634,3.338814 0.76231,0.433265 1.357118,0.769875 1.816427,1.142049 V 71.99974 H 32.260356 v 5.16e-4 H 31.825757 28.230111 V 71.99974 H 25.878833 22 v -16.804659 -3.7884 h 0.361735 c -0.0011,-3.39e-4 0.0014,0.0021 0.0057,0.0057 2.170887,-1.812389 4.42228,-3.113098 6.361886,-5.103565 z"
       id="RightTint" />
    <path
       style="display:inline;fill:#666666;fill-opacity:0.123494;fill-rule:evenodd"
       d="m 22.000208,12.753743 v 5.297352 c 3.6e-4,2e-5 7.06e-4,-2.1e-5 10e-4,0 v 27.16785 h -5.17e-4 -5.16e-4 v 0.985987 c 2.76e-4,4e-6 7.23e-4,-5e-6 0.001,0 v 5.201749 h 0.361735 c -0.0011,-3e-4 0.0012,0.0019 0.0057,0.0057 2.170877,-1.812346 4.422305,-3.113123 6.361886,-5.103565 0.0022,0.0011 0.03547,0.01867 0.03927,0.02067 -0.164168,-0.714909 -0.338673,-1.594039 -0.370003,-2.220536 -0.0246,-0.491929 0.03997,-1.139441 0.125574,-1.741496 0.662418,-0.50437 1.250311,-1.009224 1.4118,-1.30173 0.981466,-1.777741 1.396056,-6.953426 1.444356,-6.981486 0,0 1.48678,0.481583 2.290816,-1.124995 0.557379,-1.113718 1.032075,-3.768103 0.858346,-4.766118 C 34.262635,26.653487 31.917378,26.386 31.917378,26.386 c 0,0 -0.01225,-0.04673 -0.01344,-0.05116 -0.236942,-4.257933 0.0099,-7.912852 -2.831352,-10.823629 -2.291626,-1.922005 -3.761054,-2.543226 -7.072436,-2.757455 z"
       id="HeadTint" />
  </g>
</svg>
