<?xml version="1.0" encoding="UTF-8"?>
<svg width="44mm" height="72mm" inkscape:version="1.2.2 (732a01da63, 2022-12-09)"
   sodipodi:docname="Men_Body_opt.svg" version="1.1" viewBox="0 0 44 72"
   xmlns="http://www.w3.org/2000/svg" xmlns:inkscape="http://www.inkscape.org/namespaces/inkscape"
   xmlns:sodipodi="http://sodipodi.sourceforge.net/DTD/sodipodi-0.dtd">
   <sodipodi:namedview bordercolor="#666666" borderopacity="1.0" inkscape:current-layer="svg1166"
      inkscape:cx="120.6037" inkscape:cy="218.76066" inkscape:deskcolor="#d1d1d1"
      inkscape:document-units="mm" inkscape:pagecheckerboard="0" inkscape:pageopacity="0.0"
      inkscape:showpageshadow="2" inkscape:window-height="830" inkscape:window-maximized="1"
      inkscape:window-width="1440" inkscape:window-x="-2" inkscape:window-y="-2"
      inkscape:zoom="1.3142217" pagecolor="#ffffff" showgrid="false" />
   <path id="Head"
      d="m22 12.754c-0.52856 0-1.2188 0.0015-1.6402 0.04444-2.2591 0.23025-3.5504 1.1347-5.4322 2.713-2.8411 2.9106-2.5945 6.5654-2.8314 10.823-1e-3 0.0045-0.01344 0.05168-0.01344 0.05168s-2.3453 0.26749-2.6133 1.8071c-0.17373 0.99801 0.30097 3.6524 0.85835 4.7661 0.80404 1.6066 2.2908 1.125 2.2908 1.125 0.0483 0.02806 0.4629 5.2038 1.4444 6.9815 0.16149 0.29251 0.74947 0.79731 1.4118 1.3017 0.0856 0.60205 0.15017 1.2496 0.12557 1.7415-0.03133 0.6265-0.85954 6.5177-1.0237 7.2326 0.0038-2e-3 3.0556 1.8862 3.0556 1.8862l4.3677-0.23358 4.3677 0.23358s3.0518-1.8882 3.0556-1.8862c-0.16417-0.71491-0.99238-6.6061-1.0237-7.2326-0.0246-0.49193 0.03997-1.1394 0.12557-1.7415 0.66233-0.50442 1.2503-1.0092 1.4118-1.3017 0.98146-1.7777 1.3961-6.9534 1.4444-6.9815 0 0 1.4868 0.48158 2.2908-1.125 0.55738-1.1137 1.0321-3.7681 0.85835-4.7661-0.26802-1.5396-2.6133-1.8071-2.6133-1.8071s-0.01244-0.04718-0.01344-0.05168c-0.23689-4.2577 0.0097-7.9125-2.8314-10.823-1.8819-1.5783-3.1731-2.4828-5.4322-2.713-0.42142-0.04297-1.1117-0.04444-1.6402-0.04444z"
      fill="#f00" fill-rule="evenodd" />
   <path
      d="m15.279 46.993-3.0034 0.8785c-0.59021 0.31242-1.3002 0.64641-1.8082 0.8723-2.4092 1.0714-6.5124 2.1966-8.6506 3.3388-0.76228 0.43327-1.3571 0.76988-1.8164 1.142v18.775h12.173l0.0031 5.16e-4h19.647l0.0031-5.16e-4h12.173v-18.775c-0.45931-0.37217-1.0542-0.70878-1.8164-1.142-2.1383-1.1422-6.2414-2.2674-8.6506-3.3388-0.50795-0.22589-1.2179-0.55987-1.8082-0.8723l-3.0034-0.8785c-1.1734 1.3077-2.3362 3.3751-6.7216 4.5501-4.3854-1.1751-5.5482-3.2424-6.7216-4.5501z"
      fill="#afdde9" fill-rule="evenodd" id="Shirt" />
   <g fill-rule="evenodd" id="CollarGroup">
      <path
         d="m11.631 48.198c-0.14005 0.06881-0.27757 0.13588-0.41496 0.20102 0.06715 0.23587 0.1917 0.44708 0.35192 0.71675 0.19127 0.32193 0.43842 0.69049 0.71107 1.0702 0.5453 0.75946 1.1886 1.5597 1.6836 2.0898 1.2993 1.3912 2.2332 2.3543 3.3864 3.6447l0.42581 0.47646 0.30489-0.55862c0.41148-0.75106 0.82621-1.349 1.6428-2.219 0.82051-0.87421 1.3798-1.3479 2.1461-1.8262l0.13126-0.081648 0.13126 0.081648c0.76627 0.4783 1.3256 0.95203 2.1461 1.8262 0.81658 0.87003 1.2313 1.4679 1.6428 2.219l0.30489 0.55862 0.42581-0.47646c1.1532-1.2905 2.0871-2.2535 3.3864-3.6447 0.49506-0.53008 1.1383-1.3303 1.6836-2.0898 0.27265-0.37973 0.5198-0.74829 0.71107-1.0702 0.16022-0.26967 0.28477-0.48089 0.35192-0.71675-0.13739-0.065136-0.27491-0.13221-0.41496-0.20102-0.13485 0.63288-1.7247 2.7684-2.6613 3.7713-1.2966 1.3883-2.2336 2.3544-3.3931 3.652-0.42507-0.77587-0.87318-1.42-1.7089-2.3105-0.82499-0.87898-1.4438-1.4025-2.2257-1.8939-0.16664-0.04802-0.31248-0.031233-0.37982-0.018604-0.067339-0.012629-0.21318-0.029416-0.37982 0.018604-0.78192 0.49148-1.4007 1.015-2.2257 1.8939-0.83576 0.89046-1.2839 1.5346-1.7089 2.3105-1.1595-1.2976-2.0965-2.2637-3.3931-3.652-0.93666-1.0029-2.5265-3.1385-2.6613-3.7713z"
         color="#000000" fill-opacity=".22" stop-color="#000000"
         style="-inkscape-stroke:none;font-variation-settings:normal" id="CollarShadow" />
      <path
         d="m15.043 46.233c-0.052162 7.07e-4 -0.10702 0.009221-0.15606 0.032556-0.72352 0.34426-2.6564 1.448-2.9388 1.633-0.15664 0.10262-0.33268 0.21364-0.32091 0.28009 0.10797 0.60978 1.7199 2.7775 2.6655 3.79 1.2966 1.3883 2.2336 2.3544 3.3931 3.652 0.42507-0.77587 0.87318-1.42 1.7089-2.3105 0.83576-0.89047 1.4395-1.4011 2.2366-1.8986-1.4207-1.145-6.3748-5.1387-6.3748-5.1387l0.003617-0.004651s-0.10228-0.036696-0.21704-0.03514zm13.914 0c-0.11476-0.001556-0.21704 0.03514-0.21704 0.03514l0.0031 0.004651s-4.9536 3.9937-6.3743 5.1387c0.79705 0.49751 1.4008 1.0081 2.2366 1.8986 0.83576 0.89046 1.2839 1.5346 1.7089 2.3105 1.1595-1.2976 2.0965-2.2637 3.3931-3.652 0.94557-1.0125 2.5575-3.1802 2.6655-3.79 0.011767-0.066445-0.16427-0.17747-0.32091-0.28009-0.28244-0.18502-2.2158-1.2887-2.9394-1.633-0.049044-0.023335-0.10338-0.031849-0.15555-0.032556z"
         fill="#fff" id="Collar" />
   </g>
   <g fill-rule="evenodd" id="BowtieGroup">
      <path id="Bowtie"
         d="m15.995 50.022c-0.05647 6.37e-4 -0.10142 0.0061-0.13591 0.0155-0.96756 0.26511-0.77276 2.9231-0.69918 3.8303 0.07358 0.90718 0.55216 3.0912 0.84646 3.4272s3.1266-1.0416 3.8256-1.68c0.31935-0.29167 0.65306-0.66003 0.92242-0.97462 3.6e-4 3.26e-4 7.71e-4 8.06e-4 1e-3 1e-3 0.05836 0.05269 0.31512 0.28587 0.51315 0.33538 0.08516 0.02129 0.35717 0.03364 0.73174 0.03979 0.37457-0.0062 0.64658-0.0185 0.73174-0.03979 0.19802-0.04951 0.45479-0.28269 0.51315-0.33538 2.62e-4 -2.27e-4 6.73e-4 -7.07e-4 1e-3 -1e-3 0.26937 0.31458 0.60307 0.68295 0.92242 0.97462 0.69897 0.63838 3.5313 2.016 3.8256 1.68s0.77288-2.52 0.84646-3.4272c0.07358-0.90718 0.26837-3.5651-0.69918-3.8303-0.03449-0.0094-0.07944-0.01487-0.13591-0.0155-0.49916-0.0056-1.8833 0.37877-4.5894 1.9348-0.37517-0.30196-0.78172-0.59583-1.4159-0.59583-0.63422 0-1.0408 0.29387-1.4159 0.59583-2.7061-1.556-4.0902-1.9404-4.5894-1.9348z"
         fill="#0f0" />
      <path id="BowtieShadow"
         d="m22 51.361c-0.63686 0-1.0445 0.29655-1.4211 0.59996-0.33599 0.26879-0.28529 1.5791-0.1509 2.0495 0.06839 0.23936 0.15964 0.47976 0.32711 0.63097 0.05836 0.05269 0.31512 0.28587 0.51315 0.33538 0.08516 0.02129 0.35717 0.03364 0.73174 0.03979 0.37457-0.0062 0.64658-0.0185 0.73174-0.03979 0.19802-0.04951 0.45479-0.28269 0.51315-0.33538 0.16748-0.1512 0.25872-0.39161 0.32711-0.63097 0.13439-0.47038 0.1851-1.7807-0.1509-2.0495-0.3766-0.30342-0.78424-0.59996-1.4211-0.59996zm-4.9041 1.7389c-0.09006 0.0017-0.14492 0.0287-0.16226 0.09612-0.46004 1.7887 1.9826 0.49579 2.7554 0.64699 0.17771 0.03477 0.36493 0.04866 0.54829 0.05013-0.04144-0.21212-0.0919-0.30932-0.09508-0.5917-1.5982 0.2614-2.6561-0.20886-3.0463-0.20154zm9.8082 0c-0.39026-0.0073-1.4481 0.46294-3.0463 0.20154-0.0032 0.28237-0.05364 0.37957-0.09508 0.5917 0.18335-0.0015 0.37058-0.01536 0.54829-0.05013 0.77278-0.1512 3.2154 1.1417 2.7554-0.64699-0.01734-0.06742-0.0722-0.09442-0.16226-0.09612z"
         fill-opacity=".12952" />
   </g>
   <path
      d="m14.188 46.627c-0.0092 5e-3 -0.01656 9e-3 -0.02584 0.01395-0.1437 0.07739-0.2955 0.16021-0.44907 0.24495-0.15356 0.08473-0.30921 0.17131-0.46147 0.25683-0.30451 0.17104-0.59509 0.33694-0.82734 0.47181-0.02329 0.01352-0.03788 0.02227-0.05994 0.03514-0.22418 0.14466-0.44539 0.29271-0.66404 0.447l-0.07028 0.09612-0.0067 0.0093c-0.41191 0.20223-0.82684 0.39548-1.1565 0.54209-2.4093 1.0714-6.5124 2.1966-8.6507 3.3388-0.76228 0.43327-1.3571 0.76988-1.8164 1.142v18.775h12.038v5.16e-4h3.8654l-0.0026-0.01809c-0.46009-3.4745-1.3974-10.689-1.6583-13.863-0.13748-1.6726-0.16506-4.0768-0.14831-6.3686 0.01324-1.8115 0.05429-3.5531 0.08992-4.8069zm15.624 0 0.0047 0.31678c0.03563 1.2539 0.07668 2.9954 0.08992 4.8069 0.01675 2.2918-0.01083 4.696-0.14831 6.3686-0.26086 3.1739-1.1982 10.389-1.6583 13.863l-0.0026 0.01809h3.8654v-5.2e-4h12.037v-18.775c-0.45931-0.37217-1.0542-0.70878-1.8164-1.142-2.1383-1.1422-6.2414-2.2674-8.6506-3.3388-0.32968-0.14661-0.74461-0.33985-1.1565-0.54209l-0.0067-0.0093-0.07028-0.09612c-0.21865-0.15429-0.43986-0.30234-0.66404-0.447-0.02206-0.01287-0.03666-0.02162-0.05995-0.03514-0.23225-0.13487-0.52282-0.30076-0.82734-0.47181-0.15226-0.08552-0.30791-0.1721-0.46147-0.25683s-0.30537-0.16756-0.44907-0.24495c-0.0093-5e-3 -0.01664-9e-3 -0.02584-0.01395z"
      fill="#4d4d4d" fill-rule="evenodd" id="Suit" />
   <g fill-rule="evenodd" id="LapelGroup">
      <path id="LapelShadow"
         d="m8.3623 52.896-0.39998 0.51056 1.3575 1.9404-1.9399 2.0324c1.0322 1.1537 3.1488 8.4137 4.3589 14.621h0.4346c-0.35184-1.7377-2.2995-11.132-4.1641-14.948l1.8614-1.9999zm27.276 0-1.5084 2.1559 1.8614 1.9999c-1.8646 3.8159-3.8122 13.211-4.1641 14.948h0.4346c1.2101-6.2071 3.3267-13.467 4.3589-14.621l-1.9399-2.0324 1.3575-1.9404z"
         fill-opacity=".15" stop-color="#000000" />
      <path id="Lapel"
         d="m14.188 46.627c-0.0092 5e-3 -0.01656 9e-3 -0.02584 0.01395-0.1437 0.07739-0.2955 0.16021-0.44907 0.24495-0.15356 0.08473-0.30921 0.17131-0.46147 0.25683-0.30452 0.17104-0.59508 0.33694-0.82734 0.47181-0.02329 0.01352-0.03788 0.02227-0.05994 0.03514-0.22418 0.14466-0.44539 0.29271-0.66404 0.447l-0.07028 0.09612-3.4313 4.7 1.5022 2.1487-1.8516 1.9864 0.040824 0.08165c0.92147 1.8858 1.8775 5.1894 2.6407 8.229 0.75792 3.0188 1.3265 5.7744 1.5064 6.6621h3.8654l-0.0026-0.01809c-0.46009-3.4745-1.3974-10.689-1.6583-13.863-0.13748-1.6726-0.16506-4.0768-0.14831-6.3686 0.01324-1.8115 0.05429-3.5531 0.08992-4.8069zm15.624 0 0.0047 0.31678c0.03563 1.2539 0.07668 2.9954 0.08992 4.8069 0.01675 2.2918-0.01083 4.696-0.14831 6.3686-0.26086 3.1739-1.1982 10.389-1.6583 13.863l-0.0026 0.01809h3.8654c0.17989-0.88774 0.74845-3.6433 1.5064-6.6621 0.76314-3.0396 1.7192-6.3431 2.6407-8.229l0.04082-0.08165-1.8516-1.9864 1.5022-2.1487-3.4313-4.7-0.07028-0.09612c-0.21865-0.15429-0.43986-0.30234-0.66404-0.447-0.02206-0.01287-0.03666-0.02162-0.05995-0.03514-0.23225-0.13487-0.52282-0.30076-0.82734-0.47181-0.15226-0.08552-0.30791-0.1721-0.46147-0.25683s-0.30537-0.16756-0.44907-0.24495c-0.0093-5e-3 -0.01664-9e-3 -0.02584-0.01395z"
         color="#000000" fill="#666" stroke-width=".26458px" />
   </g>
   <g fill-rule="evenodd" id="TieGroup">
      <path
         d="m22 51.407-0.76895 0.0124c0.0229-0.0069-0.83671 0.30839-2.1244 1.7234l1.0847 2.1503-2.0712 16.707h7.7597l-2.0712-16.707 1.0847-2.1503c-1.2877-1.415-2.1473-1.7303-2.1244-1.7234z"
         fill="#0f0" id="Tie" />
      <path d="m20.191 55.295-2.0707 16.704h7.7597l-2.0707-16.704h-1.8092z" color="#000000"
         fill-opacity=".090769" stop-color="#000000" style="paint-order:fill markers stroke"
         id="TieTint" />
   </g>
   <g fill-rule="evenodd" id="PocketGroup">
      <path transform="rotate(4.4702)"
         d="m40.077 60.528-1.78e-4 0.42868s2.9775 0.12026 4.4639 0.11856c1.1344-0.0013 3.8696-0.19728 4.3499-0.23225l-0.02715-0.34724c-0.49468 0.02354-3.1888 0.14948-4.3164 0.15084-1.4886 0.0018-4.4701-0.1186-4.4701-0.1186z"
         fill="#fff" fill-opacity=".21084" stop-color="#000000"
         style="paint-order:fill markers stroke" id="PocketTint" />
      <path transform="rotate(4.4702)"
         d="m40.077 60.099 3.77e-4 0.42916 8.7891 0.0018-0.03339-0.4271z" fill-opacity=".15"
         stop-color="#000000" style="paint-order:fill markers stroke" id="Pocket" />
      <path
         d="m41.298 60.151c-1.2918 1.16-3.2448 2.261-4.7754 3.4634 0.98621 0.11076 2.3116 0.25385 3.1626 0.31936 1.1243 0.08652 3.82 0.17097 4.315 0.18604v-1.4149c-0.82899-1.0066-1.8863-2.1507-2.7022-2.5538z"
         display="none" fill="#0f0" id="PocketSquare1" />
      <path
         d="m36.396 62.547c-0.28249-0.01105-0.3779 0.45941-0.4284 0.64699l-0.09354 0.34778c0.95015 0.10935 2.7505 0.31109 3.8111 0.39274 0.71336 0.0549 2.8654 0.14309 4.315 0.19844v-0.77721c-1.2853-0.09145-3.6688-0.23293-4.315-0.28267-1.0856-0.08357-2.5093-0.3622-3.1957-0.50591-0.03339-0.01229-0.06431-0.01901-0.09354-0.02015z"
         fill="#0f0" stop-color="#000000" style="paint-order:fill markers stroke" id="PocketSquare2" />
   </g>
   <g fill-rule="evenodd" id="Tints">
      <path id="NeckShadow"
         d="m15.625 42.48c1.9537 1.9346 4.2767 3.7509 6.3753 3.7248 2.0986 0.02609 4.4216-1.7902 6.3753-3.7248-0.81766 0.61264-1.7059 1.201-2.0319 1.3823-1e-3 7e-4 -0.0031 0.0019-0.0041 0.0026h-5.17e-4c-0.17513 0.09696-0.35029 0.19571-0.52762 0.29352-0.0591 0.03259-0.11858 0.06487-0.17828 0.09715-0.8659 0.4681-1.805 0.89229-3.0996 0.95705-3.2e-4 1.8e-5 -6.93e-4 -1.7e-5 -1e-3 0-1e-3 4.3e-5 -0.0017-4.2e-5 -0.0026 0-2e-3 1.28e-4 -0.0052 4.04e-4 -0.0072 5.17e-4 -0.04803 0.0024-0.09673 0.0044-0.14573 0.0057-0.0183 4.6e-4 -0.03689 6.82e-4 -0.05529 1e-3 -0.0314 5.63e-4 -0.06277 8.64e-4 -0.09457 1e-3 -0.0267 1.52e-4 -0.05362 1.52e-4 -0.08062 0-0.04813-3e-4 -0.09663-7.67e-4 -0.14573-0.0021h-0.001033c-0.0491 0.0013-0.0976 0.0018-0.14573 0.0021-0.027 1.52e-4 -0.05391 1.52e-4 -0.08062 0-0.0318-1.69e-4 -0.06317-4.7e-4 -0.09457-1e-3 -0.0184-3.52e-4 -0.03699-5.74e-4 -0.05529-1e-3 -0.049-0.0013-0.0977-0.0033-0.14573-0.0057-2e-3 -1.13e-4 -0.0052-3.89e-4 -0.0072-5.17e-4 -8.5e-4 -4.2e-5 -0.0016 4.3e-5 -0.0026 0-3.4e-4 -1.7e-5 -7.13e-4 1.8e-5 -1e-3 0-1.2946-0.06476-2.2337-0.48895-3.0996-0.95705-0.0597-0.03228-0.11918-0.06456-0.17828-0.09715-0.17733-0.09781-0.35249-0.19656-0.52762-0.29352h-5.17e-4c-9.99e-4 -6.7e-4 -0.0031-0.0019-0.0041-0.0026-0.32598-0.1813-1.2143-0.76971-2.0319-1.3823z"
         fill-opacity=".2" stop-color="#000000" />
      <path id="RightTint"
         d="m28.729 46.309c0.0675 0.03564 0.94126 0.498 1.219 0.64492 0.0053 0.18632 0.01063 0.40155 0.01602 0.60565-0.0055-0.20838-0.01068-0.43271-0.01602-0.62063 0.28547 0.15078 1.0795 0.57079 1.7839 0.94361l-0.0083-0.01085c0.59021 0.31243 1.3002 0.64641 1.8082 0.8723 2.4092 1.0714 6.5123 2.1966 8.6506 3.3388 0.76231 0.43326 1.3571 0.76988 1.8164 1.142v18.775h-11.739v5.16e-4h-4.0302v-5.16e-4h-6.2301v-20.593h0.36174c-0.0011-3.39e-4 0.0014 0.0021 0.0057 0.0057 2.1709-1.8124 4.4223-3.1131 6.3619-5.1036z"
         fill="#666" fill-opacity=".15" />
      <path id="HeadTint"
         d="m22 12.754v5.2974c3.6e-4 2e-5 7.06e-4 -2.1e-5 1e-3 0v27.168h-0.001033v0.98599c2.76e-4 4e-6 7.23e-4 -5e-6 1e-3 0v5.2017h0.36174c-0.0011-3e-4 0.0012 0.0019 0.0057 0.0057 2.1709-1.8123 4.4223-3.1131 6.3619-5.1036 0.0022 0.0011 0.03547 0.01867 0.03927 0.02067-0.16417-0.71491-0.33867-1.594-0.37-2.2205-0.0246-0.49193 0.03997-1.1394 0.12557-1.7415 0.66242-0.50437 1.2503-1.0092 1.4118-1.3017 0.98147-1.7777 1.3961-6.9534 1.4444-6.9815 0 0 1.4868 0.48158 2.2908-1.125 0.55738-1.1137 1.0321-3.7681 0.85835-4.7661-0.26802-1.5396-2.6133-1.8071-2.6133-1.8071s-0.01225-0.04673-0.01344-0.05116c-0.23694-4.2579 0.0099-7.9129-2.8314-10.824-2.2916-1.922-3.7611-2.5432-7.0724-2.7575z"
         fill="#666" fill-opacity=".12349" />
   </g>
</svg>