<?xml version="1.0" encoding="UTF-8" standalone="no"?>
<!-- Created with Inkscape (http://www.inkscape.org/) -->

<svg
   width="320"
   height="320"
   viewBox="0 0 84.666667 84.666667"
   version="1.1"
   id="svg5"
   xml:space="preserve"
   xmlns="http://www.w3.org/2000/svg"
   xmlns:svg="http://www.w3.org/2000/svg"><defs
     id="defs2" /><g
     id="layer1"
     transform="translate(-45.682293,-14.194784)"><path
       style="color:#000000;overflow:visible;opacity:1;fill:#000000;fill-opacity:1;fill-rule:evenodd;stroke-width:0;paint-order:fill markers stroke;stop-color:#000000"
       d="m 78.312859,45.107626 c -4.580878,0 -8.268746,3.687866 -8.268746,8.268746 v 18.077449 c 0,0.217772 0.260832,1.080758 1.068152,1.297079 l 5.558834,1.348755 c -0.0093,0.0044 -0.01855,0.009 -0.02791,0.01344 l 1.5875,18.075382 c 0.08675,0.98778 0.79849,1.790072 1.790071,1.790072 h 16.108578 c 0.991582,0 1.790072,-0.79849 1.790072,-1.790072 l 1.452107,-18.0821 c -0.0107,-0.0043 5.222418,-1.370459 5.222418,-1.370459 0.49435,-0.132461 1.3932,-0.819061 1.3932,-1.74563 V 53.376372 c 0,-4.58088 -3.68787,-8.268746 -8.268747,-8.268746 z"
       id="path3718" /><path
       style="color:#000000;overflow:visible;opacity:1;fill:#000000;fill-opacity:1;fill-rule:evenodd;stroke-width:0;paint-order:fill markers stroke;stop-color:#000000"
       d="m 88.016143,19.07769 c -6.283383,1e-6 -11.377082,5.093701 -11.377083,11.377084 0,6.283383 5.093699,11.377082 11.377083,11.377083 6.283384,-10e-7 11.377083,-5.0937 11.377083,-11.377083 0,-6.283383 -5.0937,-11.377083 -11.377083,-11.377084 z"
       id="path354" /><rect
       style="color:#000000;display:none;overflow:visible;opacity:0.75;fill:#00ff00;fill-opacity:1;fill-rule:evenodd;stroke-width:0;paint-order:fill markers stroke;stop-color:#000000"
       id="rect2888"
       width="49.400246"
       height="110.01698"
       x="88.015625"
       y="1.5464112"
       ry="1.7898641" /></g></svg>
