<svg
  width="44mm"
  height="72mm"
  viewBox="0 0 44 72"
  xmlns:sodipodi="http://sodipodi.sourceforge.net/DTD/sodipodi-0.dtd"
>
  <path
    style="
      display: inline;
      fill-rule: evenodd;
      stroke: none;
      stroke-width: 0.264583px;
      stroke-linecap: butt;
      stroke-linejoin: miter;
      stroke-opacity: 1;
    "
    d="m 14.078422,25.25697 c 0.982216,-1.403165 1.262849,-4.583672 1.262849,-4.583672 0,0 4.490128,0.982215 7.764179,0.935443 3.274052,-0.04677 6.501332,-0.982215 6.501332,-0.982215 0,0 -0.11997,2.038601 0.581615,3.53531 0.701582,1.49671 1.024856,3.545391 2.084401,3.667602 0.89889,0.103681 1.019476,-8.165196 0.888672,-9.027027 -0.233863,-1.07576 -1.870887,-1.496709 -1.870887,-1.496709 0,0 0.374176,-1.216077 0.23386,-3.22728 -0.140317,-2.011203 -2.291837,-3.975634 -2.291837,-3.975634 0,0 0.660488,1.700821 0.333082,2.262087 -0.327406,0.561266 -0.192769,1.853864 -2.578146,0.637787 -2.385379,-1.216076 -2.666012,-1.496709 -5.84652,-1.403165 -3.180507,0.09355 -6.548103,2.759558 -7.062597,3.367596 -0.514494,0.608039 0.09355,1.122532 -1.216076,1.73057 -1.309621,0.608039 -1.536834,1.958354 -1.536834,3.455063 0,1.49671 -0.01746,7.723598 0.815454,7.315804 0.832918,-0.407793 0.955238,-0.808394 1.937453,-2.21156 z"
    sodipodi:nodetypes="scscssccscsscssscs"
    id="hair"
  />
</svg>