<svg
  width="44mm"
  height="72mm"
  viewBox="0 0 44 72"
  xmlns:sodipodi="http://sodipodi.sourceforge.net/DTD/sodipodi-0.dtd"
>
  <path
    style="
      display: inline;
      fill-rule: evenodd;
      stroke: none;
      stroke-width: 0.264583px;
      stroke-linecap: butt;
      stroke-linejoin: miter;
      stroke-opacity: 1;
    "
    d="m 25.274426,10.010758 c -0.334269,0.0069 -0.542086,0.05219 -0.542086,0.05219 0,0 1.315802,0.735833 1.780254,1.084171 0.464451,0.34834 0.696638,1.393211 0.348299,1.780253 -0.34834,0.387044 -1.006218,-0.464636 -1.819011,-0.890385 -0.812791,-0.425747 -1.81946,-0.309541 -2.903182,-0.309541 -1.083722,0 -4.102629,0.774153 -6.77323,0.425813 -2.6706,-0.348338 -3.018937,-1.393196 -3.018937,-1.393196 -0.198426,0.216365 -1.010291,1.170762 -1.347204,3.509346 -0.336915,2.338584 0.55474,3.230561 0.752925,3.765662 0.198186,0.535099 -0.594224,0.8324 -0.718099,1.7262 -0.123874,0.8938 -0.146886,2.173921 0.01681,4.466184 0.09445,3.683722 0.89762,7.320483 0.89762,7.320483 0,0 0.283211,0.283272 0.519348,0.141594 0.236132,-0.141682 0.04734,-2.833545 0.09457,-4.014226 0.04723,-1.180682 1.41668,-2.314055 1.605586,-3.164148 0.18891,-0.85009 0.04736,-2.833644 0.33073,-3.022554 0.283361,-0.1889 0.660914,-0.802975 2.361096,-0.09457 1.299041,0.541266 3.313361,0.55831 5.140255,0.536401 1.826892,0.02191 3.841215,0.0049 5.140254,-0.536401 1.700182,-0.708405 2.077735,-0.09433 2.361096,0.09457 0.28337,0.18891 0.14182,2.172464 0.33073,3.022554 0.188906,0.850093 1.558356,1.983466 1.605586,3.164148 0.04723,1.180681 -0.141564,3.872544 0.09457,4.014226 0.236137,0.141678 0.519348,-0.141594 0.519348,-0.141594 1.215462,-3.982874 1.183817,-9.545916 1.002006,-11.654069 -0.120458,-1.396746 -1.238684,-1.780212 -1.238684,-2.128552 0,-0.348339 1.313358,-1.665386 1.178142,-2.726368 -0.928903,-0.116113 -2.610055,0.791098 -2.958395,1.178142 -0.07405,-0.882493 -0.02475,-2.915635 -1.586983,-4.79919 -1.09098,-1.250635 -2.438057,-1.4222211 -3.17345,-1.40715 z"
    id="hair"
    sodipodi:nodetypes="scssssscsssccssscscssssscsscccss"
  />
</svg>