<svg
  width="44mm"
  height="72mm"
  viewBox="0 0 44 72"
  xmlns:sodipodi="http://sodipodi.sourceforge.net/DTD/sodipodi-0.dtd"
>
  <path
    style="
      display: inline;
      fill-rule: evenodd;
      stroke: none;
      stroke-width: 0.264583px;
      stroke-linecap: butt;
      stroke-linejoin: miter;
      stroke-opacity: 1;
    "
    d="M 23.134505,8.2661621 C 22.579476,8.281401 21.986609,9.2150204 21.572327,9.1229574 21.144678,9.0279246 20.717209,8.4104948 20.004464,8.6955933 19.291717,8.9806913 19.386619,10.358771 18.816423,9.8360921 18.246226,9.3134119 17.913892,8.9330477 17.438729,9.4082113 16.963564,9.883375 17.010693,10.50119 16.725594,10.54871 c -0.285098,0.04752 -1.14019,-0.38021 -1.520321,-0.142627 -0.380127,0.237582 -0.09526,0.997949 -0.42788,1.140499 -0.332615,0.14255 -1.045106,-0.237553 -1.425236,0.04754 -0.380132,0.285099 -0.284894,1.187602 -0.569991,1.330152 -0.285098,0.142549 -0.617766,-0.09496 -1.045415,0.142627 -0.427646,0.23758 -0.04762,0.665283 -0.190169,1.045414 -0.142546,0.380135 -0.190169,0.475423 -0.190169,0.475423 l -0.474907,0.33228 c -0.475159,0.332613 -0.190118,0.855557 -0.09508,1.425752 0.09503,0.570198 0.47522,0.47514 0.09508,0.902788 -0.380129,0.427646 -0.665359,0.760189 -0.237711,1.758032 0.427646,0.997844 -0.04744,0.855197 0.142627,2.660819 0.01407,0.133703 0.03265,0.267687 0.05478,0.402043 l -0.0072,0.02584 1.567863,6.129342 c 0,0 0.04762,0.570224 0.190169,0.997872 0.142549,0.427646 0.522504,-0.332488 0.617534,-0.712618 0.09503,-0.380132 -0.474907,-2.946129 -0.474907,-3.991488 0,-1.045359 1.425236,-1.472778 1.425236,-1.472778 0,0 -0.04746,-1.900767 0.09508,-3.041158 0.14255,-1.140392 0.807522,-1.283148 1.425236,-1.330668 2.076882,-0.07185 3.358219,0.220141 6.320028,0.220141 2.961807,0 4.243145,-0.291991 6.320027,-0.220141 0.617714,0.04752 1.282686,0.190276 1.425236,1.330668 0.14254,1.140391 0.09509,3.041158 0.09509,3.041158 0,0 1.425236,0.427419 1.425236,1.472778 0,1.045359 -0.569935,3.611356 -0.474907,3.991488 0.09503,0.38013 0.474985,1.140264 0.617534,0.712618 0.142549,-0.427648 0.190169,-0.997872 0.190169,-0.997872 l 1.567863,-6.129342 -0.01499,-0.05271 c 0.0032,-0.01451 0.0085,-0.03582 0.01137,-0.04909 0.237582,-1.092877 0.336413,-2.369186 0.336413,-2.986898 0,-0.617714 0.237525,-1.330566 -0.09508,-2.090829 -0.332619,-0.760261 -0.570353,-0.665052 -0.285254,-1.567863 0.285097,-0.902811 -0.760342,-1.140553 -1.092957,-1.235583 -0.332613,-0.09503 0.237657,-0.237636 0.142627,-1.045414 -0.09503,-0.80778 -0.712826,-0.237272 -1.092956,-0.379822 -0.380129,-0.142549 0.0478,-0.427727 -0.427365,-1.092957 C 30.173134,10.928898 29.080228,11.40398 28.700096,10.50117 28.319963,9.5983587 27.179568,10.310978 26.799437,10.263458 26.419306,10.215938 27.036812,10.07339 26.419098,9.3131286 25.801386,8.5528665 24.945957,9.4081356 24.280727,9.2655866 23.615498,9.1230377 23.758484,8.3152317 23.188288,8.2677147 c -0.01782,-0.00148 -0.03584,-0.00204 -0.05374,-0.00155 z"
    id="hair"
  />
</svg>