<svg
  width="44mm"
  height="72mm"
  viewBox="0 0 44 72"
  xmlns:sodipodi="http://sodipodi.sourceforge.net/DTD/sodipodi-0.dtd"
>
  <path
    style="
      display: inline;
      fill-rule: evenodd;
      stroke: none;
      stroke-width: 0.264583px;
      stroke-linecap: butt;
      stroke-linejoin: miter;
      stroke-opacity: 1;
    "
    id="hair"
    d="m 26.096082,8.2785645 c -1.212227,0.023228 -2.63726,0.7127964 -3.516582,2.1068485 0,0 -0.580458,-0.5245055 -1.980241,-0.6562911 -0.965365,-0.090886 -1.920622,0.050439 -3.323311,1.7270261 -0.722993,0.86417 -0.800027,1.932932 -0.627352,2.949481 -1.538403,0.265682 -2.735852,1.512737 -3.281453,2.121528 -0.755638,0.61395 -2.410252,2.268759 -2.032434,7.558195 0.04894,1.908581 0.09612,2.43551 0.09612,2.43551 0.658493,2.0011 0.695895,2.068302 1.077453,2.885095 0.765126,-0.04527 1.098362,-3.102111 1.274858,-4.686536 0.260048,-2.334472 0.265898,-4.497585 2.620512,-4.406449 2.536544,0.09818 4.099691,0.649572 5.596558,1.033012 1.496865,-0.38344 3.060013,-0.934832 5.596557,-1.033012 2.354614,-0.09114 2.360464,2.071977 2.620512,4.406449 0.176496,1.584425 0.509732,4.641266 1.274858,4.686536 0.381558,-0.816793 0.41896,-0.883995 1.077453,-2.885095 0,0 0.04718,-0.526929 0.09612,-2.43551 0.306185,-4.286583 -0.722258,-6.185679 -1.525488,-7.078638 0.837635,-0.714018 1.550569,-1.67909 1.76165,-2.022099 0.366593,-0.595713 0.412432,-1.099725 -0.13746,-2.3828 -0.549888,-1.283075 -1.420649,-1.512225 -2.566251,-1.558045 -1.145603,-0.04582 -2.52026,1.283126 -2.52026,1.283126 1.506785,-2.692771 0.1899,-4.0822805 -1.581815,-4.0483315 z"
  />
</svg>