<svg
  width="44mm"
  height="72mm"
  viewBox="0 0 44 72"
  version="1.1"
  id="svg1"
  xml:space="preserve"
  xmlns:sodipodi="http://sodipodi.sourceforge.net/DTD/sodipodi-0.dtd"
  xmlns="http://www.w3.org/2000/svg"
  xmlns:svg="http://www.w3.org/2000/svg"
>
  <path
    xmlns="http://www.w3.org/2000/svg"
    style="
      display: inline;
      fill-rule: evenodd;
      stroke: none;
      stroke-width: 0.264583px;
      stroke-linecap: butt;
      stroke-linejoin: miter;
      stroke-opacity: 1;
    "
    id="hair"
    d="m 21.966101,10.530107 c -0.690039,4.9e-5 -1.114211,0.126645 -1.562178,0.867647 -0.81476,1.347726 -1.172658,0.607114 -1.222148,0.318843 -0.04021,-0.234214 0.12609,-1.142049 0.12609,-1.142049 -0.0018,-0.0026 -0.02099,-0.0044 -0.05426,-0.0036 -0.232863,0.0056 -1.166664,0.142208 -1.811776,1.060917 -0.324611,0.462284 -0.159762,1.333769 -0.844392,1.333769 -0.425108,0 -0.796851,-1.487765 -0.796851,-1.487765 -2.186428,1.013237 -2.729154,3.720368 -2.603975,5.526278 0,0 -0.478033,0.212994 -1.115695,0.266134 -0.524231,0.04369 -0.725446,0.592797 -0.98702,2.409672 -0.06114,0.253271 -0.10691,0.572597 -0.132808,0.985986 -0.01666,0.128464 -0.03156,0.238954 -0.04909,0.376721 l 0.03256,-0.0072 c -0.02401,0.759964 0.0059,1.783854 0.106453,3.192053 0.09445,3.683722 0.89762,7.320483 0.89762,7.320483 0,0 0.283211,0.283272 0.519348,0.141594 0.236132,-0.141682 0.04734,-2.833545 0.09457,-4.014226 0.04723,-1.180682 1.41668,-2.314055 1.605586,-3.164148 0.18891,-0.85009 0.04736,-2.833644 0.33073,-3.022554 0.283361,-0.1889 0.660914,-0.802973 2.361096,-0.09457 1.299041,0.541266 3.313361,0.55831 5.140255,0.536401 1.826892,0.02191 3.841215,0.0049 5.140254,-0.536401 1.700182,-0.708405 2.077735,-0.09433 2.361096,0.09457 0.28337,0.18891 0.14182,2.172464 0.33073,3.022554 0.188906,0.850093 1.558356,1.983466 1.605586,3.164148 0.04723,1.180681 -0.141566,3.872544 0.09457,4.014226 0.236137,0.141678 0.519348,-0.141594 0.519348,-0.141594 0,0 0.80316,-3.636761 0.89762,-7.320483 0.100586,-1.408199 0.130458,-2.432089 0.106453,-3.192053 l 0.03307,0.0072 c -0.01773,-0.139293 -0.03329,-0.251071 -0.05013,-0.380855 -6.7e-5,-5.19e-4 6.8e-5,-0.001 0,-0.0016 -0.02595,-0.410746 -0.07142,-0.728148 -0.132291,-0.980302 -0.261574,-1.816875 -0.462272,-2.365986 -0.986504,-2.409672 -0.637661,-0.05314 -1.11621,-0.266134 -1.11621,-0.266134 0.125178,-1.80591 -0.417032,-4.513041 -2.603459,-5.526278 0,0 -0.372259,1.487765 -0.797367,1.487765 -0.684631,0 -0.519265,-0.871485 -0.843877,-1.333769 -0.737269,-1.049953 -1.851964,-1.078408 -1.866036,-1.0573 0,0 0.166301,0.907835 0.126091,1.142049 -0.04949,0.288271 -0.407389,1.028883 -1.222148,-0.318843 -0.448077,-0.741183 -0.940584,-0.867696 -1.630908,-0.867647 z"
  />
</svg>