<svg
  width="44mm"
  height="72mm"
  viewBox="0 0 44 72"
  xmlns:sodipodi="http://sodipodi.sourceforge.net/DTD/sodipodi-0.dtd"
>
  <path
    style="
      display: inline;
      fill-rule: evenodd;
      stroke: none;
      stroke-width: 0.264583px;
      stroke-linecap: butt;
      stroke-linejoin: miter;
      stroke-opacity: 1;
    "
    d="m 22.77122,10.605037 c -0.738587,-0.0041 -1.611308,0.03337 -2.679423,0.120923 -4.882811,0.400231 -9.057702,5.784045 -10.4184856,6.424414 -1.3607833,0.640369 -3.0261719,-0.150378 -3.0261719,-0.150378 0,0 0.3687114,1.145418 1.5812988,2.141471 1.2125876,0.996055 2.4680667,1.191142 2.4680667,1.191142 0,0 -0.411234,1.688731 -0.584461,2.987931 -0.1732265,1.299201 0.387057,3.552755 0.387057,3.552755 l 1.042313,-0.137976 0.299207,3.830774 0.994254,0.435632 c 0,0 -0.21095,-4.433196 -0.03772,-6.143811 0.173227,-1.710614 1.290877,-3.205489 1.290877,-3.205489 0,0 2.921814,0.480509 6.123657,-0.03979 3.201844,-0.520299 5.763323,-2.921785 6.323645,-2.921785 0.560324,0 2.441434,3.801947 3.201872,4.7625 0.760438,0.960553 0.720476,1.280788 0.880566,2.841687 0.1601,1.560899 0.0801,4.763017 0.0801,4.763017 l 1.000456,-0.240296 0.119889,-4.082438 1.400948,0.0801 c 0,0 0.520153,-4.682438 0.560172,-5.923152 0.05757,-3.540931 -2.93942,-8.012267 -5.443078,-9.005652 -2.001153,-0.719164 -2.927225,-1.26701 -5.565035,-1.281576 z M 10.42417,33.134412 c -0.30849,1.284558 -0.5404053,1.919666 -0.8314739,2.71973 -0.4837342,1.329647 -2.8246338,1.006657 -2.8246338,1.006657 0,0 0.2788044,0.846542 1.0066569,1.454692 0.8212735,0.686205 2.0138306,0.614949 2.0138306,0.614949 0,0 -1.1347062,0.527877 -1.5663127,1.622123 -0.2465338,0.625036 -1.8825961,1.03667 -1.9016927,1.035079 0.9913588,1.257722 1.8727602,1.609909 3.5517212,1.034563 -1.1360742,1.264398 -0.2368535,2.949375 0.6712764,3.384289 0.718277,0.884255 1.325599,1.455612 1.844849,1.811776 0.665217,-0.352076 1.396532,-0.738954 1.663981,-0.872815 0.267449,-0.133861 1.064079,-0.555653 1.178223,-0.615983 0.164168,-0.71491 0.338673,-1.594038 0.370003,-2.220536 0.0246,-0.491929 -0.03997,-1.13944 -0.125574,-1.741496 -0.662419,-0.504369 -1.250311,-1.009224 -1.4118,-1.30173 -0.981467,-1.777743 -1.396056,-6.953426 -1.444356,-6.981486 0,0 -1.374181,0.444327 -2.194698,-0.949812 z m 23.148458,0 c -0.820517,1.394139 -2.194698,0.949812 -2.194698,0.949812 -0.0483,0.02806 -0.46289,5.203743 -1.444357,6.981486 -0.161488,0.292506 -0.74938,0.797361 -1.4118,1.30173 -0.0856,0.602056 -0.150173,1.249567 -0.125573,1.741496 0.03133,0.626498 0.205835,1.505626 0.370003,2.220536 0.114144,0.06033 0.91129,0.482122 1.178739,0.615983 0.26745,0.133861 0.998247,0.520739 1.663465,0.872815 0.51925,-0.356164 1.126572,-0.927521 1.844848,-1.811776 0.90813,-0.434914 1.807352,-2.119891 0.671277,-3.384289 1.678961,0.575346 2.560362,0.223159 3.551721,-1.034563 -0.0191,0.0016 -1.655159,-0.410043 -1.901692,-1.035079 -0.431607,-1.094246 -1.566313,-1.622123 -1.566313,-1.622123 0,0 1.192557,0.07126 2.01383,-0.614949 0.727853,-0.60815 1.006657,-1.454692 1.006657,-1.454692 0,0 -2.340899,0.32299 -2.824633,-1.006657 -0.291069,-0.800064 -0.522985,-1.435172 -0.831474,-2.71973 z"
    id="hair"
    sodipodi:nodetypes="ssscscsccccscssscccccccscscscsccccscscsccccscscsccccscscsc"
  />
</svg>