<svg
  width="44mm"
  height="72mm"
  viewBox="0 0 44 72"
  xmlns:sodipodi="http://sodipodi.sourceforge.net/DTD/sodipodi-0.dtd"
>
  <path
    style="
      display: inline;
      fill-rule: evenodd;
      stroke: none;
      stroke-width: 0.264583px;
      stroke-linecap: butt;
      stroke-linejoin: miter;
      stroke-opacity: 1;
    "
    d="m 22.000208,12.753743 c -3.311385,0.214229 -5.731143,0.645279 -8.022767,2.567286 -2.083146,1.747154 -1.881538,3.427282 -1.881538,4.905643 v 6.114873 c 0.458675,-0.0071 0.881279,0.237077 0.964798,-0.494544 0.121062,-1.060477 0.316486,-2.80675 0.516765,-4.358907 0.268794,-2.083147 0.735607,-3.680281 1.676383,-4.083472 0.940776,-0.403188 3.427477,0.671794 6.746358,0.671794 3.318882,0 5.805583,-1.074982 6.746359,-0.671794 0.940776,0.403191 1.407589,2.000325 1.676383,4.083472 0.200279,1.552157 0.395703,3.29843 0.516765,4.358907 0.08352,0.731621 0.506123,0.487444 0.964799,0.494544 v -6.114873 c 0,-1.478361 0.201607,-3.158489 -1.881539,-4.905643 -2.291624,-1.922007 -4.711382,-2.353057 -8.022766,-2.567286 z"
    sodipodi:nodetypes="csscssscssscssc"
    id="hair"
  />
</svg>