<svg
  width="44mm"
  height="72mm"
  viewBox="0 0 44 72"
  xmlns:sodipodi="http://sodipodi.sourceforge.net/DTD/sodipodi-0.dtd"
>
  <path
    style="
      display: inline;
      fill-rule: evenodd;
      stroke: none;
      stroke-width: 0.264583px;
      stroke-linecap: butt;
      stroke-linejoin: miter;
      stroke-opacity: 1;
    "
    id="hair"
    d="m 22.302515,10.630359 c -4.195926,-0.0028 -7.049699,4.099491 -7.049699,4.099491 0,0 -1.805758,-0.190039 -3.088701,0.997872 -1.282943,1.18791 -1.995743,3.801529 -1.995743,6.082316 0,1.337499 0.647354,3.573223 1.20251,5.230172 0.742798,2.216998 1.316199,1.850016 1.316199,1.850016 l 0.14211,-5.036902 c 0,0 0.903229,-2.233535 1.711007,-3.326412 0.807779,-1.092876 3.088183,-3.040641 3.088183,-3.040641 0,0 1.425653,1.94792 4.086573,3.325895 2.660919,1.377977 5.559561,2.328102 6.890018,2.470651 1.330459,0.142548 2.375566,0.237711 2.375566,0.237711 v 5.654435 c 0,0 1.04544,-0.38011 2.043286,-3.753776 0.997843,-3.373664 2.328615,-6.557254 -0.379822,-10.406083 -2.708436,-3.848829 -5.51215,-4.086211 -9.931176,-4.371309 -0.138095,-0.0089 -0.274959,-0.01335 -0.410311,-0.01344 z m -9.749276,19.304248 c -0.251803,0.0021 -0.485969,0.276735 -0.427881,0.904337 0.102721,1.106063 0.248117,2.223176 0.394808,3.270085 0.147926,1.055722 0.29675,2.040127 0.40411,2.85874 l 0.05374,0.31471 c 0.232269,1.540353 0.584813,2.876859 1.085205,3.783231 0.37099,0.671976 2.991852,2.463894 3.597713,2.799313 1.191781,0.659781 2.376735,1.403915 4.338237,1.353922 h 0.001 10e-4 c 1.961502,0.04999 3.146456,-0.694141 4.338237,-1.353922 0.605861,-0.335419 3.226723,-2.127337 3.597713,-2.799313 0.500392,-0.906372 0.852936,-2.242878 1.085205,-3.783231 l 0.05374,-0.31471 c 0.10736,-0.818613 0.256184,-1.803018 0.40411,-2.85874 0.146691,-1.046909 0.292087,-2.164022 0.394808,-3.270085 0.103268,-1.115737 -0.717616,-1.11643 -0.917773,-0.452168 -0.919885,3.052797 -1.045186,4.109752 -1.567863,4.917529 -0.522681,0.807777 -1.829454,1.711139 -2.019515,1.948718 -0.190066,0.237586 -0.380469,0.142491 -0.618051,-0.09508 -0.237578,-0.237583 -1.47273,-1.758087 -2.328023,-1.853117 -0.855292,-0.09503 -1.995873,-0.332693 -2.233455,-0.142627 -0.04813,0.0385 -0.125361,0.09483 -0.190169,0.144177 -0.06481,-0.04935 -0.142041,-0.105674 -0.19017,-0.144177 -0.237582,-0.190066 -1.378163,0.0476 -2.233455,0.142627 -0.855293,0.09503 -2.090445,1.615534 -2.328023,1.853117 -0.237582,0.237575 -0.427985,0.33267 -0.618051,0.09508 -0.190061,-0.237579 -1.496834,-1.140941 -2.019515,-1.948718 -0.522677,-0.807777 -0.647979,-1.864732 -1.567862,-4.917529 -0.08757,-0.290615 -0.294046,-0.453784 -0.489893,-0.452169 z m 9.446969,6.605282 c 0.09478,0.06486 0.20377,0.129049 0.332796,0.190169 0.902809,0.427645 1.568151,0.285104 2.090828,0.950329 0.522682,0.665231 0.712618,0.997872 0.712618,0.997872 0,0 -0.427704,0.42801 -1.045414,0.665593 -0.61771,0.237576 -0.76016,0.237195 -0.76016,0.237195 0,0 -0.548445,-1.046893 -1.330668,-1.088823 -0.782225,0.04193 -1.330669,1.088823 -1.330669,1.088823 0,0 -0.14245,3.81e-4 -0.76016,-0.237195 -0.61771,-0.237583 -1.045414,-0.665593 -1.045414,-0.665593 0,0 0.189936,-0.332641 0.712618,-0.997872 0.522677,-0.665225 1.188019,-0.522684 2.090828,-0.950329 0.129026,-0.06112 0.238016,-0.12531 0.332797,-0.190169 z"
  />
</svg>