<svg
  width="44mm"
  height="72mm"
  viewBox="0 0 44 72"
  xmlns:sodipodi="http://sodipodi.sourceforge.net/DTD/sodipodi-0.dtd"
>
  <path
    style="
      display: inline;
      fill-rule: evenodd;
      stroke: none;
      stroke-width: 0.264583px;
      stroke-linecap: butt;
      stroke-linejoin: miter;
      stroke-opacity: 1;
    "
    id="hair"
    d="m 15.115873,10.507369 c -0.01427,3.73e-4 -0.0217,10e-4 -0.0217,10e-4 0.01877,0.360976 0.260736,0.498467 -0.06253,1.201477 0,0 -1.086306,-0.591943 -1.900143,-0.456303 -0.813837,0.135639 -2.822937,1.089505 -2.619478,4.683951 0.0898,1.586493 0.389162,2.384571 0.998389,2.9099 -0.470279,0.482209 -0.741601,1.429265 -0.459404,5.380034 0.09445,3.683722 0.89762,7.320483 0.89762,7.320483 0,0 0.283211,0.283272 0.519348,0.141594 0.236132,-0.141682 0.04734,-2.833545 0.09457,-4.014226 0.04723,-1.180682 1.41668,-2.314055 1.605586,-3.164148 0.18891,-0.85009 0.04736,-2.833644 0.33073,-3.022554 0.283361,-0.1889 0.660914,-0.802973 2.361096,-0.09457 1.299041,0.541266 3.313361,0.55831 5.140255,0.536401 1.826892,0.02191 3.841215,0.0049 5.140254,-0.536401 1.700182,-0.708405 2.077735,-0.09433 2.361096,0.09457 0.28337,0.18891 0.14182,2.172464 0.33073,3.022554 0.188906,0.850093 1.558356,1.983466 1.605586,3.164148 0.04723,1.180681 -0.141566,3.872544 0.09457,4.014226 0.236137,0.141678 0.519348,-0.141594 0.519348,-0.141594 0,0 0.80316,-3.636761 0.89762,-7.320483 0.367264,-5.141705 -0.203445,-5.197417 -0.929659,-5.760372 0.235845,-0.246372 0.424308,-0.541257 0.351916,-0.835091 -0.0511,-0.20741 -0.734363,-2.489996 -2.135786,-3.732072 -1.089101,-0.965265 -3.340201,-2.007428 -5.780009,-2.054138 -2.374906,-0.04547 -5.967648,0.596653 -6.209441,0.429947 -0.434357,-0.299471 -0.716235,-1.003039 -0.716235,-1.003039 l -0.621151,0.143144 c 0,0 -0.09528,1.65e-4 -0.716235,-0.477491 -0.543333,-0.417953 -0.977021,-0.433594 -1.076937,-0.430981 z"
  />
</svg>