<svg
  width="44mm"
  height="72mm"
  viewBox="0 0 44 72"
  xmlns:sodipodi="http://sodipodi.sourceforge.net/DTD/sodipodi-0.dtd"
>
  <g
    id="HairTurban-Group"
    style="display: inline"
    transform="translate(-3.0323676,-1.5899584)"
  >
    <path
      style="
        display: inline;
        fill-opacity: 1;
        fill-rule: evenodd;
        stroke: none;
        stroke-width: 0.264583px;
        stroke-linecap: butt;
        stroke-linejoin: miter;
        stroke-opacity: 1;
      "
      d="m 25.588097,19.317042 c -1.040921,1.249103 -1.948835,2.194512 -2.828768,3.138309 l 5.902999,-0.12454 C 26.829023,20.06846 25.588097,19.317042 25.588097,19.317042 Z m 8.135421,11.57242 c -0.936604,3.257641 -2.246252,6.118778 -3.161048,5.89008 -1.058328,-0.264583 -2.248963,-0.859897 -3.373437,-1.058334 -0.837122,-0.147723 -1.745807,0.254041 -2.156458,0.469222 -0.410647,-0.215181 -1.319339,-0.616945 -2.156457,-0.469222 -1.124474,0.198437 -2.31511,0.793751 -3.373438,1.058334 -0.851502,0.212875 -2.242558,-2.2513 -3.159047,-5.220353 -0.718347,1.707534 -1.060047,3.367091 -1.139466,5.551082 -0.132288,3.638008 0.747335,12.27434 10.053201,12.7 8.924248,0.408202 9.855729,-9.392715 9.921875,-11.310938 0.051,-1.478994 0.100141,-3.824659 -1.455725,-7.609871 z m -8.690943,6.362402 c 0.02549,0.02849 0.04999,0.05815 0.07286,0.08992 0.410566,0.570266 2.780263,1.488281 3.538802,1.620573 0.350908,0.0612 -0.198441,0.496094 -0.661458,1.025261 -0.46302,0.529161 -1.389064,0.496093 -1.653646,0.429947 -0.264583,-0.06615 -0.859901,-0.793749 -1.190625,-0.859895 -0.03247,-0.0065 -0.06919,-0.0094 -0.105937,-0.0124 -0.03675,0.003 -0.07347,0.0059 -0.105937,0.0124 -0.330724,0.06615 -0.926042,0.793745 -1.190625,0.859895 -0.264578,0.06615 -1.190629,0.09922 -1.653645,-0.429947 -0.463021,-0.529167 -1.012363,-0.964061 -0.661459,-1.025261 0.758543,-0.132292 3.128236,-1.050307 3.538802,-1.620573 0.02287,-0.03177 0.04738,-0.06143 0.07286,-0.08992 z"
      sodipodi:nodetypes="cccccsscsscssscccssssccsssscc"
      id="hair"
    />
    <path
      style="
        display: inline;
        fill-rule: evenodd;
        stroke: none;
        stroke-width: 0.1;
        stroke-linecap: butt;
        stroke-linejoin: miter;
        stroke-opacity: 1;
      "
      id="accessory"
      d="m 26.577184,9.6054898 c -2.875007,0.048661 -5.657761,1.1160522 -8.086025,2.6050432 -3.06455,1.941673 -5.905499,4.544047 -7.264451,7.982796 -1.141363,2.847312 -0.907195,6.024134 -0.247024,8.957291 0.507241,2.052206 1.200135,4.130902 2.520977,5.812713 0.344662,0.399383 0.758163,0.808793 1.296446,0.911823 0.481235,0.218271 0.613883,-0.386638 0.6049,-0.810238 0.394013,-2.359444 1.397354,-4.584291 2.752284,-6.545799 2.175971,-3.214432 4.782535,-6.105327 7.380092,-8.979342 2.076338,1.572001 3.638056,3.711417 5.044932,5.876566 1.897051,3.049778 3.597507,6.325724 4.22328,9.900333 -0.101238,0.972651 1.089566,0.34182 1.465698,-0.03913 1.253177,-1.227131 1.887044,-2.912857 2.518403,-4.512886 0.554468,-1.535337 1.16713,-3.077323 1.286139,-4.721973 0.358872,-3.361037 -0.407231,-6.952932 -2.60797,-9.587894 -2.124826,-2.64615 -4.817605,-4.937172 -7.963544,-6.222629 -0.929709,-0.3734985 -1.91518,-0.6409491 -2.924137,-0.6266742 z"
      sodipodi:nodetypes="sssscscscsscscscsscccccccccccccscccccccsccsssscssssssssssssccsscccccccssccccsccsscscscsccccccccccccccccccsscssccccccsssssccscccssscscss"
    />
    <path
      style="
        color: #000000;
        fill: #000000;
        fill-opacity: 0.4;
        fill-rule: evenodd;
        -inkscape-stroke: none;
      "
      id="turbanTint"
      d="M 27.204019,9.6333951 C 20.388424,14.259484 15.776347,17.486791 10.468606,25.752308 c 1.44e-4,0.0022 3.73e-4,0.0045 5.17e-4,0.0067 0.0082,0.127305 0.01866,0.254549 0.02946,0.381889 0.0031,0.03619 0.006,0.07233 0.0093,0.10852 0.01112,0.122949 0.02327,0.245673 0.03669,0.368453 0.004,0.03689 0.0082,0.07373 0.0124,0.110588 1.59e-4,0.0014 3.57e-4,0.0028 5.17e-4,0.0041 2.39e-4,0.0021 7.93e-4,0.0041 0.001,0.0062 0.02199,0.190525 0.04725,0.380575 0.07441,0.569991 0.0061,0.04274 0.0122,0.08549 0.0186,0.128158 0.02942,0.196483 0.06079,0.392292 0.0956,0.587044 0.02147,0.120088 0.04431,0.239446 0.0677,0.358634 0.0088,0.04465 0.01733,0.08933 0.02636,0.133842 0.0071,0.03515 0.01494,0.06984 0.02222,0.104903 0.01815,0.08751 0.03611,0.175078 0.05529,0.262 7.21e-4,0.0033 0.0013,0.0066 0.0021,0.0098 0.0047,0.02072 0.0098,0.04129 0.01447,0.06201 0.02927,0.130607 0.05904,0.260646 0.09043,0.38964 0.0014,0.0059 0.0027,0.01171 0.0041,0.01757 3.32e-4,0.0014 6.9e-4,0.0027 0.001,0.0041 0.0055,0.0224 0.01152,0.04431 0.01705,0.06666 0.02935,0.118474 0.0589,0.236542 0.08992,0.353467 0.03687,0.138984 0.07501,0.276954 0.114205,0.413411 0.03376,0.117539 0.06852,0.233304 0.10387,0.348816 0.002,0.0066 0.0042,0.01307 0.0062,0.01964 0.0081,0.02638 0.01611,0.05283 0.02429,0.07906 0.03217,0.10328 0.06481,0.20549 0.09818,0.306958 0.01784,0.05429 0.03608,0.108008 0.05426,0.161748 0.03009,0.08893 0.05999,0.177736 0.09095,0.2651 0.01593,0.04499 0.03237,0.08903 0.04857,0.133325 0.0053,0.01439 0.01023,0.02898 0.0155,0.04341 0.0027,0.0074 0.0056,0.01435 0.0083,0.0217 0.053,0.144364 0.107086,0.286345 0.162264,0.425814 5.34e-4,0.0014 10e-4,0.0028 0.0015,0.0041 0.0022,0.0057 0.0045,0.01136 0.0067,0.01705 0.02092,0.05305 0.04177,0.106532 0.06305,0.158647 0.03193,0.07818 0.06459,0.154057 0.09715,0.230477 0.02376,0.05578 0.04776,0.111588 0.07183,0.166398 0.03113,0.07084 0.06242,0.140652 0.09405,0.209806 0.02977,0.06513 0.05972,0.129172 0.08992,0.192753 0.02977,0.06267 0.05925,0.125436 0.0894,0.186552 0.03224,0.06538 0.06502,0.128693 0.09767,0.192237 0.02807,0.05462 0.05588,0.110601 0.08423,0.163814 0.01777,0.03335 0.03588,0.06437 0.05374,0.09715 0.0378,0.06938 0.07546,0.139405 0.113688,0.206189 0.0012,0.002 0.0024,0.0042 0.0036,0.0062 0.03068,0.05349 0.06209,0.104299 0.09302,0.156063 0.03458,0.0579 0.06902,0.115366 0.10387,0.171048 0.03125,0.04991 0.06261,0.09817 0.09405,0.146245 0.03128,0.04785 0.0626,0.09458 0.09405,0.14056 0.03341,0.04883 0.06668,0.09751 0.100252,0.144177 0.04261,0.05924 0.08534,0.115394 0.128158,0.171049 0.02056,0.02671 0.04091,0.05527 0.06149,0.08113 0.06202,0.07791 0.123787,0.151689 0.186035,0.221692 0.0012,0.0013 0.0024,0.0028 0.0036,0.0041 0.05518,0.0619 0.110647,0.120793 0.165881,0.176217 l 5.17e-4,5.16e-4 5.17e-4,5.17e-4 c 0.05764,0.05779 0.115555,0.112311 0.173116,0.162781 5.31e-4,4.66e-4 10e-4,0.0011 0.0015,0.0015 1.78e-4,1.81e-4 3.17e-4,3.42e-4 5.17e-4,5.17e-4 0.0015,0.0013 0.0031,0.0028 0.0047,0.0041 0.05352,0.04666 0.106866,0.08911 0.160197,0.129191 0.0062,0.0047 0.01238,0.0094 0.0186,0.01395 0.0527,0.03886 0.105218,0.07478 0.157614,0.10697 0.0227,0.01394 0.04559,0.02713 0.06821,0.03979 0.0084,0.0047 0.01694,0.01 0.02532,0.01447 0.01898,0.01023 0.03792,0.01912 0.05684,0.02842 0.01137,0.0056 0.02276,0.01128 0.03411,0.01654 0.0088,0.0041 0.01759,0.0075 0.02636,0.01137 0.01001,0.0044 0.01996,0.0093 0.02997,0.01344 0.0017,7.18e-4 0.0034,0.0014 0.0052,0.0021 0.01223,0.005 0.02451,0.0099 0.03669,0.01447 0.01727,0.0066 0.03447,0.01286 0.05168,0.0186 0.0145,0.0048 0.02895,0.0092 0.04341,0.01344 0.01781,0.0052 0.0355,0.01063 0.05323,0.01499 0.0012,2.96e-4 0.0024,7.43e-4 0.0036,0.001 0.02803,0.0068 0.05588,0.0125 0.08372,0.01705 0.01303,0.02134 0.02726,0.03883 0.04237,0.05168 0.0074,0.0063 0.01531,0.01163 0.02325,0.0155 0.0082,0.004 0.01652,0.0066 0.02532,0.0078 0.01336,0.0018 0.02762,-0.0012 0.04237,-0.0067 0.0041,-0.0015 0.0082,-0.002 0.0124,-0.0041 3.07e-4,-1.57e-4 7.25e-4,-3.57e-4 10e-4,-5.17e-4 0.0095,-0.0049 0.01941,-0.0115 0.02946,-0.01964 3.41e-4,-2.78e-4 6.91e-4,-7.52e-4 10e-4,-0.001 0.01013,-0.0083 0.02028,-0.01813 0.03101,-0.02997 3.64e-4,-4.01e-4 6.69e-4,-6.28e-4 0.001,-10e-4 0.01933,-9.53e-4 0.03867,-0.0031 0.05788,-0.0052 0.0034,-4.31e-4 0.0069,-6.16e-4 0.01034,-10e-4 0.0026,-3.17e-4 0.0052,-1.79e-4 0.0078,-5.17e-4 0.02029,-0.0026 0.04033,-0.0064 0.06046,-0.01033 5.31e-4,-1.06e-4 0.001,-4.09e-4 0.0015,-5.17e-4 0.0095,-0.0019 0.01896,-0.004 0.02842,-0.0062 0.01139,-0.0027 0.02273,-0.0058 0.03411,-0.0088 0.0056,-0.0015 0.01142,-0.0025 0.01705,-0.0041 3.64e-4,-1.06e-4 6.69e-4,-4.09e-4 0.001,-5.16e-4 0.02687,-0.0079 0.05358,-0.0163 0.0801,-0.02687 0.01507,-0.145378 0.03273,-0.288194 0.05116,-0.429431 1.55e-4,-0.0012 3.62e-4,-0.0024 5.17e-4,-0.0036 0.0071,-0.05438 0.01411,-0.108958 0.0217,-0.16278 1.94e-4,-0.0014 3.23e-4,-0.0027 5.17e-4,-0.0041 0.01517,-0.107281 0.03097,-0.213569 0.04806,-0.318844 5.62e-4,-0.0035 0.001,-0.0069 0.0015,-0.01033 0.01316,-0.08077 0.02707,-0.160566 0.04134,-0.240296 3.43e-4,-0.0019 6.8e-4,-0.0038 0.001,-0.0057 0.0023,-0.01286 0.0044,-0.02592 0.0067,-0.03876 8.87e-4,-0.0037 0.0022,-0.0082 0.0031,-0.01189 0.04155,-0.171489 0.08576,-0.357361 0.136426,-0.558622 2.93e-4,-0.0012 7.4e-4,-0.0025 0.001,-0.0036 0.01017,-0.04036 0.0218,-0.08389 0.03256,-0.125573 0.0171,-0.06623 0.03337,-0.1313 0.05219,-0.201022 0.02959,-0.10964 0.06183,-0.223788 0.09664,-0.342614 7.18e-4,-0.0025 0.0013,-0.0053 0.0021,-0.0078 0.0227,-0.07735 0.0491,-0.160372 0.07441,-0.241846 0.01426,-0.04587 0.0267,-0.0892 0.04186,-0.136425 0.04174,-0.130026 0.08701,-0.265427 0.136426,-0.406177 5.17e-4,-0.0015 10e-4,-0.0032 0.0016,-0.0047 0.100021,-0.284623 0.216906,-0.591786 0.355534,-0.924491 0.04679,-0.1123 0.09617,-0.225858 0.148311,-0.340548 0.0078,-0.01714 0.0169,-0.03448 0.02481,-0.05168 0.0466,-0.101305 0.09464,-0.2034 0.145211,-0.306442 0.05693,-0.116002 0.116528,-0.232805 0.178283,-0.350883 0.01598,-0.03055 0.0328,-0.06182 0.04909,-0.0925 0.04644,-0.08747 0.09317,-0.175035 0.14211,-0.26355 0.02436,-0.04406 0.05049,-0.0885 0.07545,-0.132809 0.04332,-0.07691 0.08616,-0.153881 0.131258,-0.23151 0.02924,-0.05033 0.05995,-0.101306 0.08992,-0.151929 0.04383,-0.07405 0.08747,-0.148073 0.132808,-0.222725 0.0277,-0.04561 0.0565,-0.09163 0.08475,-0.13746 0.04933,-0.08 0.09838,-0.160179 0.149345,-0.240812 0.02994,-0.04738 0.06098,-0.09504 0.09147,-0.142627 0.0508,-0.07928 0.10223,-0.158396 0.154512,-0.238228 0.03536,-0.05401 0.07147,-0.108536 0.107487,-0.162781 0.04698,-0.07073 0.09405,-0.141272 0.142111,-0.21239 0.04189,-0.06199 0.08444,-0.124287 0.127124,-0.186552 0.04498,-0.06561 0.09007,-0.130992 0.135909,-0.196887 0.04649,-0.06684 0.09374,-0.133904 0.141076,-0.201021 0.04497,-0.06375 0.08968,-0.12774 0.135393,-0.19172 0.04499,-0.06298 0.09074,-0.12594 0.136425,-0.189136 0.04287,-0.05929 0.08572,-0.118818 0.129191,-0.178283 0.169007,-0.231263 0.342641,-0.4642 0.519865,-0.697632 0.01688,-0.02222 0.0337,-0.04443 0.05064,-0.06666 0.129006,-0.169355 0.262592,-0.339409 0.395325,-0.509529 0.0846,-0.108387 0.168289,-0.216443 0.254248,-0.325045 0.139382,-0.176159 0.281176,-0.352175 0.423747,-0.52865 0.06848,-0.08474 0.136021,-0.169489 0.205155,-0.254248 0.1544,-0.189362 0.310983,-0.378228 0.468189,-0.567407 0.06384,-0.0768 0.126965,-0.153749 0.191202,-0.230477 0.158445,-0.189323 0.318126,-0.37778 0.478524,-0.566374 0.06609,-0.07768 0.132091,-0.155035 0.198438,-0.232544 0.163221,-0.190749 0.326592,-0.380557 0.490926,-0.569991 0.0576,-0.06637 0.114918,-0.132775 0.172599,-0.198954 0.884552,-1.015189 1.770725,-1.998881 2.622062,-2.934705 0.1148,-0.126193 0.234611,-0.259854 0.347783,-0.383956 0.14577,0.158126 0.304217,0.308886 0.470772,0.450102 0.754911,0.640062 1.6877,1.135843 2.33009,1.468644 2.291383,1.187084 5.313523,3.530693 7.259506,5.899898 0.911698,1.10998 1.332385,4.862219 0.430464,4.398698 -0.662249,-0.441495 -1.408331,-0.731784 -4.357873,-3.51348 -4.7e-4,-4.43e-4 -0.0011,-6.25e-4 -0.0016,-10e-4 0.116408,0.214329 0.228242,0.424646 0.335897,0.632003 0.0028,0.0054 0.006,0.01112 0.0088,0.01654 7.68e-4,0.0015 0.0013,0.0032 0.0021,0.0047 0.09466,0.182621 0.184737,0.361177 0.272852,0.538469 0.0137,0.02756 0.02883,0.05629 0.04237,0.08372 0.0046,0.0091 0.009,0.01839 0.01344,0.02739 0.04748,0.0964 0.09136,0.189912 0.136943,0.284737 0.03407,0.07129 0.06958,0.143961 0.102836,0.214457 0.01685,0.03571 0.03458,0.072 0.05116,0.107487 3.22e-4,6.91e-4 7.11e-4,0.0014 10e-4,0.0021 0.03129,0.06698 0.05957,0.13174 0.08992,0.197921 0.03785,0.08294 0.07699,0.166608 0.113688,0.248564 0.02409,0.05381 0.04888,0.107956 0.07235,0.16123 0.0017,0.0039 0.0035,0.008 0.0052,0.01189 0.04087,0.09287 0.07881,0.18367 0.117822,0.274919 0.0183,0.04304 0.0378,0.08699 0.05581,0.129707 0.02095,0.04968 0.04213,0.09963 0.06253,0.148828 0.05929,0.142984 0.116237,0.28378 0.171049,0.422714 0.0016,0.004 0.0031,0.0084 0.0047,0.0124 0.01431,0.03632 0.02837,0.07248 0.04237,0.108521 0.0013,0.0033 0.0029,0.0065 0.0041,0.0098 0.0461,0.11878 0.08988,0.235578 0.132808,0.3514 0.0016,0.0043 0.0036,0.0086 0.0052,0.01292 0.02369,0.06404 0.04702,0.127545 0.06976,0.190686 5.49e-4,0.0015 10e-4,0.0031 0.0016,0.0047 0.01221,0.03393 0.02319,0.0671 0.03514,0.100769 0.029,0.08181 0.05839,0.163832 0.08578,0.243913 0.01513,0.04423 0.02978,0.08799 0.04444,0.131775 1.21e-4,3.6e-4 3.96e-4,6.73e-4 5.17e-4,10e-4 0.04125,0.123158 0.08117,0.244721 0.118856,0.364319 1.12e-4,3.57e-4 4.04e-4,6.77e-4 5.16e-4,10e-4 0.0108,0.03429 0.02101,0.06832 0.03152,0.10232 0.002,0.0065 0.0042,0.01309 0.0062,0.01964 0.02074,0.06731 0.03978,0.133295 0.05943,0.199471 0.01578,0.05321 0.0325,0.107427 0.04754,0.15968 0.0091,0.03171 0.01799,0.06261 0.02687,0.09405 0.0023,0.0081 0.0044,0.01621 0.0067,0.02429 0.02942,0.104718 0.05801,0.208241 0.08475,0.310059 4.2e-5,1.58e-4 -4.1e-5,3.58e-4 0,5.16e-4 0.01655,0.06303 0.03146,0.124618 0.04703,0.186552 0.02257,0.08982 0.04559,0.18015 0.06615,0.267684 1.21e-4,5.17e-4 3.95e-4,10e-4 5.17e-4,0.0016 0.0081,0.03454 0.01493,0.06813 0.02274,0.102319 0.0013,0.0057 0.0028,0.01133 0.0041,0.01705 0.02316,0.101922 0.0461,0.203489 0.06666,0.302307 9.83e-4,0.0047 0.0021,0.0098 0.0031,0.01447 0.01319,0.06432 0.02493,0.127551 0.03721,0.190686 0.01035,0.05322 0.0219,0.108409 0.03152,0.160713 6.18e-4,0.0034 9.35e-4,0.007 0.0015,0.01034 1.24e-4,6.94e-4 3.82e-4,0.0014 5.17e-4,0.0021 0.01265,0.06901 0.02371,0.135664 0.03514,0.203088 0.0027,0.01605 0.0056,0.03249 0.0083,0.04858 0.0086,0.05151 0.01795,0.104446 0.02584,0.155029 1.57e-4,10e-4 3.59e-4,0.0021 5.16e-4,0.0031 0.0192,0.12336 0.03627,0.244293 0.05168,0.362252 0.0047,-0.0015 0.01837,-7.5e-4 0.03669,0.0016 2.234389,0.116777 3.848296,-4.922653 4.730977,-7.553027 0.02421,-0.07263 0.05243,-0.166948 0.08217,-0.277503 0.0066,-0.02475 0.01385,-0.05768 0.02067,-0.08423 0.01128,-0.04377 0.02315,-0.09616 0.03462,-0.143144 0.01286,-0.05371 0.02512,-0.09933 0.03824,-0.158647 1.42e-4,-6.41e-4 3.75e-4,-0.0014 5.17e-4,-0.0021 0.02391,-0.108143 0.0475,-0.225729 0.07131,-0.3514 0.01061,-0.05584 0.02111,-0.109854 0.03152,-0.168982 0.01512,-0.0858 0.03002,-0.174745 0.04444,-0.267167 0.001,-0.0065 0.0021,-0.01311 0.0031,-0.01964 0.0013,-0.0086 0.0023,-0.01817 0.0036,-0.02687 0.01302,-0.08529 0.0256,-0.173076 0.03772,-0.263549 8.04e-4,-0.006 0.0018,-0.01206 0.0026,-0.01809 v -5.17e-4 c -0.01042,-0.03355 -0.02103,-0.06754 -0.03152,-0.100769 -0.641831,-2.032998 -1.877854,-2.98166 -2.544548,-3.621484 -1.362917,-1.30799 -5.485688,-4.496684 -9.81077,-5.543848 0.574664,-0.636816 1.05316,-1.272716 1.447457,-1.900142 0.867451,-1.380339 1.327683,-2.720439 1.509985,-3.944462 0.03232,-0.217036 0.05667,-0.428636 0.0739,-0.635104 4.83e-4,-0.0058 0.0011,-0.01179 0.0015,-0.01757 0,0 -0.100045,-0.04024 -0.19482,-0.07751 -0.0016,-7.61e-4 -0.0031,-0.0013 -0.0047,-0.0021 -0.134341,-0.05273 -0.277812,-0.106265 -0.289904,-0.09612 -0.01554,0.243147 -0.04151,0.494897 -0.0801,0.75396 -0.253679,1.703265 -1.316688,3.506912 -3.119189,5.488037 -3.360225,3.693221 -8.260215,9.073871 -10.53114,13.350606 -0.53894,0.750775 -1.39995,1.883945 -1.898593,2.187463 -0.760671,0.463021 -1.190629,-0.694537 -1.389062,-2.414323 -0.133207,-1.154457 0.492814,-2.708234 0.919324,-3.607015 0.903912,-1.431046 2.255487,-2.680373 4.188375,-4.09639 1.162982,-0.988524 1.273151,-1.263858 -0.294556,-0.40256 -2.039023,1.493779 -3.483652,2.830125 -4.437455,4.42402 -0.04509,0.07536 -0.08789,0.151923 -0.130742,0.228409 -0.648676,0.881317 -1.462996,2.549039 -1.46761,2.558501 -0.0065,-0.01739 -0.131928,-0.299693 -0.265617,-1.55236 -0.09944,-0.931709 0.0798,-1.980656 1.509468,-4.258655 2.948082,-4.697419 8.99655,-9.517538 14.747421,-13.4839317 -0.03711,-0.0078 -0.07504,-0.016318 -0.111105,-0.023254 -0.09492,-0.018255 -0.192258,-0.034324 -0.291455,-0.048059 -0.0024,-3.281e-4 -0.0049,-7.114e-4 -0.0072,-0.00103 -0.0226,-0.00309 -0.04643,-0.00489 -0.06925,-0.00775 -0.007,-8.758e-4 -0.01419,-0.00172 -0.02119,-0.00258 -0.07319,-0.00894 -0.146392,-0.017708 -0.221692,-0.024288 z m 1.875338,5.7040449 c -0.0067,0.01066 -0.01288,0.02136 -0.01964,0.03204 -0.03816,0.06033 -0.07706,0.120911 -0.116788,0.181384 l 1.543058,0.09767 c 1.705223,0.107383 3.343317,0.839013 3.803902,0.997355 1.890767,0.650014 1.481393,0.229962 -0.22841,-0.481108 -1.219674,-0.507234 -2.435457,-0.939254 -3.544486,-1.015958 l -1.273824,-0.0801 c -0.022,0.03712 -0.04359,0.07444 -0.06615,0.111621 -0.03184,0.05243 -0.06469,0.104632 -0.09767,0.157097 z m -1.832964,2.323889 c 4.257598,0.938342 8.533785,4.21711 9.851079,5.481319 2.603613,2.429068 1.707966,5.108241 1.05885,6.692615 -0.05954,-0.187572 -0.204239,-1.415137 -1.611788,-3.241146 -1.954808,-2.535974 -5.291579,-4.750137 -7.632609,-5.962944 -0.636653,-0.329822 -1.54014,-0.817716 -2.236556,-1.408182 -0.167369,-0.141906 -0.320692,-0.28769 -0.455786,-0.437183 0.357288,-0.391168 0.694187,-0.759906 1.02681,-1.124479 z"
    />
  </g>
</svg>