<svg
  height="500px"
  width="500px"
  viewBox="0 0 44 72"
  xmlns="http://www.w3.org/2000/svg"
  id="body-svg"
>
  <defs />
  <g id="Body" style="display: inline">
    <path
      id="Suit"
      d="M 12.27522 47.871497 C 11.68501 48.183925 10.975011 48.517908 10.467061 48.743795 C 8.0578338 49.815191 3.9547145 50.940405 1.8164266 52.082609 C 1.0541474 52.515876 0.45930954 52.852483 0 53.224658 L 0 71.99974 L 12.173417 71.99974 C 11.821578 70.26203 9.8739284 60.867247 8.0093302 57.051298 L 9.8707153 55.05142 L 8.5147257 52.895479 L 12.27522 47.871497 z M 31.724679 47.871497 L 35.485173 52.895479 L 34.129183 55.05142 L 35.990568 57.051298 C 34.12597 60.867247 32.178321 70.26203 31.826481 71.99974 L 43.999898 71.99974 L 43.999898 53.224658 C 43.540589 52.852483 42.945751 52.515876 42.183472 52.082609 C 40.045184 50.940405 35.942065 49.815191 33.532837 48.743795 C 33.024887 48.517908 32.314888 48.183925 31.724679 47.871497 z "
      style="fill-rule: evenodd; fill: rgb(39, 58, 98)"
    />
    <path
      id="LapelShadow"
      d="M 8.3622803 52.895996 L 7.9623047 53.406559 L 9.3198446 55.347009 L 7.3799113 57.379443 C 8.4121603 58.53314 10.52867 65.793119 11.738818 72.000256 L 12.173417 72.000256 C 11.821578 70.262543 9.8739284 60.867768 8.0093302 57.051815 L 9.8707153 55.051937 L 8.3622803 52.895996 z M 35.637618 52.895996 L 34.129183 55.051937 L 35.990568 57.051815 C 34.12597 60.867768 32.178321 70.262543 31.826481 72.000256 L 32.26108 72.000256 C 33.471229 65.793119 35.587738 58.53314 36.619987 57.379443 L 34.680054 55.347009 L 36.037594 53.406559 L 35.637618 52.895996 z "
      style="fill: rgb(0, 0, 0); fill-rule: evenodd; fill-opacity: 0.15"
    />
    <path
      id="Lapel"
      d="M 14.189315 46.717045 L 13.988293 46.822465 C 13.67956 46.985526 12.806922 47.447063 12.060763 47.842041 L 12.034924 47.855477 L 8.1989827 52.892379 L 9.7012166 55.041085 L 7.8496501 57.027527 L 7.8904744 57.109176 C 8.8119515 58.994997 9.7679996 62.298514 10.53114 65.338131 C 11.289066 68.356972 11.857622 71.112514 12.037508 72.000256 L 15.902905 72.000256 L 15.900321 71.98217 C 15.440183 68.507672 14.502886 61.292858 14.242025 58.118933 C 13.995877 55.124177 14.102935 49.783614 14.18363 46.943388 L 14.189315 46.717045 z M 29.810583 46.717045 L 29.816268 46.943388 C 29.896958 49.783614 30.004016 55.124177 29.757874 58.118933 C 29.497012 61.292858 28.559716 68.507672 28.099577 71.98217 L 28.096993 72.000256 L 31.962907 72.000256 C 32.142786 71.112514 32.710833 68.356972 33.468758 65.338131 C 34.231899 62.298514 35.187947 58.994997 36.109424 57.109176 L 36.148698 57.027527 L 34.298682 55.041085 L 35.800916 52.892379 L 31.964974 47.855477 L 31.939653 47.842041 C 31.193493 47.447063 30.32034 46.985526 30.011605 46.822465 L 29.810583 46.717045 z "
      style="fill-rule: evenodd; fill: rgb(50, 77, 119)"
    />
    <path
      id="Shirt"
      d="M 15.269869 46.308801 C 15.202369 46.344441 14.328612 46.806803 14.050822 46.953723 C 14.014932 48.217197 13.974656 49.911921 13.961938 51.752913 L 13.960905 51.75188 C 13.956105 52.413889 13.955671 53.084261 13.959871 53.74504 L 13.962455 53.747624 C 13.971897 55.373928 14.01204 56.935087 14.11025 58.130302 C 14.37189 61.313659 15.308867 68.524808 15.769063 71.99974 L 18.120341 71.99974 L 21.999174 71.99974 L 21.999174 55.421423 L 22.000724 55.420907 L 22.000724 71.99974 L 25.879557 71.99974 L 28.230835 71.99974 C 28.691035 68.524808 29.628012 61.313659 29.889648 58.130302 C 30.0015 56.769068 30.038654 54.934116 30.040027 53.067562 L 30.042611 53.064461 C 30.043018 52.698742 30.041697 52.333173 30.03951 51.968921 C 30.039404 51.950117 30.039106 51.931886 30.038993 51.91311 C 30.038231 51.796209 30.037265 51.680371 30.03641 51.563778 C 30.035589 51.46088 30.034808 51.356604 30.033826 51.254753 C 30.033588 51.229917 30.033564 51.204599 30.033309 51.179822 L 30.032792 51.179822 C 30.016526 49.561833 29.981213 48.085059 29.949076 46.953723 C 29.671288 46.806803 28.797529 46.344441 28.730029 46.308801 C 26.790587 48.2991 24.539394 49.599715 22.36866 51.411849 C 22.368688 51.411786 22.362262 51.406622 22.362459 51.406681 L 22.000724 51.406681 L 22.000724 51.674365 L 21.999174 51.674365 L 21.999174 51.406681 L 21.637439 51.406681 C 21.637637 51.406622 21.631211 51.411786 21.631238 51.411849 C 19.460505 49.599715 17.209312 48.2991 15.269869 46.308801 z M 14.838371 52.742517 C 14.988091 52.878713 15.139225 53.018375 15.29209 53.16213 C 15.444954 53.305884 15.599316 53.453451 15.755111 53.604997 C 15.910905 53.756542 16.068406 53.912066 16.226917 54.071635 C 16.385427 54.231204 16.544946 54.394736 16.705957 54.562561 C 16.866968 54.730386 17.029451 54.902495 17.192749 55.078809 C 17.356047 55.255122 17.520371 55.43586 17.685742 55.620894 C 17.520373 55.435862 17.356047 55.255121 17.192749 55.078809 C 17.029451 54.902496 16.866968 54.730386 16.705957 54.562561 C 16.544946 54.394736 16.385427 54.231204 16.226917 54.071635 C 16.068406 53.912065 15.910906 53.756543 15.755111 53.604997 C 15.599315 53.453451 15.444955 53.305885 15.29209 53.16213 C 15.139225 53.018375 14.988091 52.878713 14.838371 52.742517 z M 29.161528 52.742517 C 29.011807 52.878713 28.860673 53.018375 28.707808 53.16213 C 28.554944 53.305885 28.400583 53.453451 28.244788 53.604997 C 28.088993 53.756543 27.931492 53.912065 27.772982 54.071635 C 27.614471 54.231204 27.454953 54.394736 27.293941 54.562561 C 27.13293 54.730386 26.970447 54.902496 26.807149 55.078809 C 26.643851 55.255121 26.479526 55.435862 26.314156 55.620894 C 26.254022 55.531962 26.193301 55.444363 26.132255 55.357861 C 26.193296 55.444343 26.254095 55.532071 26.314156 55.620894 C 26.479527 55.43586 26.643851 55.255122 26.807149 55.078809 C 26.970448 54.902495 27.13293 54.730386 27.293941 54.562561 C 27.454953 54.394736 27.614472 54.231204 27.772982 54.071635 C 27.931492 53.912066 28.088993 53.756542 28.244788 53.604997 C 28.400582 53.453451 28.554944 53.305884 28.707808 53.16213 C 28.860673 53.018375 29.011807 52.878713 29.161528 52.742517 z M 19.252055 53.64117 C 19.122651 53.78325 18.991452 53.931223 18.859831 54.085071 C 18.79402 54.161995 18.728419 54.240405 18.662427 54.320199 C 18.596434 54.399993 18.530432 54.481495 18.464506 54.564111 C 18.407231 54.635887 18.34999 54.708831 18.29294 54.782703 C 18.350031 54.708742 18.407185 54.635981 18.464506 54.564111 C 18.530392 54.481502 18.596472 54.399992 18.662427 54.320199 C 18.728287 54.24052 18.794152 54.161885 18.859831 54.085071 C 18.991592 53.930969 19.122536 53.783399 19.252055 53.64117 z M 25.394316 54.389445 C 25.430651 54.433848 25.467044 54.478548 25.503353 54.523804 C 25.467042 54.478537 25.430639 54.433841 25.394316 54.389445 z M 25.574666 54.613204 C 25.612657 54.661186 25.650469 54.709514 25.688354 54.758415 C 25.650518 54.709567 25.612592 54.661114 25.574666 54.613204 z M 18.239714 54.851949 C 18.197303 54.907446 18.154768 54.963775 18.11259 55.020414 C 18.154813 54.963692 18.197254 54.907535 18.239714 54.851949 z M 25.76897 54.863318 C 25.814116 54.922524 25.858975 54.982663 25.903845 55.043152 C 25.85888 54.982519 25.814184 54.922626 25.76897 54.863318 z M 25.934851 55.084493 C 25.988403 55.157154 26.041528 55.230693 26.094531 55.305151 C 26.041575 55.230745 25.988311 55.157048 25.934851 55.084493 z M 18.055745 55.096895 C 18.010529 55.158345 17.965702 55.2207 17.92087 55.283447 C 17.965707 55.220678 18.010518 55.15838 18.055745 55.096895 z "
      style="fill-rule: evenodd; fill: rgb(255, 255, 255)"
    />
    <path
      id="CollarShadow"
      d="M 30.031759 51.179822 C 30.03422 51.423698 30.037321 51.664498 30.038993 51.91311 C 30.037438 51.667717 30.035829 51.422302 30.033309 51.179822 L 30.031759 51.179822 z M 21.999174 51.674365 L 21.999174 55.195081 L 21.999174 55.421423 L 22.000724 55.420907 L 22.000724 55.195081 L 22.000724 51.674365 L 21.999174 51.674365 z M 13.960905 51.75188 C 13.956106 52.413892 13.955699 53.084258 13.959871 53.74504 L 13.962455 53.747624 C 13.959931 53.312773 13.958911 52.87415 13.960388 52.435559 C 14.382138 52.83147 17.291561 55.565983 17.677991 56.023971 L 17.696594 56.046191 C 17.756994 56.005551 17.820219 55.927197 17.916219 55.831217 C 18.158989 55.588459 19.068152 54.471199 19.435506 53.945028 L 20.193083 55.195081 L 19.252055 53.64117 C 18.73444 54.209488 18.191131 54.873485 17.685742 55.620894 C 16.362784 54.140629 15.102692 52.943125 13.960388 51.968921 C 13.960805 51.895263 13.961948 51.82612 13.962455 51.752913 L 13.960905 51.75188 z M 30.03951 51.968921 C 28.897206 52.943125 27.63712 54.140629 26.314156 55.620894 C 25.807413 54.871479 25.264601 54.207695 24.74836 53.640653 L 24.564392 53.945028 C 24.931752 54.471199 25.840909 55.588459 26.083679 55.831217 C 26.179679 55.927197 26.242904 56.005551 26.303304 56.046191 L 26.321908 56.023971 C 26.708332 55.565983 29.617766 52.83147 30.03951 52.435559 C 30.04022 52.646308 30.040182 52.856991 30.040027 53.067562 L 30.042611 53.064461 C 30.043018 52.698739 30.041698 52.333173 30.03951 51.968921 z "
      style="fill: rgb(0, 0, 0); fill-rule: evenodd; fill-opacity: 0.304217"
    />
    <g id="TieGroup" style="display: inline">
      <path
        id="Tie"
        d="M 20.389453,55.195081 18.120341,71.99974 h 3.878833 V 55.195081 Z m 1.611271,0 V 71.99974 h 3.878833 L 23.610445,55.195081 Z"
        style="fill-rule: evenodd"
      />
      <path
        id="TieKnot"
        d="m 21.637439,51.406681 c 0.0229,-0.0069 -1.102843,0.811198 -2.390552,2.226221 l 0.946196,1.562179 h 1.806091 v -3.7884 z m 0.363285,0 v 3.7884 h 1.806092 l 0.946195,-1.562179 c -1.287709,-1.415023 -2.413452,-2.233121 -2.390552,-2.226221 z"
        style="fill-rule: evenodd"
      />
      <path
        id="TieTint"
        d="M 20.389453,55.195081 18.120341,71.99974 h 3.878833 V 55.195081 Z m 1.611271,0 V 71.99974 h 3.878833 L 23.610445,55.195081 Z"
        style="fill: rgb(0, 0, 0); fill-opacity: 0.15; fill-rule: evenodd"
      />
    </g>
    <g id="BowtieGroup" style="display: none">
      <path
        d="m 15.994889,50.021753 c -0.05647,6.37e-4 -0.10142,0.0061 -0.135909,0.0155 -0.967558,0.265111 -0.772758,2.92308 -0.699182,3.830257 0.07358,0.907178 0.552156,3.091189 0.84646,3.427181 0.294304,0.335992 3.126638,-1.041617 3.825606,-1.680001 0.319351,-0.291669 0.653055,-0.660031 0.922425,-0.974617 3.6e-4,3.26e-4 7.05e-4,7.4e-4 0.001,10e-4 0.05836,0.05269 0.315123,0.285873 0.513147,0.33538 0.08516,0.02129 0.357172,0.03364 0.731739,0.03979 0.374566,-0.0062 0.646578,-0.0185 0.731738,-0.03979 0.198024,-0.04951 0.454787,-0.28269 0.513147,-0.33538 3.28e-4,-2.93e-4 6.73e-4,-7.07e-4 0.001,-10e-4 0.26937,0.314586 0.603074,0.682948 0.922425,0.974617 0.698968,0.638384 3.531302,2.015993 3.825606,1.680001 0.294304,-0.335992 0.77288,-2.520003 0.84646,-3.427181 0.07358,-0.907177 0.268376,-3.565146 -0.699182,-3.830257 -0.03449,-0.0094 -0.07944,-0.01487 -0.135909,-0.0155 -0.499164,-0.0056 -1.883252,0.378771 -4.589384,1.934766 -0.375174,-0.301963 -0.781716,-0.595647 -1.415935,-0.595647 -0.634218,0 -1.04076,0.293684 -1.415934,0.595647 -2.706132,-1.555995 -4.09022,-1.940396 -4.589384,-1.934766 z"
        id="Bowtie"
        style="fill-rule: evenodd"
      />
      <path
        d="m 20.579106,51.960653 c -0.335992,0.268791 -0.28529,1.579102 -0.150896,2.049487 0.06839,0.23936 0.159637,0.479765 0.327112,0.630969 0.05836,0.05269 0.315123,0.285873 0.513147,0.33538 0.08516,0.02129 0.357172,0.03364 0.731739,0.03979 0.374566,-0.0062 0.646578,-0.0185 0.731738,-0.03979 0.198024,-0.04951 0.454787,-0.28269 0.513147,-0.33538 0.167475,-0.151204 0.258722,-0.391609 0.327112,-0.630969 0.134394,-0.470385 0.185096,-1.780696 -0.150896,-2.049487 -0.376604,-0.303415 -0.78424,-0.599781 -1.421102,-0.599781 -0.636861,0 -1.044497,0.296366 -1.421101,0.599781 z m -3.482992,1.138948 c -0.09006,0.0017 -0.144924,0.0287 -0.162264,0.09612 -0.460043,1.788729 1.982608,0.495793 2.755387,0.646989 0.177706,0.03477 0.364931,0.04866 0.548287,0.05013 -0.04144,-0.212123 -0.0919,-0.309321 -0.09508,-0.591695 -1.598191,0.261397 -2.65607,-0.208855 -3.046326,-0.201538 z m 9.784933,0 c -0.407903,0.0104 -1.455615,0.457908 -3.023072,0.201538 -0.0032,0.282374 -0.05364,0.379572 -0.09508,0.591695 0.183356,-0.0015 0.370581,-0.01536 0.548287,-0.05013 0.772779,-0.151196 3.21543,1.14174 2.755387,-0.646989 -0.01879,-0.07304 -0.08154,-0.09877 -0.185518,-0.09612 z"
        id="BowtieShadow"
        style="fill: rgb(0, 0, 0); fill-opacity: 0.129518; fill-rule: evenodd"
      />
    </g>
    <path
      id="Head"
      d="m 22.000208,12.753743 c -3.311387,0.214229 -4.780809,0.83545 -7.072437,2.757455 -2.841087,2.910659 -2.594462,6.565401 -2.831352,10.823112 -10e-4,0.0045 -0.01344,0.05168 -0.01344,0.05168 0,0 -2.3452571,0.267482 -2.6132768,1.807125 -0.1737298,0.998017 0.3009661,3.652398 0.8583458,4.766118 0.804039,1.606582 2.290816,1.124995 2.290816,1.124995 0.0483,0.02806 0.462897,5.203742 1.444356,6.981486 0.16149,0.292507 0.749463,0.797313 1.4118,1.30173 0.0856,0.602058 0.15017,1.249567 0.125574,1.741496 -0.03133,0.6265 -0.205835,1.505624 -0.370003,2.220536 0.0038,-0.002 0.0371,-0.01952 0.03927,-0.02067 1.939587,1.990448 4.191003,3.291213 6.361886,5.103565 0.0045,-0.0038 0.0068,-0.006 0.0057,-0.0057 h 0.361735 v -6.187736 c -0.117773,0.003 -0.232425,0.003 -0.344682,5.17e-4 0.112391,0.0025 0.226857,0.0025 0.344682,-5.17e-4 v -27.16785 c 3.6e-4,-2e-5 7.14e-4,2.2e-5 10e-4,0 3.2e-4,2.2e-5 6.73e-4,-2e-5 0.001,0 v 27.16785 c 0.117655,0.003 0.232446,0.003 0.344682,5.17e-4 -0.112257,0.0025 -0.226909,0.0025 -0.344682,-5.17e-4 v 6.187736 h 0.361735 c -0.0011,-3e-4 0.0012,0.0019 0.0057,0.0057 2.170883,-1.812352 4.422299,-3.113117 6.361886,-5.103565 0.0022,0.0011 0.03547,0.01867 0.03927,0.02067 C 28.605605,45.614564 28.4311,44.73544 28.39977,44.10894 c -0.0246,-0.491929 0.03997,-1.139438 0.125574,-1.741496 0.662337,-0.504417 1.25031,-1.009223 1.4118,-1.30173 0.981459,-1.777744 1.396056,-6.953426 1.444356,-6.981486 0,0 1.486777,0.481587 2.290816,-1.124995 0.55738,-1.11372 1.032076,-3.768101 0.858346,-4.766118 -0.26802,-1.539643 -2.613277,-1.807125 -2.613277,-1.807125 0,0 -0.01244,-0.04718 -0.01344,-0.05168 -0.23689,-4.257711 0.0097,-7.912453 -2.831352,-10.823112 -2.291628,-1.922005 -3.76105,-2.543226 -7.072436,-2.757455 z m -6.463689,29.660206 c 0.06922,0.05235 0.139093,0.10461 0.20929,0.156579 -0.07024,-0.05199 -0.140028,-0.104201 -0.20929,-0.156579 z m 0.2651,0.19792 c 0.166803,0.122829 0.333981,0.242168 0.497645,0.357601 -0.163809,-0.115536 -0.330674,-0.234658 -0.497645,-0.357601 z m 12.397177,0 c -0.17082,0.125778 -0.341113,0.247921 -0.508497,0.365869 0.167014,-0.11769 0.338081,-0.240383 0.508497,-0.365869 z m -0.584978,0.419613 c -0.154543,0.108226 -0.302766,0.210078 -0.443383,0.304891 0.140841,-0.09494 0.288549,-0.19647 0.443383,-0.304891 z m -11.212752,0.0098 c 0.156273,0.109294 0.307464,0.2127 0.449068,0.307992 -0.14229,-0.09576 -0.291963,-0.198096 -0.449068,-0.307992 z m 0.534851,0.36587 c 0.147085,0.09814 0.284824,0.188104 0.401526,0.261999 -0.117384,-0.0743 -0.253243,-0.163038 -0.401526,-0.261999 z m 10.112044,0.01137 c -0.145985,0.09727 -0.278497,0.183481 -0.393774,0.256316 0.113498,-0.07176 0.250785,-0.161085 0.393774,-0.256316 z m -9.654191,0.285771 c 0.046,0.02878 0.09233,0.05765 0.131258,0.08113 0.05257,0.03171 0.09804,0.05862 0.135909,0.07958 -0.03751,-0.02077 -0.08397,-0.04826 -0.135909,-0.07958 -0.03865,-0.02331 -0.08559,-0.05257 -0.131258,-0.08113 z m 9.076449,0.08423 c -0.04971,0.02991 -0.09452,0.05643 -0.130741,0.07648 0.03632,-0.02011 0.08087,-0.04647 0.130741,-0.07648 z M 18.13016,44.12597 c 0.127928,0.07089 0.257575,0.141181 0.388606,0.210323 -0.131268,-0.06911 -0.260479,-0.139428 -0.388606,-0.210323 z m 7.740096,0 c -0.128128,0.0709 -0.257339,0.141213 -0.388607,0.210323 0.131031,-0.06914 0.260678,-0.139435 0.388607,-0.210323 z m -4.774903,1.055749 c 0.04194,0.0045 0.0839,0.0092 0.126607,0.01292 -0.04256,-0.0039 -0.08482,-0.0082 -0.126607,-0.01292 z m 1.809709,0 c -0.04178,0.0047 -0.08405,0.009 -0.126607,0.01292 0.04271,-0.0038 0.08467,-0.0084 0.126607,-0.01292 z m -1.571997,0.02222 c 0.09725,0.0069 0.19624,0.01235 0.297656,0.01499 -0.05182,-0.0014 -0.103303,-0.0031 -0.153996,-0.0057 -0.0031,-1.57e-4 -0.0062,-3.56e-4 -0.0093,-5.17e-4 -0.04534,-0.0023 -0.08997,-0.0055 -0.134359,-0.0088 z m 1.333768,0 c -0.04422,0.0033 -0.08867,0.0065 -0.133841,0.0088 -0.0031,1.61e-4 -0.0062,3.6e-4 -0.0093,5.17e-4 -0.05036,0.0025 -0.101492,0.0043 -0.152962,0.0057 0.101034,-0.0026 0.19921,-0.0082 0.296105,-0.01499 z"
      style="fill-rule: evenodd"
    />
    <path
      id="NeckShadow"
      d="m 15.624886,42.480094 c 1.953676,1.934615 4.27668,3.750928 6.375322,3.724838 2.098641,0.02609 4.421645,-1.790223 6.375321,-3.724838 -0.81766,0.612635 -1.705932,1.20105 -2.031917,1.382345 -0.001,7e-4 -0.0031,0.0019 -0.0041,0.0026 h -5.17e-4 c -0.17513,0.09696 -0.350287,0.195712 -0.527617,0.293522 -0.0591,0.03259 -0.118583,0.06487 -0.178283,0.09715 -0.865899,0.468101 -1.804974,0.892287 -3.099553,0.957047 -3.2e-4,1.8e-5 -6.93e-4,-1.7e-5 -0.001,0 -10e-4,4.3e-5 -0.0017,-4.2e-5 -0.0026,0 -0.002,1.28e-4 -0.0052,4.04e-4 -0.0072,5.17e-4 -0.04803,0.0024 -0.09673,0.0044 -0.145727,0.0057 -0.0183,4.6e-4 -0.03689,6.82e-4 -0.05529,10e-4 -0.0314,5.63e-4 -0.06277,8.64e-4 -0.09457,0.001 -0.0267,1.52e-4 -0.05362,1.52e-4 -0.08062,0 -0.04813,-3e-4 -0.09663,-7.67e-4 -0.145728,-0.0021 h -5.16e-4 -5.17e-4 c -0.0491,0.0013 -0.0976,0.0018 -0.145728,0.0021 -0.027,1.52e-4 -0.05391,1.52e-4 -0.08062,0 -0.0318,-1.69e-4 -0.06317,-4.7e-4 -0.09457,-0.001 -0.0184,-3.52e-4 -0.03699,-5.74e-4 -0.05529,-10e-4 -0.049,-0.0013 -0.0977,-0.0033 -0.145727,-0.0057 -0.002,-1.13e-4 -0.0052,-3.89e-4 -0.0072,-5.17e-4 -8.5e-4,-4.2e-5 -0.0016,4.3e-5 -0.0026,0 -3.4e-4,-1.7e-5 -7.13e-4,1.8e-5 -0.001,0 -1.294579,-0.06476 -2.233654,-0.488946 -3.099553,-0.957047 -0.0597,-0.03228 -0.119183,-0.06456 -0.178283,-0.09715 -0.17733,-0.09781 -0.352487,-0.196561 -0.527617,-0.293522 h -5.17e-4 c -9.99e-4,-6.7e-4 -0.0031,-0.0019 -0.0041,-0.0026 -0.325985,-0.181295 -1.214257,-0.76971 -2.031917,-1.382345 z"
      style="fill: #000000; fill-opacity: 0.2; fill-rule: evenodd"
    />
    <path
      d="m 28.729305,46.308801 c 0.0675,0.03564 0.941257,0.498002 1.219047,0.644922 0.0053,0.186316 0.01063,0.401553 0.01602,0.605648 -0.0055,-0.208384 -0.01068,-0.432707 -0.01602,-0.620634 0.285473,0.150775 1.079524,0.570789 1.783871,0.943612 l -0.0083,-0.01085 c 0.59021,0.312427 1.300209,0.64641 1.808159,0.872298 2.409224,1.071395 6.512349,2.196611 8.650634,3.338814 0.76231,0.433265 1.357118,0.769875 1.816427,1.142049 V 71.99974 H 32.260356 v 5.16e-4 H 31.825757 28.230111 V 71.99974 H 25.878833 22 v -16.804659 -3.7884 h 0.361735 c -0.0011,-3.39e-4 0.0014,0.0021 0.0057,0.0057 2.170887,-1.812389 4.42228,-3.113098 6.361886,-5.103565 z"
      id="RightTint"
      style="fill: rgb(102, 102, 102); fill-opacity: 0.15; fill-rule: evenodd"
    />
    <path
      d="m 22.000208,12.753743 v 5.297352 c 3.6e-4,2e-5 7.06e-4,-2.1e-5 10e-4,0 v 27.16785 h -5.17e-4 -5.16e-4 v 0.985987 c 2.76e-4,4e-6 7.23e-4,-5e-6 0.001,0 v 5.201749 h 0.361735 c -0.0011,-3e-4 0.0012,0.0019 0.0057,0.0057 2.170877,-1.812346 4.422305,-3.113123 6.361886,-5.103565 0.0022,0.0011 0.03547,0.01867 0.03927,0.02067 -0.164168,-0.714909 -0.338673,-1.594039 -0.370003,-2.220536 -0.0246,-0.491929 0.03997,-1.139441 0.125574,-1.741496 0.662418,-0.50437 1.250311,-1.009224 1.4118,-1.30173 0.981466,-1.777741 1.396056,-6.953426 1.444356,-6.981486 0,0 1.48678,0.481583 2.290816,-1.124995 0.557379,-1.113718 1.032075,-3.768103 0.858346,-4.766118 C 34.262635,26.653487 31.917378,26.386 31.917378,26.386 c 0,0 -0.01225,-0.04673 -0.01344,-0.05116 -0.236942,-4.257933 0.0099,-7.912852 -2.831352,-10.823629 -2.291626,-1.922005 -3.761054,-2.543226 -7.072436,-2.757455 z"
      id="HeadTint"
      style="
        fill: rgb(102, 102, 102);
        fill-opacity: 0.123494;
        fill-rule: evenodd;
      "
    />
  </g>
</svg>
