<svg
  width="44mm"
  height="72mm"
  viewBox="0 0 44 72"
  version="1.1"
  id="svg1"
  xml:space="preserve"
  xmlns:sodipodi="http://sodipodi.sourceforge.net/DTD/sodipodi-0.dtd"
  xmlns="http://www.w3.org/2000/svg"
  xmlns:svg="http://www.w3.org/2000/svg"
>
  <path
    xmlns="http://www.w3.org/2000/svg"
    style="
      display: inline;
      fill-rule: evenodd;
      stroke: none;
      stroke-width: 0.264583px;
      stroke-linecap: butt;
      stroke-linejoin: miter;
      stroke-opacity: 1;
    "
    id="hair"
    d="m 11.954826,19.719727 c -0.201567,-0.0024 -0.444076,0.229668 -0.564824,0.809252 -0.167996,0.806381 -0.100778,3.125097 -0.06718,4.166671 0.0336,1.041573 0.268707,1.713526 0.302307,1.948718 0.0336,0.235196 1.075366,0.705449 1.142566,0.470256 0.0672,-0.235194 0.705363,-3.796967 0.772563,-4.569747 0.0672,-0.772779 -0.839592,-1.914901 -1.377177,-2.721281 -0.0567,-0.06615 -0.129383,-0.102919 -0.208255,-0.103869 z m 20.090763,0 c -0.07887,9.5e-4 -0.151556,0.03772 -0.208256,0.103869 -0.537585,0.80638 -1.444377,1.948502 -1.377177,2.721281 0.0672,0.77278 0.705363,4.334553 0.772563,4.569747 0.0672,0.235193 1.108966,-0.23506 1.142566,-0.470256 0.0336,-0.235192 0.268707,-0.907145 0.302307,-1.948718 0.0336,-1.041574 0.100817,-3.36029 -0.06718,-4.166671 -0.120748,-0.579584 -0.363257,-0.811652 -0.564823,-0.809252 z M 12.50828,34.022729 c 0.004,0.02845 0.0079,0.05795 0.01189,0.0863 0.147926,1.055723 0.29675,2.040126 0.40411,2.85874 l 0.05374,0.31471 c 0.232269,1.540355 0.584812,2.876858 1.085205,3.783231 0.37099,0.671976 2.991851,2.463894 3.597713,2.799313 1.191782,0.659782 2.376733,1.403915 4.338237,1.353922 h 10e-4 0.001 c 1.961504,0.04999 3.146455,-0.69414 4.338237,-1.353922 0.605862,-0.335419 3.226723,-2.127337 3.597713,-2.799313 0.500393,-0.906373 0.852936,-2.242876 1.085205,-3.783231 l 0.05374,-0.31471 c 0.10736,-0.818614 0.256184,-1.803017 0.40411,-2.85874 0.004,-0.02835 0.0079,-0.05785 0.01189,-0.0863 -0.05903,0.0027 -0.633605,0.05333 -1.12913,1.044381 -0.522681,1.045357 -1.139983,1.853117 -1.139983,1.853117 0,0 -0.522733,-0.807861 -1.045414,-1.092956 -0.522677,-0.285097 -1.428211,-0.335561 -2.140954,-0.668177 -0.712747,-0.332612 -1.772735,-0.258876 -2.200383,-0.211356 -0.427644,0.04752 -1.170733,0.594795 -1.645894,0.594795 -0.05706,0 -0.12187,0.0071 -0.190169,0.01912 -0.0683,-0.01206 -0.133108,-0.01912 -0.19017,-0.01912 -0.475161,0 -1.21825,-0.547275 -1.645894,-0.594795 -0.427648,-0.04752 -1.487636,-0.121256 -2.200383,0.211356 -0.712743,0.332616 -1.618277,0.38308 -2.140954,0.668177 -0.522681,0.285095 -1.045414,1.092956 -1.045414,1.092956 0,0 -0.617302,-0.80776 -1.139983,-1.853117 -0.495525,-0.991056 -1.0701,-1.041701 -1.12913,-1.044381 z m 9.491928,3.080433 c 0.07044,0.06961 0.135229,0.136354 0.190169,0.197404 0.427644,0.475157 1.948076,0.617478 2.660819,0.522448 0.712747,-0.09503 1.1882,-0.379844 1.473295,-0.427364 0.285098,-0.04752 0.547387,0.117409 0.784965,0.307475 0.237583,0.190061 0.531751,0.603581 0.531751,0.603581 0,0 -0.90935,0.717687 -1.190108,0.811836 -0.765902,0.256827 -2.231263,0.827417 -2.944007,0.969967 -0.273877,0.05478 -0.926754,0.07305 -1.506884,0.07648 -0.580131,-0.0034 -1.233008,-0.0217 -1.506885,-0.07648 -0.712744,-0.14255 -2.178105,-0.71314 -2.944007,-0.969967 -0.280758,-0.09415 -1.190108,-0.811836 -1.190108,-0.811836 0,0 0.294168,-0.41352 0.531751,-0.603581 0.237578,-0.190066 0.499867,-0.354995 0.784965,-0.307475 0.285095,0.04752 0.760548,0.332334 1.473295,0.427364 0.712743,0.09503 2.233175,-0.04729 2.660819,-0.522448 0.05494,-0.06105 0.119733,-0.127799 0.19017,-0.197404 z"
  />
</svg>