<svg
  width="44mm"
  height="72mm"
  viewBox="0 0 44 72"
  version="1.1"
  id="svg1"
  xml:space="preserve"
  xmlns:sodipodi="http://sodipodi.sourceforge.net/DTD/sodipodi-0.dtd"
  xmlns="http://www.w3.org/2000/svg"
  xmlns:svg="http://www.w3.org/2000/svg"
>
  <path
    xmlns="http://www.w3.org/2000/svg"
    style="
      display: inline;
      fill-rule: evenodd;
      stroke: none;
      stroke-width: 0.264583px;
      stroke-linecap: butt;
      stroke-linejoin: miter;
      stroke-opacity: 1;
    "
    d="m 13.16861,18.179582 c 0,0 -1.000778,-0.730706 -1.272571,-1.828721 -0.379074,-1.531426 0.171473,-2.433242 0.212096,-2.394752 0,0 0.254514,0.827278 0.805961,1.132065 0.551448,0.304786 1.35785,-0.01539 1.35785,-0.01539 0,0 -0.576656,-0.91189 -0.304653,-2.264583 0.197704,-0.983193 1.701146,-2.054575 1.788877,-1.987037 0,0 -0.296933,1.175606 -0.08484,1.785179 0.212095,0.609573 0.676033,0.944668 1.187732,0.91436 1.336458,-0.07916 1.575835,-1.271972 2.197629,-2.502058 0.582776,-1.152899 3.16286,-1.9415039 3.571358,-1.7649558 0,0 -0.850867,0.7237994 -1.053198,1.1575708 -0.467586,1.002443 0.37167,2.110899 0.565379,1.912067 0,0 0.148467,-0.674885 0.784751,-0.979672 0.636286,-0.304786 2.799656,0 3.478361,0.261246 0.678702,0.261246 2.230649,1.080953 2.629979,1.132065 0.62051,0.07942 0.577307,-1.476301 0.424189,-1.611016 0,0 0.763543,0.217705 1.060477,0.914361 0.296932,0.696655 -0.169676,1.654556 -0.169676,1.654556 0,0 0.749297,0.239167 0.996846,0.06531 0.40298,-0.283016 0.445401,-0.805508 0.445401,-0.805508 0,0 0.565768,1.590378 0.657492,2.155278 0.12726,0.783737 0.02121,1.589245 -0.572654,2.155277 -0.593866,0.566033 -0.636287,0.566033 -0.636287,0.566033 0,0 0.678705,0.217704 1.060476,1.480392 0.381772,1.262688 0.636285,3.6139 0.466611,4.96367 -0.169677,1.349769 -0.692979,7.006978 -0.923809,7.125323 -0.761189,0.390256 -0.257508,-2.253126 -0.603278,-4.295161 -0.336491,-1.98724 -1.230151,-0.827278 -1.357407,-2.046425 -0.127259,-1.219147 0.42419,-3.483277 -0.805963,-4.441178 -1.230151,-0.957901 -1.484664,1.001442 -5.387215,0.91436 -3.902549,-0.08708 -6.871881,-1.088524 -7.76268,-0.91436 -0.890799,0.174164 -1.187733,0.261246 -1.357408,1.001442 -0.169676,0.740197 -0.127257,2.612458 -0.296933,3.309113 -0.169677,0.696655 -0.805961,0.217705 -1.102895,1.219147 -0.296933,1.001442 -0.296933,4.223473 -0.678705,4.833046 -0.38177,0.609574 -0.678704,0.783738 -0.763542,-2.568916 -0.08484,-3.352654 -0.127257,-7.314881 -0.127257,-8.534028 0,-1.219147 1.654342,-1.611016 1.654342,-1.611016"
    sodipodi:nodetypes="cscscscssscscssscscscsscssssssssssssssc"
    id="hair"
  />
</svg>