<svg
  width="44mm"
  height="72mm"
  viewBox="0 0 44 72"
  version="1.1"
  id="svg1"
  xml:space="preserve"
  xmlns:sodipodi="http://sodipodi.sourceforge.net/DTD/sodipodi-0.dtd"
  xmlns="http://www.w3.org/2000/svg"
  xmlns:svg="http://www.w3.org/2000/svg"
>
  <path
    xmlns="http://www.w3.org/2000/svg"
    style="
      display: inline;
      fill-rule: evenodd;
      stroke: none;
      stroke-width: 0.264583px;
      stroke-linecap: butt;
      stroke-linejoin: miter;
      stroke-opacity: 1;
    "
    d="m 13.352119,29.650269 c -0.04752,0.451406 -0.07096,1.376812 -0.332615,1.3067 -0.261653,-0.07011 -0.475165,-0.451405 -0.54644,-1.164153 -0.07127,-0.712745 -0.02376,-1.995689 -0.522681,-2.352064 -0.498922,-0.356373 -0.92657,-1.259185 -1.092878,-1.473009 -0.166308,-0.213824 0.237582,-1.995692 -0.04752,-2.328307 C 10.524895,23.306821 9.0994012,22.047635 8.8855771,21.239855 8.671753,20.432076 8.6242365,18.412626 8.6242365,18.412626 c 0,0 0.4751647,0.593956 0.9265708,0.617714 l 0.4514067,0.02376 c 0,0 -0.2138243,-0.997846 -0.3088571,-1.425494 -0.095033,-0.427648 -0.3326154,-2.066965 -0.3326154,-2.066965 0,0 1.4730105,0.237582 1.8769005,0.04752 0.403889,-0.190066 3.896349,-2.447097 6.581028,-3.563734 2.68468,-1.116637 6.17714,-0.308857 6.17714,-0.308857 -0.0195,-0.942003 1.73993,-0.393622 2.565888,-0.974087 1.113028,0.942837 1.657217,2.122816 2.304547,3.397426 -3.46e-4,-0.001 2.097129,0.269623 2.827231,1.306703 0.793945,1.127766 1.948174,2.922262 1.829384,4.846678 -0.118792,1.924416 -0.593956,6.343448 -0.593956,6.343448 0,0 -0.617715,0.356372 -0.784022,0.688988 -0.166309,0.332616 -0.190066,3.61125 -0.546438,3.801316 -0.356376,0.190066 -0.546442,-0.190066 -0.617715,-0.522679 -0.07128,-0.332615 -0.07128,-4.228967 -0.118793,-4.846681 -0.04752,-0.617714 -0.308856,-2.850987 -1.663076,-3.730041 -2.463565,-1.604782 -7.430119,-0.74945 -10.429861,-0.92657 2.426614,4.163357 -2.914996,4.68291 -5.500026,4.015137 0,0 0.130668,4.062653 0.08315,4.514061 z"
    sodipodi:nodetypes="ssssscscscsccscccsscsssscccss"
    id="hair"
  />
</svg>