<svg
  width="44mm"
  height="72mm"
  viewBox="0 0 44 72"
  version="1.1"
  id="svg1"
  xml:space="preserve"
  xmlns:sodipodi="http://sodipodi.sourceforge.net/DTD/sodipodi-0.dtd"
  xmlns="http://www.w3.org/2000/svg"
  xmlns:svg="http://www.w3.org/2000/svg"
>
  <path
    xmlns="http://www.w3.org/2000/svg"
    style="
      display: inline;
      fill-rule: evenodd;
      stroke: none;
      stroke-width: 0.264583px;
      stroke-linecap: butt;
      stroke-linejoin: miter;
      stroke-opacity: 1;
    "
    d="m 23.67039,10.731697 c -0.490317,-0.0087 -1.124134,0.296007 -1.900659,0.444897 l -0.0062,0.0162 c -0.02008,-0.0044 -0.03996,-0.0067 -0.05839,-0.0034 -0.806378,0.143674 -0.743505,-0.251641 -1.313615,-0.26959 -0.190036,-0.006 -0.450253,0.03017 -0.836641,0.141915 -1.54556,0.446986 -0.672101,0.191494 -1.411284,0.255349 -0.739179,0.06386 -1.411078,0.19186 -2.150256,0.702701 -0.739179,0.510841 -0.53769,0.510715 -1.478463,0.446862 -0.940773,-0.06386 -0.537818,0.127424 -1.008207,1.021395 -0.470385,0.893972 -0.33571,0.574937 -1.00769,0.894214 -0.671984,0.319276 -0.134321,0.638756 -0.268718,1.021887 -0.134396,0.383129 -0.470677,0.893545 -0.806669,1.532095 -0.335992,0.638553 0.03394,3.735604 0.638721,10.24883 l 0.01395,0.131112 c -3.7e-4,0.0026 -7.26e-4,0.0052 -10e-4,0.0079 -0.133051,1.029015 -0.111613,2.255678 -0.01189,3.52971 0.01819,0.232333 0.03909,0.466196 0.06201,0.700737 0.102721,1.051038 0.248117,2.112576 0.394808,3.107402 0.147926,1.003202 0.29675,1.938634 0.40411,2.716522 l 0.05374,0.299054 c 0.232269,1.463722 0.584813,2.733739 1.085205,3.59502 0.37099,0.638546 2.991852,2.341319 3.597713,2.660051 1.180619,0.621086 2.355705,1.319697 4.284494,1.286566 h 0.001 c 1.9615,0.0475 3.146457,-0.659609 4.338237,-1.286566 0.60586,-0.318732 3.226723,-2.021505 3.597713,-2.660051 0.500391,-0.86128 0.852936,-2.1313 1.085205,-3.59502 l 0.05374,-0.299054 c 0.10736,-0.777887 0.256184,-1.713321 0.40411,-2.716522 0.146691,-0.994825 0.292087,-2.056365 0.394808,-3.107402 0.02292,-0.23454 0.04382,-0.468404 0.06201,-0.700737 0.09973,-1.274031 0.121165,-2.500696 -0.01189,-3.52971 -3.07e-4,-0.0027 -6.63e-4,-0.0053 -10e-4,-0.0079 l 0.01395,-0.131112 c 0.0767,-0.825986 0.135941,-1.44259 0.204122,-2.160646 l 0.06204,-0.301966 c 0.206512,-2.573641 0.522819,-5.940064 0.374628,-7.01968 -0.201597,-1.46867 -1.008228,-1.979703 -0.941028,-2.809822 0.0672,-0.830118 -0.604446,-0.893702 -1.209228,-0.957559 -0.604787,-0.06386 -0.672216,-1.213293 -1.008208,-1.596423 -0.33599,-0.383133 -1.61269,0.255528 -2.083077,-0.383024 -0.470405,-0.638551 -0.739224,-0.76659 -1.747197,-0.575024 -1.007975,0.191566 -0.873698,-0.127567 -1.411283,-0.510698 -0.134397,-0.09578 -0.285723,-0.135485 -0.453719,-0.138478 z m -7.947319,8.167243 c 0.643007,-0.01805 1.678252,0.57565 4.066936,0.974747 1.396986,0.233403 1.923686,0.295713 2.121834,0.313784 v 0.0098 c 0,0 0.02535,-9.06e-4 0.06098,-0.0034 0.03563,0.0025 0.06098,0.0034 0.06098,0.0034 v -0.0098 c 0.198146,-0.01813 0.724849,-0.08038 2.121835,-0.313784 2.38868,-0.399097 3.423928,-0.992792 4.066935,-0.974747 0.180042,0.005 0.329575,0.05805 0.469222,0.176781 0.638382,0.542766 0.571024,0.191564 0.571024,1.756016 0,1.564445 0.03358,2.745459 0.06718,2.873169 0.0336,0.127711 1.324439,1.026541 1.425236,1.952438 0.03829,0.351743 0.07347,0.964752 0.09612,1.651913 h -0.02015 c 0.04213,1.183186 0.05392,2.504217 -0.02274,3.196283 -0.134392,1.213249 -1.847821,4.980761 -2.318204,5.044618 -0.470389,0.06386 -2.184083,-0.702506 -3.192054,-1.404911 -1.007971,-0.702408 -0.907177,-0.925689 -1.847949,-0.734129 -0.645963,0.131537 -1.072075,0.21282 -1.477429,0.291197 -0.405355,-0.07838 -0.831465,-0.15966 -1.477429,-0.291197 -0.940773,-0.191561 -0.839977,0.03172 -1.847949,0.734129 -1.007972,0.702406 -2.721665,1.468768 -3.192054,1.404911 -0.470384,-0.06386 -2.183811,-3.831368 -2.318204,-5.044618 -0.07666,-0.692067 -0.06487,-2.013096 -0.02274,-3.196283 h -0.02015 c 0.02265,-0.687162 0.05783,-1.300169 0.09612,-1.651913 0.100797,-0.925898 1.391636,-1.824727 1.425236,-1.952438 0.0336,-0.12771 0.06718,-1.308722 0.06718,-2.873169 0,-1.564453 -0.06736,-1.213249 0.571024,-1.756016 0.139647,-0.11873 0.28918,-0.171745 0.469222,-0.176781 z m 6.249748,17.041117 c 0.783698,0.04319 1.765267,0.123096 2.317171,0.248965 0.839975,0.191565 1.176156,0.383023 1.176156,0.383023 l -0.03359,0.70221 c 0,0 -1.545702,1.053888 -3.459738,1.053888 -1.914036,0 -3.459736,-1.053888 -3.459736,-1.053888 l -0.03359,-0.70221 c 0,0 0.33618,-0.191458 1.176156,-0.383023 0.551905,-0.125869 1.533472,-0.205772 2.317171,-0.248965 z"
    sodipodi:nodetypes="cccccscsccssscccscsccscccssccssccccccsssscsscccscccccscssssccsssscsssscccssscccscccccsc"
    id="hair"
  />
</svg>