<svg
  width="44mm"
  height="72mm"
  viewBox="0 0 44 72"
  version="1.1"
  id="svg1"
  xml:space="preserve"
  xmlns:sodipodi="http://sodipodi.sourceforge.net/DTD/sodipodi-0.dtd"
  xmlns="http://www.w3.org/2000/svg"
  xmlns:svg="http://www.w3.org/2000/svg"
>
  <path
    xmlns="http://www.w3.org/2000/svg"
    style="
      display: inline;
      fill-rule: evenodd;
      stroke: none;
      stroke-width: 0.264583px;
      stroke-linecap: butt;
      stroke-linejoin: miter;
      stroke-opacity: 1;
    "
    id="hair"
    d="m 14.192415,10.020577 c -1.147442,0.694527 -1.730481,1.378278 -1.825211,2.6448 -0.66519,-0.519527 -0.874187,-1.065282 -0.968417,-1.899626 0,0 -1.322794,1.044382 -1.154968,2.868042 0.135224,1.469396 0.714737,2.901596 1.608171,4.261239 -0.662447,0.589524 -1.146227,1.499036 -0.800985,6.33243 0.09445,3.683718 0.89762,7.320483 0.89762,7.320483 0,0 0.283211,0.283271 0.519348,0.141594 0.236132,-0.141682 0.04734,-2.833546 0.09457,-4.014226 0.04723,-1.180681 1.416681,-2.314055 1.605586,-3.164148 0.18891,-0.850089 0.04736,-2.833644 0.33073,-3.022554 0.28336,-0.1889 0.660915,-0.802972 2.361096,-0.09457 1.29904,0.541265 3.313362,0.55831 5.140255,0.536401 1.82689,0.02191 3.841217,0.0049 5.140254,-0.536401 1.700181,-0.708404 2.077736,-0.09433 2.361096,0.09457 0.28337,0.18891 0.14182,2.172465 0.33073,3.022554 0.188905,0.850093 1.558356,1.983467 1.605586,3.164148 0.04723,1.18068 -0.141566,3.872544 0.09457,4.014226 0.236137,0.141677 0.519348,-0.141594 0.519348,-0.141594 0,0 0.80316,-4.695097 0.89762,-8.378817 0.377818,-5.289444 -0.23655,-4.822408 -0.992188,-5.43636 -0.07021,-0.05704 -0.170894,-0.120042 -0.299206,-0.186552 0.14867,-0.521539 0.215092,-1.191092 0.154512,-2.050004 -0.07958,-1.1283 -2.086122,-2.793696 -4.768184,-3.613216 -2.682065,-0.819521 -5.745789,-0.58869 -8.530745,0.595829 -1.778885,0.756608 -3.35245,3.61e-4 -4.060218,-0.744658 -0.707766,-0.745018 -0.260966,-1.71359 -0.260966,-1.71359 z m -1.665531,22.265308 c -0.0426,0.326392 0.01088,1.125587 0.09198,1.798339 0.0483,0.02806 0.462907,5.203743 1.444356,6.981486 0.37099,0.671974 2.991844,2.463896 3.597713,2.799313 1.191789,0.659789 2.376739,1.403915 4.338237,1.353922 1.961508,0.04999 3.146448,-0.694133 4.338236,-1.353922 0.60587,-0.335418 3.226724,-2.127339 3.597714,-2.799313 0.981459,-1.777743 1.396056,-6.953426 1.444356,-6.981486 0.0811,-0.672753 0.134584,-1.471947 0.09198,-1.798339 0,0 -0.971129,3.323149 -3.702616,6.856429 -0.20371,-0.369139 -1.221044,-1.394229 -2.185913,-2.285649 -1.309369,-1.209694 -3.121774,-1.027844 -3.121774,-1.027844 l -0.461987,0.153996 -0.461987,-0.153996 c 0,0 -1.812395,-0.18185 -3.121774,1.027844 -0.964869,0.89142 -1.982203,1.91651 -2.185913,2.285649 -2.731497,-3.53328 -3.702616,-6.856429 -3.702616,-6.856429 z m 8.138005,5.581054 c 0.584389,-0.0061 0.988265,0.20749 1.334285,0.242363 0.527269,-0.05314 1.188785,-0.521003 2.418974,0.0057 0.776089,0.332272 1.589092,0.590912 2.513541,1.769401 0,0 -0.859639,0.88139 -1.635559,1.029395 -0.672289,0.128238 -1.320638,0.993285 -3.296956,0.880049 -1.976308,0.113236 -2.624667,-0.751811 -3.296956,-0.880049 -0.77592,-0.148005 -1.635559,-1.029395 -1.635559,-1.029395 0.924449,-1.178489 1.737452,-1.43713 2.513541,-1.769401 0.42288,-0.181049 0.778579,-0.24484 1.084689,-0.248047 z"
  />
</svg>