<svg
  width="44mm"
  height="72mm"
  viewBox="0 0 44 72"
  version="1.1"
  id="svg1"
  xml:space="preserve"
  xmlns:sodipodi="http://sodipodi.sourceforge.net/DTD/sodipodi-0.dtd"
  xmlns="http://www.w3.org/2000/svg"
  xmlns:svg="http://www.w3.org/2000/svg"
>
  <path
    xmlns="http://www.w3.org/2000/svg"
    style="
      display: inline;
      fill-rule: evenodd;
      stroke: none;
      stroke-width: 0.264583px;
      stroke-linecap: butt;
      stroke-linejoin: miter;
      stroke-opacity: 1;
    "
    id="hair"
    d="m 19.731612,8.3850179 c -0.159496,1.097e-4 -0.248563,0.01602 -0.248563,0.01602 0,0 0.05939,0.059638 0.476456,0.1788005 0.417069,0.1191622 0.477146,0.5358737 1.013375,1.0423136 0.536231,0.506438 0,0.923974 0,0.923974 0,0 -0.238764,0.0594 -0.834574,-0.02997 -0.595813,-0.08937 -0.983084,-0.476876 -1.608688,-0.7152016 -0.625601,-0.238324 -1.608687,0.059945 -1.608687,0.059945 1.058701,0.3587556 1.534077,1.3869556 1.608687,1.8763716 0,0 -0.893504,0.119344 -1.489314,0.02997 -0.595814,-0.08937 -0.566239,-0.387313 -1.221631,-1.191658 -0.655394,-0.8043456 -0.327629,-2.1151169 -0.327629,-2.1151169 0,0 -1.191467,0.9535507 -1.668115,2.4132899 -0.476649,1.459736 -0.0894,2.055172 -0.0894,2.055172 0,0 -0.68543,-0.02935 -1.311031,0.834574 -0.625608,0.863927 -0.05891,3.313493 -0.05891,3.313493 -1.619414,2.211011 -1.484537,4.647281 -1.312581,7.150468 0.0347,1.353467 0.165198,2.699046 0.31626,3.86178 l 0.05078,0.481776 c 0.587745,4.701975 1.879849,12.152594 1.879849,12.152594 0,0 2.387404,2.360271 3.852995,3.126941 1.489598,0.779229 3.389276,1.449508 4.849317,1.423169 1.460039,0.02634 3.359718,-0.64394 4.849316,-1.423169 1.465591,-0.76667 3.852995,-3.126941 3.852995,-3.126941 0,0 1.267649,-6.974905 1.855394,-11.67688 l 0.07523,-0.95749 c 0.151062,-1.162734 0.281554,-2.508313 0.31626,-3.86178 0.09176,-1.383862 0.174032,-7.034246 -0.805119,-7.961788 -0.536228,-0.417069 -1.281059,-0.119373 -1.281059,-0.119373 0,0 0.02949,-0.595609 0.118856,-0.982885 0.08937,-0.387279 0.77463,-1.012859 0.77463,-1.012859 l -1.072286,0.119373 c 0,0 -0.536484,-1.817313 -2.413289,-2.979146 -1.87681,-1.161833 -3.038575,-0.983403 -3.038575,-0.983403 0,0 0.804619,0.834525 1.400432,1.758032 0.595808,0.923508 0.208563,1.668172 0.0894,1.846916 -0.119161,0.178744 -0.327659,0.327612 -0.417029,-0.268201 -0.08937,-0.59581 -0.298192,-1.34063 -0.894002,-1.787487 C 24.815552,11.409782 24.24312,11.185396 22.574846,9.6660773 21.323641,8.5265864 20.2101,8.3846889 19.731612,8.3850179 Z M 15.525667,21.061247 c 0.321761,0.002 0.749849,0.08928 1.334286,0.332796 1.299039,0.541264 3.313363,0.55831 5.140255,0.536401 1.826888,0.02191 3.841219,0.0049 5.140254,-0.536401 1.70018,-0.708403 2.077737,-0.09433 2.361096,0.09457 0.28337,0.18891 0.14182,2.172466 0.33073,3.022554 0.188904,0.850093 1.558356,1.983468 1.605586,3.164148 0.0026,0.06419 0.0039,0.134757 0.0052,0.207223 -0.113546,2.422712 -1.042066,8.227975 -1.312065,9.523966 -0.28774,1.381164 -2.129069,2.416907 -2.129069,2.416907 0,0 -0.748233,-1.841143 -1.55391,-2.819466 -0.793087,-0.963037 -2.367774,-1.479079 -4.44779,-1.494999 -2.080018,0.01592 -3.654704,0.531962 -4.447791,1.494999 -0.805677,0.978323 -1.55391,2.819466 -1.55391,2.819466 0,0 -1.841329,-1.035743 -2.129069,-2.416907 -0.269999,-1.295991 -1.198519,-7.101254 -1.312065,-9.523966 0.0013,-0.07247 0.0026,-0.143036 0.0052,-0.207223 0.04723,-1.18068 1.416682,-2.314055 1.605586,-3.164148 0.18891,-0.850088 0.04736,-2.833644 0.33073,-3.022554 0.185954,-0.123966 0.41254,-0.431112 1.02681,-0.427364 z m 6.474541,16.691487 c 2.567174,0.01224 4.332552,1.157113 4.332552,2.41639 0,1.266065 -3.164665,1.438672 -3.164665,1.438672 l 0.388373,-0.929952 -1.55626,-0.07102 -1.452013,0.0059 0.284125,0.995107 c 0,0 -3.164665,-0.172607 -3.164665,-1.438672 0,-1.259277 1.765377,-2.404146 4.332553,-2.41639 z"
    sodipodi:nodetypes="scsscssccsscscscccccscsccccccsccscsssssscsccssscscscscscccsscscccccscss"
  />
</svg>