<svg width="44mm" height="72mm" viewBox="0 0 44 72" xmlns="http://www.w3.org/2000/svg">
  <path
    d="M23.135 8.266c-.556.015-1.148.949-1.563.857-.427-.095-.855-.713-1.568-.427-.712.285-.617 1.663-1.188 1.14-.57-.523-.902-.903-1.377-.428-.475.475-.428 1.093-.713 1.14-.286.048-1.14-.38-1.52-.142-.38.238-.096.998-.429 1.14-.332.143-1.045-.237-1.425.048-.38.285-.285 1.188-.57 1.33-.285.143-.618-.095-1.045.143-.428.237-.048.665-.19 1.045-.143.38-.19.476-.19.476l-.475.332c-.476.333-.19.856-.096 1.426.095.57.476.475.096.903-.38.427-.666.76-.238 1.758.427.997-.048.855.142 2.66.014.134.033.268.055.402l-.007.026 1.568 6.13s.047.57.19.998c.143.427.523-.333.618-.713.095-.38-.475-2.946-.475-3.992 0-1.045 1.425-1.472 1.425-1.472s-.048-1.901.095-3.042c.143-1.14.807-1.283 1.425-1.33 2.077-.072 3.358.22 6.32.22s4.243-.292 6.32-.22c.618.047 1.283.19 1.426 1.33.142 1.14.095 3.042.095 3.042s1.425.427 1.425 1.472c0 1.046-.57 3.612-.475 3.992.095.38.475 1.14.617.713.143-.428.19-.998.19-.998l1.568-6.13-.015-.052.012-.05c.237-1.092.336-2.369.336-2.986 0-.618.238-1.331-.095-2.091-.332-.76-.57-.665-.285-1.568s-.76-1.14-1.093-1.236c-.333-.095.238-.237.143-1.045-.095-.808-.713-.237-1.093-.38-.38-.142.047-.428-.428-1.093s-1.568-.19-1.948-1.093c-.38-.903-1.52-.19-1.9-.238-.38-.047.237-.19-.38-.95-.619-.76-1.474.095-2.14-.047-.665-.143-.522-.95-1.092-.998a.49.49 0 0 0-.053-.002z"
    id="hair" />
</svg>