<svg
  width="44mm"
  height="72mm"
  viewBox="0 0 44 72"
  version="1.1"
  id="svg1"
  xml:space="preserve"
  xmlns:sodipodi="http://sodipodi.sourceforge.net/DTD/sodipodi-0.dtd"
  xmlns="http://www.w3.org/2000/svg"
  xmlns:svg="http://www.w3.org/2000/svg"
>
  <path
    xmlns="http://www.w3.org/2000/svg"
    style="display: inline; stroke-width: 1"
    d="m 22.071521,4.6482951 c -0.206509,0 -0.413034,0.1114941 -0.791166,0.3348633 -0.618907,0.3655958 -0.861154,0.3976825 -1.11156,0.1472778 -0.4494,-0.4493993 -1.407434,-0.3981434 -1.818494,0.097152 C 18.103745,5.524669 17.755969,5.5981276 17.141589,5.4828695 16.460636,5.3551219 16.222636,5.4269063 16.009875,5.8244507 15.82439,6.1710391 15.542784,6.290144 15.107088,6.2068563 14.651579,6.1197795 14.322823,6.2782083 13.935067,6.7711629 13.634029,7.1538685 13.1211,7.4599606 12.772864,7.4646606 c -0.846387,0.011425 -1.54926,0.5910046 -1.54926,1.2774415 0,0.4458048 -0.160185,0.5658569 -0.752925,0.5658569 -0.8712873,0 -1.7012361,0.785809 -1.5797488,1.495516 0.062088,0.362705 -0.104064,0.510465 -0.6438884,0.572575 -0.8933624,0.102791 -1.3488181,0.880636 -1.1213786,1.916162 0.1301503,0.592569 0.076202,0.778247 -0.2273763,0.778247 -0.7433561,0 -1.5006016,1.276018 -1.210262,2.039669 0.1421338,0.373838 0.2254536,0.699093 0.1850016,0.722953 -1.6104627,0.949966 -1.9992642,1.808922 -1.1415324,2.520776 0.3350346,0.278054 0.5478398,0.699461 -0.1881022,1.099158 -0.3687798,0.200289 -0.7727758,0.91935 -0.2785359,1.837097 0.3810057,0.707488 0.626832,0.864032 0.3896403,1.101225 -0.4390867,0.439088 -0.3845522,1.400472 0.1023193,1.804541 0.3043803,0.252614 0.3683161,0.604145 0.2439128,1.340487 -0.1403312,0.830611 -0.076344,1.055153 0.381372,1.341003 0.3240899,0.202399 0.5498373,0.62147 0.5498373,1.02061 0,0.765577 0.4411169,1.329667 0.9017537,1.152901 0.1708908,-0.06558 0.4212956,0.267604 0.5627564,0.748275 0.1972798,0.670335 0.4199973,0.885051 0.9828857,0.949812 0.501662,0.05772 0.7276042,0.236319 0.7276042,0.574126 0,0.987565 0.3069871,1.326534 1.2004433,1.326534 0.706157,0 0.895866,0.115545 0.963766,0.586527 0.05794,0.401928 0.355341,0.663716 0.944645,0.831991 0.186849,0.05335 0.341497,0.117439 0.468705,0.189652 -0.05393,-0.373871 -0.108367,-0.749361 -0.164331,-1.148767 -0.0065,-0.04668 -0.0131,-0.09515 -0.01964,-0.14211 -1.952998,-0.411465 -3.4390715,-4.611237 -2.172477,-6.544303 0.411371,-0.627838 1.15895,-0.81117 1.689302,-0.540536 0.108942,0.594423 0.213081,1.02128 0.351917,0.971517 0.64598,-0.303854 0.703959,-1.15176 0.702283,-1.755449 0.07931,-0.72825 0.978179,-1.017428 1.088305,-1.994193 -0.0082,-1.081261 -0.03009,-1.642058 0.127641,-2.714563 0.05482,-0.417773 0.316347,-0.799699 0.68833,-0.980819 0.09702,-0.03697 0.204756,-0.07052 0.325562,-0.09973 0.01003,-0.0014 0.01985,-0.0035 0.02997,-0.0047 1.114303,-0.128633 2.240627,-0.01028 3.356384,0.05219 2.439351,0.190012 4.891177,0.149324 7.328752,-0.04651 0.900646,-0.0389 1.814131,-0.127676 2.709912,0.0057 0.573705,0.08177 0.951364,0.622168 1.004073,1.172538 0.1321,1.042261 0.109044,1.871587 0.110071,2.615861 7.64e-4,0.553689 0.833852,0.848808 1.180806,1.336869 0.0591,0.140535 0.107565,0.286776 0.148828,0.438733 -0.06314,1.231552 0.04656,0.37564 0.347783,1.862419 0.388703,1.023706 0.465901,0.02674 0.540535,-0.830957 1.219104,-0.997528 2.408488,0.969104 2.048454,3.586861 -0.237156,1.724325 -1.681633,3.35764 -2.732052,3.566366 -0.04409,0.313777 -0.07875,0.74486 -0.12173,1.043152 0.117981,-0.06726 0.346374,-0.134857 0.511806,-0.134857 0.418245,0 0.737831,-0.221439 0.931726,-0.646989 0.204644,-0.449143 0.546478,-0.671944 1.117245,-0.727604 0.683091,-0.06661 0.845717,-0.215299 0.957564,-0.874365 0.107627,-0.634188 0.284822,-0.810536 0.8816,-0.879016 0.540736,-0.06205 0.817893,-0.289655 1.004073,-0.823722 0.141443,-0.405746 0.548811,-0.870556 0.905371,-1.033012 0.447061,-0.203695 0.648539,-0.510082 0.648539,-0.986503 0,-0.397142 0.253101,-0.895772 0.595313,-1.173055 0.52093,-0.422097 0.558948,-0.578948 0.304374,-1.254704 -0.255299,-0.67769 -0.214802,-0.840099 0.330729,-1.326017 0.728647,-0.649026 0.787185,-1.183755 0.194304,-1.776636 -0.393451,-0.39345 -0.393451,-0.46493 0,-0.899687 0.579844,-0.640722 0.538177,-1.703694 -0.08888,-2.271179 -0.472823,-0.427902 -0.482549,-0.518636 -0.113688,-1.081588 0.467437,-0.7134 0.180616,-1.505041 -0.719853,-1.986959 -0.298989,-0.160014 -0.490927,-0.430772 -0.426847,-0.601513 0.467688,-1.246202 0.454331,-1.479506 -0.114205,-2.00918 -0.324663,-0.302468 -0.81028,-0.550354 -1.079004,-0.550354 -0.41384,0 -0.443285,-0.08436 -0.192236,-0.553455 0.473906,-0.885505 0.09414,-1.819303 -0.813904,-2.000911 -0.650915,-0.130184 -0.786515,-0.2873 -0.786515,-0.908989 0,-0.8342994 -0.609478,-1.299145 -1.702739,-1.299145 -0.483452,0 -0.678511,-0.1401766 -0.678511,-0.4878255 0,-0.6723333 -0.895329,-1.423127 -1.571997,-1.3182658 C 30.964906,7.5611364 30.683301,7.379295 30.455505,6.926709 30.21188,6.4426683 29.902518,6.2612747 29.302604,6.249231 28.851717,6.2401799 28.282139,6.0318199 28.036532,5.7862101 27.505486,5.2551654 27.063903,5.2192153 26.596826,5.6699382 26.320923,5.9361793 26.175259,5.8845892 25.850102,5.4053548 25.410566,4.757549 24.482464,4.6217035 23.97373,5.1304362 23.723327,5.3808409 23.481594,5.3487542 22.862687,4.9831584 22.484555,4.7597892 22.27803,4.6482951 22.071521,4.6482951 Z"
    sodipodi:nodetypes="ssssscsssssscssscssssssssssssssscccsccccccccccccsccccsccsssssssssssssssscssssssscssssssss"
    id="hair"
  />
</svg>