<?xml version="1.0" encoding="UTF-8" standalone="no"?>
<!-- Created with Inkscape (http://www.inkscape.org/) -->

<svg
   width="320"
   height="320"
   viewBox="0 0 84.666667 84.666667"
   version="1.1"
   id="svg5"
   xml:space="preserve"
   xmlns="http://www.w3.org/2000/svg"
   xmlns:svg="http://www.w3.org/2000/svg"><defs
     id="defs2" /><g
     id="layer1"
     transform="translate(-45.682293,-14.194784)"><path
       id="path354"
       style="color:#000000;overflow:visible;opacity:1;fill:#000000;fill-opacity:1;fill-rule:evenodd;stroke-width:0;paint-order:fill markers stroke;stop-color:#000000"
       d="M 88.016143 19.07769 C 81.73276 19.077691 76.639061 24.171391 76.63906 30.454774 C 76.63906 36.738157 81.732759 41.831856 88.016143 41.831857 C 94.299527 41.831856 99.393226 36.738157 99.393226 30.454774 C 99.393226 24.171391 94.299526 19.077691 88.016143 19.07769 z M 63.66104 25.380148 C 59.147639 25.380148 55.488929 29.1348 55.488929 33.766199 C 55.488929 38.3976 59.147639 42.151734 63.66104 42.151734 C 68.174442 42.151733 71.833151 38.3976 71.833151 33.766199 C 71.833151 29.1348 68.174442 25.380149 63.66104 25.380148 z M 112.3697 25.380148 C 107.8563 25.380149 104.19758 29.1348 104.19758 33.766199 C 104.19758 38.3976 107.8563 42.151733 112.3697 42.151734 C 116.8831 42.151734 120.54232 38.3976 120.54232 33.766199 C 120.54232 29.1348 116.8831 25.380148 112.3697 25.380148 z M 78.312859 45.107626 C 73.731981 45.107626 70.044113 48.795492 70.044113 53.376372 L 70.044113 71.453821 C 70.044113 71.671593 70.304945 72.534579 71.112265 72.7509 L 76.671099 74.099655 C 76.661799 74.104055 76.652544 74.108671 76.643194 74.113091 L 78.230694 92.188473 C 78.317444 93.176253 79.029184 93.978545 80.020765 93.978545 L 96.129343 93.978545 C 97.120925 93.978545 97.919415 93.180055 97.919415 92.188473 L 99.371522 74.106373 C 99.360822 74.102073 104.59394 72.735914 104.59394 72.735914 C 105.08829 72.603453 105.98714 71.916853 105.98714 70.990284 L 105.98714 53.376372 C 105.98714 48.795492 102.29927 45.107626 97.718393 45.107626 L 78.312859 45.107626 z M 58.993625 45.157235 C 53.729743 45.157235 50.751751 49.140757 50.751751 53.276636 L 50.751751 68.479843 C 50.751751 68.640359 50.938726 69.276409 51.518629 69.435857 L 55.502365 70.70348 C 55.495665 70.70668 57.223191 87.735515 57.223191 87.735515 C 57.2855 88.463594 57.796641 89.054814 58.5089 89.054814 L 69.489109 89.054814 C 70.201368 89.054814 70.774818 88.466397 70.774818 87.735515 L 71.493637 76.133122 L 70.465793 75.883525 A 3.2242866 3.2242866 0 0 1 70.391896 75.863888 C 69.037115 75.500878 68.115694 74.560433 67.643743 73.79373 C 67.171793 73.027028 66.932675 72.850867 66.932675 71.453821 L 66.932675 53.375338 C 66.932675 50.165036 68.275638 47.249454 70.423935 45.157235 L 58.993625 45.157235 z M 105.6068 45.157235 C 107.75511 47.249454 109.09858 50.165036 109.09858 53.375338 L 109.09858 71.453821 C 109.09858 72.850867 108.85894 73.027028 108.38699 73.79373 C 107.91504 74.560433 106.99414 75.500878 105.63936 75.863888 A 3.2242866 3.2242866 0 0 1 105.56494 75.883525 L 104.5371 76.133122 L 105.25592 87.735515 C 105.25592 88.466397 105.82937 89.054814 106.54163 89.054814 L 117.52235 89.054814 C 118.23461 89.054814 118.74576 88.463594 118.80806 87.735515 C 118.80806 87.735515 120.53589 70.70668 120.52889 70.70348 L 124.51262 69.435857 C 125.09253 69.276409 125.2795 68.640359 125.2795 68.479843 L 125.2795 53.276636 C 125.2795 49.140757 122.30151 45.157235 117.03763 45.157235 L 105.6068 45.157235 z " /><rect
       style="color:#000000;display:none;overflow:visible;opacity:0.75;fill:#00ff00;fill-opacity:1;fill-rule:evenodd;stroke-width:0;paint-order:fill markers stroke;stop-color:#000000"
       id="rect2888"
       width="49.400246"
       height="110.01698"
       x="88.015625"
       y="1.5464112"
       ry="1.7898641" /></g></svg>
