<?xml version="1.0" encoding="UTF-8" standalone="no"?>
<!-- Created with Inkscape (http://www.inkscape.org/) -->

<svg
   width="320"
   height="320"
   viewBox="0 0 84.666667 84.666667"
   version="1.1"
   id="svg5"
   xml:space="preserve"
   xmlns="http://www.w3.org/2000/svg"
   xmlns:svg="http://www.w3.org/2000/svg"><defs
     id="defs2" /><g
     id="layer1"
     transform="translate(-45.682293,-14.194784)"><rect
       style="color:#000000;display:none;overflow:visible;opacity:0.75;fill:#00ff00;fill-opacity:1;fill-rule:evenodd;stroke-width:0;paint-order:fill markers stroke;stop-color:#000000"
       id="rect2888"
       width="49.400246"
       height="110.01698"
       x="88.015625"
       y="1.5464112"
       ry="1.7898641" /><path
       id="path468"
       style="color:#000000;overflow:visible;opacity:1;fill:#000000;fill-opacity:1;fill-rule:evenodd;stroke:none;stroke-width:0;paint-order:fill markers stroke;stop-color:#000000"
       d="m 88.015366,18.284715 c -4.547343,-1.28e-4 -8.233734,3.686262 -8.233606,8.233606 1.58e-4,4.547141 3.686465,8.233217 8.233606,8.233089 4.547142,1.28e-4 8.233448,-3.685948 8.233606,-8.233089 1.28e-4,-4.547344 -3.686262,-8.233734 -8.233606,-8.233606 z m -7.99486,19.808093 c -3.966325,0 -7.159253,3.192931 -7.159253,7.159253 V 56.429673 H 103.16948 V 45.252061 c 0,-3.966322 -3.192918,-7.159253 -7.159253,-7.159253 H 94.848541 L 88.015366,44.84175 81.266424,38.092808 Z M 61.416473,59.804661 c -0.964201,0 -1.740462,0.77626 -1.740462,1.740462 0,0.964201 0.776261,1.740463 1.740462,1.740463 h 3.271118 v 29.681392 c 0,0.999838 0.80522,1.804541 1.805058,1.804541 H 109.5386 c 0.99983,0 1.80506,-0.804703 1.80506,-1.804541 V 63.285586 h 3.27111 c 0.9642,0 1.74047,-0.776262 1.74047,-1.740463 0,-0.964202 -0.77627,-1.740462 -1.74047,-1.740462 z" /></g></svg>
