<?xml version="1.0" encoding="UTF-8" standalone="no"?>

<svg
  width="165.99754mm"
  height="165.99754mm"
  viewBox="0 0 165.99754 165.99754"
  version="1.1"
  id="svg5"
  xmlns="http://www.w3.org/2000/svg">
  <defs
    id="defs2" />
  <g
    id="layer1"
    transform="translate(-13.343842,-25.555969)">
    <circle
      style="color:#000000;overflow:visible;opacity:1;fill:#094067;fill-opacity:1;fill-rule:evenodd;stroke-width:0;paint-order:fill markers stroke;stop-color:#000000"
      id="path7490"
      cx="96.342613"
      cy="108.55474"
      r="82.998772" />
    <path
      id="rect352"
      style="color:#000000;overflow:visible;opacity:1;fill:#f8f6f7;fill-opacity:1;fill-rule:evenodd;stroke-width:0;paint-order:fill markers stroke;stop-color:#000000"
      d="m 77.058346,48.940682 v 23.385136 h 7.138582 c 0.0092,-1.383703 1.125537,-2.494938 2.511475,-2.494938 H 105.2375 c 1.38594,0 2.50232,1.111235 2.51148,2.494938 h 7.1391 V 48.940682 Z m 9.650057,9.185486 h 18.529617 c 1.39166,0 2.51199,1.120334 2.51199,2.511991 0,1.391657 -1.12033,2.511992 -2.51199,2.511992 H 86.708403 c -1.391658,0 -2.511992,-1.120335 -2.511992,-2.511992 0,-1.391657 1.120334,-2.511991 2.511992,-2.511991 z" />
    <path
      id="rect354"
      style="color:#000000;overflow:visible;opacity:1;fill:#f8f6f7;fill-opacity:1;fill-rule:evenodd;stroke-width:0;paint-order:fill markers stroke;stop-color:#000000"
      d="M 40.99078,78.722504 V 90.69989 H 150.95565 V 78.344333 L 135.7002,66.827962 h -14.27867 v 5.505607 c 0,0.04523 -0.004,0.08923 -0.007,0.133842 h 5.04259 c 1.35798,0 2.45153,1.093033 2.45153,2.451013 0,1.357981 -1.09355,2.45153 -2.45153,2.45153 H 65.488509 c -1.35798,0 -2.451014,-1.093549 -2.451014,-2.45153 0,-1.35798 1.093034,-2.451013 2.451014,-2.451013 h 5.043103 c -0.0024,-0.04461 -0.0067,-0.08861 -0.0067,-0.133842 V 66.827962 H 56.158327 Z" />
    <path
      id="rect356"
      style="color:#000000;overflow:visible;opacity:1;fill:#f8f6f7;fill-opacity:1;fill-rule:evenodd;stroke-width:0;paint-order:fill markers stroke;stop-color:#000000"
      d="M 47.982601,98.724207 V 157.45396 H 143.96382 V 98.724207 Z m 27.733708,4.405933 a 3.8447337,3.8447337 0 0 1 3.844726,3.84524 3.8447337,3.8447337 0 0 1 -1.869653,3.29644 v 12.5858 c 0,0.89479 -0.720101,1.61489 -1.614889,1.61489 H 58.557666 c -0.894788,0 -1.614888,-0.7201 -1.614888,-1.61489 V 107.0653 c 0,-0.89479 0.7201,-1.61541 1.614888,-1.61541 h 13.632243 a 3.8447337,3.8447337 0 0 1 3.5264,-2.31975 z m 27.721301,0 a 3.8447337,3.8447337 0 0 1 3.84473,3.84524 3.8447337,3.8447337 0 0 1 -1.86965,3.29644 v 12.5858 c 0,0.89479 -0.7201,1.61489 -1.61489,1.61489 H 86.278971 c -0.894788,0 -1.614888,-0.7201 -1.614888,-1.61489 V 107.0653 c 0,-0.89479 0.7201,-1.61541 1.614888,-1.61541 h 13.632243 a 3.8447337,3.8447337 0 0 1 3.526396,-2.31975 z m 27.72131,0 a 3.8447337,3.8447337 0 0 1 3.84473,3.84524 3.8447337,3.8447337 0 0 1 -1.86966,3.29644 v 12.5858 c 0,0.89479 -0.7201,1.61489 -1.61489,1.61489 h -17.51882 c -0.89479,0 -1.61489,-0.7201 -1.61489,-1.61489 V 107.0653 c 0,-0.89479 0.7201,-1.61541 1.61489,-1.61541 h 13.63224 a 3.8447337,3.8447337 0 0 1 3.5264,-2.31975 z m -55.442611,25.4 a 3.8447337,3.8447337 0 0 1 3.844726,3.84524 3.8447337,3.8447337 0 0 1 -1.869653,3.29644 v 12.5858 c 0,0.89479 -0.720101,1.61489 -1.614889,1.61489 H 58.557666 c -0.894788,0 -1.614888,-0.7201 -1.614888,-1.61489 V 132.4653 c 0,-0.89479 0.7201,-1.61541 1.614888,-1.61541 h 13.632243 a 3.8447337,3.8447337 0 0 1 3.5264,-2.31975 z m 27.721301,0 a 3.8447337,3.8447337 0 0 1 3.84473,3.84524 3.8447337,3.8447337 0 0 1 -1.86965,3.29644 v 12.5858 c 0,0.89479 -0.7201,1.61489 -1.61489,1.61489 H 86.278971 c -0.894788,0 -1.614888,-0.7201 -1.614888,-1.61489 V 132.4653 c 0,-0.89479 0.7201,-1.61541 1.614888,-1.61541 h 13.632243 a 3.8447337,3.8447337 0 0 1 3.526396,-2.31975 z m 27.72131,0 a 3.8447337,3.8447337 0 0 1 3.84473,3.84524 3.8447337,3.8447337 0 0 1 -1.86966,3.29644 v 12.5858 c 0,0.89479 -0.7201,1.61489 -1.61489,1.61489 h -17.51882 c -0.89479,0 -1.61489,-0.7201 -1.61489,-1.61489 V 132.4653 c 0,-0.89479 0.7201,-1.61541 1.61489,-1.61541 h 13.63224 a 3.8447337,3.8447337 0 0 1 3.5264,-2.31975 z" />
    <rect
      style="color:#000000;overflow:visible;opacity:1;fill:#b3b3b3;fill-rule:evenodd;stroke-width:0;paint-order:fill markers stroke;stop-color:#000000"
      id="rect738"
      width="95.981468"
      height="3.0126917"
      x="47.982479"
      y="95.711449" />
    <path
      style="color:#000000;overflow:visible;opacity:1;fill:#aa1634;fill-opacity:1;fill-rule:evenodd;stroke-width:0;paint-order:fill markers stroke;stop-color:#000000"
      d="m 99.885892,108.44269 a 3.8447337,3.8447337 0 0 0 2.714558,2.28462 l -6.617161,7.64088 c -0.596657,0.708 -1.647396,0.79768 -2.355412,0.20102 l -4.935616,-4.15944 2.139921,-2.53886 3.503662,2.95279 z"
      id="path878" />
    <path
      style="color:#000000;overflow:visible;opacity:1;fill:#f8f6f7;fill-opacity:1;fill-rule:evenodd;stroke-width:0;paint-order:fill markers stroke;stop-color:#000000"
      d="m 127.60708,108.44269 a 3.8447337,3.8447337 0 0 0 2.71456,2.28462 l -6.61716,7.64088 c -0.59666,0.708 -1.6474,0.79768 -2.35541,0.20102 l -4.93562,-4.15944 2.13992,-2.53886 3.50366,2.95279 z"
      id="path874" />
    <path
      style="color:#000000;overflow:visible;opacity:1;fill:#f8f6f7;fill-opacity:1;fill-rule:evenodd;stroke-width:0;paint-order:fill markers stroke;stop-color:#000000"
      d="m 99.885892,133.8427 a 3.8447337,3.8447337 0 0 0 2.714558,2.28462 l -6.617161,7.64088 c -0.596657,0.708 -1.647396,0.79768 -2.355412,0.20102 l -4.935616,-4.15944 2.139921,-2.53886 3.503662,2.95279 z"
      id="path866" />
    <path
      style="color:#000000;overflow:visible;opacity:1;fill:#0098fa;fill-opacity:1;fill-rule:evenodd;stroke-width:0;paint-order:fill markers stroke;stop-color:#000000"
      d="m 127.60708,133.8427 a 3.8447337,3.8447337 0 0 0 2.71456,2.28462 l -6.61716,7.64088 c -0.59666,0.708 -1.6474,0.79768 -2.35541,0.20102 l -4.93562,-4.15944 2.13992,-2.53886 3.50366,2.95279 z"
      id="path862" />
    <path
      style="color:#000000;overflow:visible;opacity:1;fill:#aa1634;fill-opacity:1;fill-rule:evenodd;stroke-width:0;paint-order:fill markers stroke;stop-color:#000000"
      d="m 72.164705,133.8427 a 3.8447337,3.8447337 0 0 0 2.71456,2.28462 l -6.61716,7.64088 c -0.59666,0.708 -1.6474,0.79768 -2.35541,0.20102 l -4.93562,-4.15944 2.13992,-2.53886 3.50366,2.95279 z"
      id="path858" />
    <path
      style="color:#000000;overflow:visible;opacity:1;fill:#0098fa;fill-opacity:1;fill-rule:evenodd;stroke-width:0;paint-order:fill markers stroke;stop-color:#000000"
      d="m 72.164705,108.44269 a 3.8447337,3.8447337 0 0 0 2.71456,2.28462 l -6.61716,7.64088 c -0.59666,0.708 -1.6474,0.79768 -2.35541,0.20102 l -4.93562,-4.15944 2.13992,-2.53886 3.50366,2.95279 z"
      id="path870" />
  </g>
</svg>