<svg xmlns="http://www.w3.org/2000/svg" xml:space="preserve" width="256" height="256" viewBox="0 0 67.733 67.733"><defs><marker id="a" markerHeight="3.843" markerWidth="3.324" orient="auto-start-reverse" preserveAspectRatio="xMidYMid" refX="0" refY="0" style="overflow:visible" viewBox="0 0 5.324 6.155"><path d="m5.77 0-8.65 5V-5Z" style="fill:context-stroke;fill-rule:evenodd;stroke:context-stroke;stroke-width:1pt" transform="scale(.5)"/></marker><marker id="b" markerHeight="2.687" markerWidth="2.324" orient="auto-start-reverse" preserveAspectRatio="xMidYMid" refX="0" refY="0" style="overflow:visible" viewBox="0 0 5.324 6.155"><path d="m5.77 0-8.65 5V-5Z" style="fill:context-stroke;fill-rule:evenodd;stroke:context-stroke;stroke-width:1pt" transform="scale(.5)"/></marker><marker id="c" markerHeight="2.313" markerWidth="2.001" orient="auto-start-reverse" overflow="visible" preserveAspectRatio="xMidYMid" viewBox="0 0 5.324 6.155"><path fill="context-stroke" fill-rule="evenodd" stroke="context-stroke" stroke-width=".5pt" d="M2.885 0-1.44 2.5v-5z"/></marker><marker id="d" markerHeight="3.843" markerWidth="3.324" orient="auto-start-reverse" preserveAspectRatio="xMidYMid" refX="0" refY="0" style="overflow:visible" viewBox="0 0 5.324 6.155"><path d="m5.77 0-8.65 5V-5Z" style="fill:context-stroke;fill-rule:evenodd;stroke:context-stroke;stroke-width:1pt" transform="scale(.5)"/></marker><marker id="e" markerHeight="2.687" markerWidth="2.324" orient="auto-start-reverse" preserveAspectRatio="xMidYMid" refX="0" refY="0" style="overflow:visible" viewBox="0 0 5.324 6.155"><path d="m5.77 0-8.65 5V-5Z" style="fill:context-stroke;fill-rule:evenodd;stroke:context-stroke;stroke-width:1pt" transform="scale(.5)"/></marker><marker id="f" markerHeight="2.687" markerWidth="2.324" orient="auto-start-reverse" preserveAspectRatio="xMidYMid" refX="0" refY="0" style="overflow:visible" viewBox="0 0 5.324 6.155"><path d="m5.77 0-8.65 5V-5Z" style="fill:context-stroke;fill-rule:evenodd;stroke:context-stroke;stroke-width:1pt" transform="scale(.5)"/></marker><marker id="g" markerHeight="2.687" markerWidth="2.324" orient="auto-start-reverse" preserveAspectRatio="xMidYMid" refX="0" refY="0" style="overflow:visible" viewBox="0 0 5.324 6.155"><path d="m5.77 0-8.65 5V-5Z" style="fill:context-stroke;fill-rule:evenodd;stroke:context-stroke;stroke-width:1pt" transform="scale(.5)"/></marker><marker id="h" markerHeight="2.313" markerWidth="2.001" orient="auto-start-reverse" overflow="visible" preserveAspectRatio="xMidYMid" viewBox="0 0 5.324 6.155"><path fill="context-stroke" fill-rule="evenodd" stroke="context-stroke" stroke-width=".5pt" d="M2.885 0-1.44 2.5v-5z"/></marker></defs><g transform="translate(0 1.016)"><circle cx="33.867" cy="-36.526" r="5" style="color:#000;overflow:visible;fill:#30a030;fill-opacity:1;fill-rule:evenodd;stroke:none;stroke-width:.25;paint-order:fill markers stroke;stop-color:#000" transform="scale(1 -1)"/><circle cx="33.981" cy="-13.679" r="2.5" style="color:#000;overflow:visible;fill:#9fff39;fill-opacity:1;fill-rule:evenodd;stroke:none;stroke-width:.25;paint-order:fill markers stroke;stop-color:#000" transform="scale(1 -1)"/><path d="M32.607 30.861v-11.68" style="fill:none;fill-rule:evenodd;stroke:#1a1a1a;stroke-width:1;stroke-linecap:butt;stroke-linejoin:miter;stroke-dasharray:none;stroke-opacity:1;marker-end:url(#a)"/><path d="M35.169 16.988v12.975" style="fill:none;fill-rule:evenodd;stroke:#1a1a1a;stroke-width:.5;stroke-linecap:butt;stroke-linejoin:miter;stroke-opacity:1;marker-end:url(#a)"/></g><circle cx="6.05" cy="34.773" r="2.5" style="color:#000;overflow:visible;fill:#ff2400;fill-opacity:1;fill-rule:evenodd;stroke:none;stroke-width:.25;paint-order:fill markers stroke;stop-color:#000"/><circle cx="18.898" cy="39.444" r="5" style="color:#000;overflow:visible;fill:#ff7100;fill-opacity:1;fill-rule:evenodd;stroke:none;stroke-width:.25;paint-order:fill markers stroke;stop-color:#000"/><circle cx="28.586" cy="52.731" r="2.5" style="color:#000;overflow:visible;fill:#862cff;fill-opacity:1;fill-rule:evenodd;stroke:none;stroke-width:.25;paint-order:fill markers stroke;stop-color:#000"/><path d="m14.539 26.037 1.874 5.698" style="fill:none;fill-rule:evenodd;stroke:#1a1a1a;stroke-width:1;stroke-linecap:butt;stroke-linejoin:miter;stroke-dasharray:none;stroke-opacity:1;marker-end:url(#a)"/><path d="m6.656 31.424 1.986-5.525" style="fill:none;fill-rule:evenodd;stroke:#1a1a1a;stroke-width:.5;stroke-linecap:butt;stroke-linejoin:miter;stroke-opacity:1;marker-end:url(#a)"/><path d="m26.426 50.244-4.058-5.353" style="fill:none;fill-rule:evenodd;stroke:#1a1a1a;stroke-width:.5;stroke-linecap:butt;stroke-linejoin:miter;stroke-opacity:1;marker-end:url(#a)"/><circle cx="12.84" cy="14.827" r="10" style="color:#000;overflow:visible;fill:#c31600;fill-opacity:1;fill-rule:evenodd;stroke:none;stroke-width:.25;paint-order:fill markers stroke;stop-color:#000"/><circle cx="-61.684" cy="34.773" r="2.5" style="color:#000;overflow:visible;fill:#ffae42;fill-opacity:1;fill-rule:evenodd;stroke:none;stroke-width:.25;paint-order:fill markers stroke;stop-color:#000" transform="scale(-1 1)"/><circle cx="-54.894" cy="14.827" r="10" style="color:#000;overflow:visible;fill:#094067;fill-opacity:1;fill-rule:evenodd;stroke:none;stroke-width:.25;paint-order:fill markers stroke;stop-color:#000" transform="scale(-1 1)"/><circle cx="-48.835" cy="39.444" r="5" style="color:#000;overflow:visible;fill:#652265;fill-opacity:1;fill-rule:evenodd;stroke:none;stroke-width:.25;paint-order:fill markers stroke;stop-color:#000" transform="scale(-1 1)"/><circle cx="-39.147" cy="52.731" r="2.5" style="color:#000;overflow:visible;fill:teal;fill-opacity:1;fill-rule:evenodd;stroke:none;stroke-width:.25;paint-order:fill markers stroke;stop-color:#000" transform="scale(-1 1)"/><path d="m53.194 26.037-1.874 5.697" style="fill:none;fill-rule:evenodd;stroke:#1a1a1a;stroke-width:1;stroke-linecap:butt;stroke-linejoin:miter;stroke-dasharray:none;stroke-opacity:1;marker-end:url(#a)"/><path d="m61.077 31.424-1.986-5.525" style="fill:none;fill-rule:evenodd;stroke:#1a1a1a;stroke-width:.5;stroke-linecap:butt;stroke-linejoin:miter;stroke-opacity:1;marker-end:url(#a)"/><path d="m40.962 50.157 4.317-5.007" style="fill:none;fill-rule:evenodd;stroke:#1a1a1a;stroke-width:.5;stroke-linecap:butt;stroke-linejoin:miter;stroke-opacity:1;marker-end:url(#a)"/><circle cx="41.996" cy="61.1" r="2.5" style="color:#000;overflow:visible;fill:#fd5;fill-opacity:1;fill-rule:evenodd;stroke:none;stroke-width:.25;paint-order:fill markers stroke;stop-color:#000"/><circle cx="25.737" cy="61.1" r="2.5" style="color:#000;overflow:visible;fill:#d60a72;fill-opacity:1;fill-rule:evenodd;stroke:none;stroke-width:.25;paint-order:fill markers stroke;stop-color:#000"/><path d="M28.988 61.1h8.979" style="fill:none;fill-rule:evenodd;stroke:#1a1a1a;stroke-width:.5;stroke-linecap:butt;stroke-linejoin:miter;stroke-opacity:1;marker-end:url(#a)"/><circle cx="111.599" cy="-37.542" r="5" style="color:#000;overflow:visible;fill:#30a030;fill-opacity:1;fill-rule:evenodd;stroke:none;stroke-width:.25;paint-order:fill markers stroke;stop-color:#000" transform="scale(1 -1)"/><circle cx="-132.627" cy="14.827" r="10" style="color:#000;overflow:visible;fill:#094067;fill-opacity:1;fill-rule:evenodd;stroke:none;stroke-width:.25;paint-order:fill markers stroke;stop-color:#000" transform="scale(-1 1)"/><circle cx="-132.836" cy="53.447" r="5" style="color:#000;overflow:visible;fill:#652265;fill-opacity:1;fill-rule:evenodd;stroke:none;stroke-width:.25;paint-order:fill markers stroke;stop-color:#000" transform="scale(-1 1)"/><path d="M132.836 27.321v17.563" style="fill:none;fill-rule:evenodd;stroke:#1a1a1a;stroke-width:1.5;stroke-linecap:butt;stroke-linejoin:miter;stroke-dasharray:none;stroke-opacity:1;marker-end:url(#b)"/><circle cx="-90.573" cy="14.827" r="10" style="color:#000;overflow:visible;fill:#c31600;fill-opacity:1;fill-rule:evenodd;stroke:none;stroke-width:.25;paint-order:fill markers stroke;stop-color:#000" transform="scale(-1 1)"/><circle cx="-90.362" cy="53.447" r="5" style="color:#000;overflow:visible;fill:#ff7100;fill-opacity:1;fill-rule:evenodd;stroke:none;stroke-width:.25;paint-order:fill markers stroke;stop-color:#000" transform="scale(-1 1)"/><path d="M90.362 26.791v18.271" style="fill:none;fill-rule:evenodd;stroke:#1a1a1a;stroke-width:1.5;stroke-linecap:butt;stroke-linejoin:miter;stroke-dasharray:none;stroke-opacity:1;marker-end:url(#b)"/><path d="m117.92 40.227 8.078 6.591" style="fill:none;fill-rule:evenodd;stroke:#1a1a1a;stroke-width:1.5;stroke-linecap:butt;stroke-linejoin:miter;stroke-dasharray:none;stroke-opacity:1;marker-end:url(#b)"/><path d="m95.83 48.146 7.956-6.215" style="fill:none;fill-rule:evenodd;stroke:#1a1a1a;stroke-width:1.5;stroke-linecap:butt;stroke-linejoin:miter;stroke-dasharray:none;stroke-opacity:1;marker-end:url(#b)"/><path d="m125.453 53.286-25.862-.308" style="font-variation-settings:normal;vector-effect:none;fill:none;fill-opacity:1;fill-rule:evenodd;stroke:#1a1a1a;stroke-width:1.5;stroke-linecap:butt;stroke-linejoin:miter;stroke-miterlimit:4;stroke-dasharray:none;stroke-dashoffset:0;stroke-opacity:1;-inkscape-stroke:none;marker-end:url(#b);stop-color:#000"/><path d="m97.205 23.152 9.43 9.43" style="fill:none;fill-rule:evenodd;stroke:#1a1a1a;stroke-width:.449792;stroke-linecap:butt;stroke-linejoin:miter;stroke-dasharray:none;stroke-opacity:1;marker-end:url(#b)"/><path d="m126.135 23.749-8.584 9.217" style="fill:none;fill-rule:evenodd;stroke:#1a1a1a;stroke-width:.449792;stroke-linecap:butt;stroke-linejoin:miter;stroke-dasharray:none;stroke-opacity:1;marker-end:url(#b)"/><circle cx="189.332" cy="59.17" r="5" fill="#30a030" fill-rule="evenodd" color="#000" style="stroke:none;paint-order:fill markers stroke"/><circle cx="-210.36" cy="14.827" r="10" fill="#073983" fill-rule="evenodd" color="#000" style="stroke:none;paint-order:fill markers stroke;fill:#094067;fill-opacity:1" transform="scale(-1 1)"/><circle cx="-210.569" cy="42.7" r="5" fill="#650065" fill-rule="evenodd" color="#000" style="fill:#652265;fill-opacity:1;stroke:none;paint-order:fill markers stroke" transform="scale(-1 1)"/><circle cx="-168.306" cy="14.827" r="10" fill="#d00000" fill-rule="evenodd" color="#000" style="stroke:none;paint-order:fill markers stroke;fill:#c31600;fill-opacity:1" transform="scale(-1 1)"/><circle cx="-168.095" cy="42.7" r="5" fill="#f80" fill-rule="evenodd" color="#000" style="fill:#ff7100;fill-opacity:1;stroke:none;paint-order:fill markers stroke" transform="scale(-1 1)"/><path fill="none" stroke="#000" marker-end="url(#c)" d="m195.317 55.95 10.49-7.766" style="marker-end:url(#c);stroke:#1a1a1a;stroke-opacity:1"/><path fill="none" stroke="#000" marker-end="url(#c)" d="m184.409 55.83-10.978-8.132" style="marker-end:url(#c);stroke:#1a1a1a;stroke-opacity:1"/><path fill="none" stroke="red" stroke-dasharray="2, 1" stroke-dashoffset="1.3" marker-end="url(#c)" d="M190.352 15.287h8.047" style="marker-end:url(#c)"/><path fill="none" stroke="red" stroke-width=".265" d="M189.332 6.946v40.856"/><path fill="none" stroke="red" stroke-dasharray="2, 1" stroke-dashoffset="1.3" marker-end="url(#c)" d="M188.499 15.287h-8.047" style="marker-end:url(#c)"/><circle cx="246.039" cy="14.952" r="10" style="color:#000;overflow:visible;fill:#c31600;fill-opacity:1;fill-rule:evenodd;stroke:none;stroke-width:.25;paint-order:fill markers stroke;stop-color:#000"/><circle cx="288.092" cy="14.952" r="10" style="color:#000;font-variation-settings:normal;overflow:visible;vector-effect:none;fill:#094067;fill-opacity:1;fill-rule:evenodd;stroke:none;stroke-width:.25;stroke-linecap:butt;stroke-linejoin:miter;stroke-miterlimit:4;stroke-dasharray:none;stroke-dashoffset:0;stroke-opacity:1;-inkscape-stroke:none;paint-order:fill markers stroke;stop-color:#000"/><path d="M259.196 14.952h15.663" style="fill:none;fill-rule:evenodd;stroke:#000;stroke-width:1;stroke-linecap:butt;stroke-linejoin:miter;stroke-dasharray:none;stroke-opacity:1;marker-start:url(#d);marker-end:url(#d)"/><circle cx="-177.403" cy="205.958" r="10" style="color:#000;overflow:visible;fill:#fd5;fill-opacity:1;fill-rule:evenodd;stroke:none;stroke-width:.25;paint-order:fill markers stroke;stop-color:#000" transform="rotate(-120)"/><path d="m260.632 39.513-8.168-12.964" style="fill:none;fill-rule:evenodd;stroke:#000;stroke-width:1;stroke-linecap:butt;stroke-linejoin:miter;stroke-dasharray:none;stroke-opacity:1;marker-start:url(#d);marker-end:url(#d)"/><path d="m273.5 39.513 8.54-13.358" style="fill:none;fill-rule:evenodd;stroke:#000;stroke-width:1;stroke-linecap:butt;stroke-linejoin:miter;stroke-dasharray:none;stroke-opacity:1;marker-start:url(#d);marker-end:url(#d)"/><circle cx="344.798" cy="59.17" r="5" fill="#30a030" fill-rule="evenodd" color="#000" style="stroke:none;paint-order:fill markers stroke"/><circle cx="-366.035" cy="42.7" r="5" fill="#650065" fill-rule="evenodd" color="#000" style="stroke:none;paint-order:fill markers stroke;fill:#652265;fill-opacity:1" transform="scale(-1 1)"/><g fill-rule="evenodd" color="#000" transform="scale(-1 1)"><circle cx="-365.825" cy="14.827" r="10" fill="#073983" style="stroke:none;paint-order:fill markers stroke;fill:#094067;fill-opacity:1"/><circle cx="-323.772" cy="14.827" r="10" fill="#d00000" style="stroke:none;paint-order:fill markers stroke;fill:#c31600;fill-opacity:1"/></g><circle cx="-323.561" cy="42.7" r="5" fill="#f80" fill-rule="evenodd" color="#000" style="stroke:none;paint-order:fill markers stroke;fill:#ff7100;fill-opacity:1" transform="scale(-1 1)"/><path fill="none" stroke="#000" marker-end="url(#c)" d="m350.484 56.996 10.49-7.766" style="font-variation-settings:normal;opacity:1;vector-effect:none;fill:none;fill-opacity:1;stroke:#000;stroke-width:1.5;stroke-linecap:butt;stroke-linejoin:miter;stroke-miterlimit:4;stroke-dasharray:none;stroke-dashoffset:0;stroke-opacity:1;-inkscape-stroke:none;marker-end:url(#e);stop-color:#000;stop-opacity:1"/><circle cx="344.798" cy="37.474" r="5" fill="#30a030" fill-rule="evenodd" color="#000" style="fill:#fd5;fill-opacity:1;stroke:none;paint-order:fill markers stroke"/><path d="m338.905 24.567-6.315-6.587" style="fill:none;fill-rule:evenodd;stroke:#000;stroke-width:1.5;stroke-linecap:butt;stroke-linejoin:miter;stroke-dasharray:none;stroke-opacity:1;marker-end:url(#f)" transform="translate(1.564 6.88)"/><path d="m347.297 25.003 6.587-6.914" style="fill:none;fill-rule:evenodd;stroke:#000;stroke-width:1.5;stroke-linecap:butt;stroke-linejoin:miter;stroke-dasharray:none;stroke-opacity:1;marker-end:url(#f)" transform="translate(1.564 6.88)"/><path fill="none" stroke="#000" marker-end="url(#c)" d="m327.773 47.793 9.893 7.094" style="font-variation-settings:normal;opacity:1;vector-effect:none;fill:none;fill-opacity:1;stroke:#000;stroke-width:1.5;stroke-linecap:butt;stroke-linejoin:miter;stroke-miterlimit:4;stroke-dasharray:none;stroke-dashoffset:0;stroke-opacity:1;-inkscape-stroke:none;marker-end:url(#e);stop-color:#000;stop-opacity:1"/><path d="M34.843 76.726h7.398v7.398h-7.398z" style="color:#000;overflow:visible;fill:#30a030;fill-opacity:1;fill-rule:evenodd;stroke-width:0;paint-order:fill markers stroke;stop-color:#000" transform="matrix(1 0 0 1 185.53 -98.83)"/><path d="M12.647 76.726h7.398v7.398h-7.398z" style="color:#000;overflow:visible;fill:#ffae42;fill-opacity:1;fill-rule:evenodd;stroke-width:0;paint-order:fill markers stroke;stop-color:#000" transform="matrix(1 0 0 1 185.53 -98.83)"/><path d="M27.445 76.726h7.398v7.398h-7.398z" style="color:#000;overflow:visible;fill:#9fff39;fill-opacity:1;fill-rule:evenodd;stroke-width:0;paint-order:fill markers stroke;stop-color:#000" transform="matrix(1 0 0 1 185.53 -98.83)"/><path d="M20.046 76.726h7.398v7.398h-7.398z" style="color:#000;overflow:visible;fill:#fd5;fill-opacity:1;fill-rule:evenodd;stroke-width:0;paint-order:fill markers stroke;stop-color:#000" transform="matrix(1 0 0 1 185.53 -98.83)"/><path d="M-9.549 76.726h7.398v7.398h-7.398z" style="color:#000;overflow:visible;fill:#c31600;fill-opacity:1;fill-rule:evenodd;stroke-width:0;paint-order:fill markers stroke;stop-color:#000" transform="matrix(1 0 0 1 185.53 -98.83)"/><path d="M-2.15 76.726h7.398v7.398H-2.15z" style="color:#000;overflow:visible;fill:#ff2400;fill-opacity:1;fill-rule:evenodd;stroke-width:0;paint-order:fill markers stroke;stop-color:#000" transform="matrix(1 0 0 1 185.53 -98.83)"/><path d="M42.242 76.726h7.398v7.398h-7.398z" style="color:#000;overflow:visible;fill:teal;fill-opacity:1;fill-rule:evenodd;stroke-width:0;paint-order:fill markers stroke;stop-color:#000" transform="matrix(1 0 0 1 185.53 -98.83)"/><path d="M5.249 76.726h7.398v7.398H5.249z" style="color:#000;overflow:visible;fill:#ff7100;fill-opacity:1;fill-rule:evenodd;stroke-width:0;paint-order:fill markers stroke;stop-color:#000" transform="matrix(1 0 0 1 185.53 -98.83)"/><path d="M71.667 76.726h7.398v7.398h-7.398z" style="color:#000;overflow:visible;fill:#d60a72;fill-opacity:1;fill-rule:evenodd;stroke-width:0;paint-order:fill markers stroke;stop-color:#000" transform="matrix(1 0 0 1 185.53 -98.83)"/><path d="M64.268 76.726h7.398v7.398h-7.398z" style="color:#000;overflow:visible;fill:#652265;fill-opacity:1;fill-rule:evenodd;stroke-width:0;paint-order:fill markers stroke;stop-color:#000" transform="matrix(1 0 0 1 185.53 -98.83)"/><path d="M56.869 76.726h7.398v7.398h-7.398z" style="color:#000;overflow:visible;fill:#862cff;fill-opacity:1;fill-rule:evenodd;stroke-width:0;paint-order:fill markers stroke;stop-color:#000" transform="matrix(1 0 0 1 185.53 -98.83)"/><path d="M49.471 76.726h7.398v7.398h-7.398z" style="color:#000;overflow:visible;opacity:.97;fill:#094067;fill-opacity:1;fill-rule:evenodd;stroke-width:0;paint-order:fill markers stroke;stop-color:#000" transform="matrix(1 0 0 1 185.53 -98.83)"/><circle cx="-179.837" cy="376.143" r="5" style="color:#000;overflow:visible;fill:#b3b3b3;fill-opacity:1;fill-rule:evenodd;stroke:none;stroke-width:.250001;paint-order:fill markers stroke;stop-color:#000" transform="scale(-1 1)rotate(60)"/><circle cx="-242.56" cy="-355.781" r="5" style="color:#000;overflow:visible;fill:#b3b3b3;fill-opacity:1;fill-rule:evenodd;stroke:none;stroke-width:.250001;paint-order:fill markers stroke;stop-color:#000" transform="scale(-1 1)rotate(-60)"/><circle cx="-165.231" cy="392.502" r="10" style="color:#000;overflow:visible;fill:#b3b3b3;fill-opacity:1;fill-rule:evenodd;stroke:none;stroke-width:.250001;paint-order:fill markers stroke;stop-color:#000" transform="scale(-1 1)rotate(60)"/><circle cx="422.532" cy="-11.113" r="5" style="color:#000;overflow:visible;fill:#b3b3b3;fill-opacity:1;fill-rule:evenodd;stroke:none;stroke-width:.250001;paint-order:fill markers stroke;stop-color:#000" transform="scale(1 -1)"/><circle cx="32.251" cy="-401.027" r="2.5" style="color:#000;overflow:visible;fill:#b3b3b3;fill-opacity:1;fill-rule:evenodd;stroke:none;stroke-width:.250001;paint-order:fill markers stroke;stop-color:#000" transform="rotate(90)"/><circle cx="45.534" cy="-401.027" r="2.5" style="color:#000;overflow:visible;fill:#b3b3b3;fill-opacity:1;fill-rule:evenodd;stroke:none;stroke-width:.250001;paint-order:fill markers stroke;stop-color:#000" transform="rotate(90)"/><circle cx="58.818" cy="-401.027" r="2.5" style="color:#000;overflow:visible;fill:#b3b3b3;fill-opacity:1;fill-rule:evenodd;stroke:none;stroke-width:.250001;paint-order:fill markers stroke;stop-color:#000" transform="rotate(90)"/><circle cx="35.955" cy="-444.037" r="2.5" style="color:#000;overflow:visible;fill:#b3b3b3;fill-opacity:1;fill-rule:evenodd;stroke:none;stroke-width:.250001;paint-order:fill markers stroke;stop-color:#000" transform="rotate(90)"/><circle cx="45.534" cy="-444.037" r="2.5" style="color:#000;overflow:visible;fill:#b3b3b3;fill-opacity:1;fill-rule:evenodd;stroke:none;stroke-width:.250001;paint-order:fill markers stroke;stop-color:#000" transform="rotate(90)"/><circle cx="58.818" cy="-444.037" r="2.5" style="color:#000;overflow:visible;fill:#b3b3b3;fill-opacity:1;fill-rule:evenodd;stroke:none;stroke-width:.250001;paint-order:fill markers stroke;stop-color:#000" transform="rotate(90)"/><path d="m408.81 23.412 3.267 3.967" style="fill:none;fill-rule:evenodd;stroke:#999;stroke-width:.5;stroke-linecap:butt;stroke-linejoin:miter;stroke-opacity:1;marker-start:url(#g);marker-end:url(#g)"/><path d="m404.688 47.602 7 2.8" style="fill:none;fill-rule:evenodd;stroke:#999;stroke-width:.5;stroke-linecap:butt;stroke-linejoin:miter;stroke-opacity:1;marker-start:url(#g);marker-end:url(#g)"/><path d="m426.778 38.269-1.167 3.81" style="fill:none;fill-rule:evenodd;stroke:#999;stroke-width:.5;stroke-linecap:butt;stroke-linejoin:miter;stroke-opacity:1;marker-start:url(#g);marker-end:url(#g)"/><path d="m401.032 36.387-.077 5.133" style="fill:none;fill-rule:evenodd;stroke:#999;stroke-width:.5;stroke-linecap:butt;stroke-linejoin:miter;stroke-opacity:1;marker-start:url(#g)"/><path d="m443.89 50.014-.078 3.811" style="fill:none;fill-rule:evenodd;stroke:#999;stroke-width:.5;stroke-linecap:butt;stroke-linejoin:miter;stroke-opacity:1;marker-start:url(#g);marker-end:url(#g)"/><path d="m424.755 17.719 3.5 8.09" style="fill:none;fill-rule:evenodd;stroke:#999;stroke-width:.5;stroke-linecap:butt;stroke-linejoin:miter;stroke-opacity:1;marker-start:url(#g)"/><path d="m444.279 26.43-.028 1.888-.05 3.324" style="fill:none;fill-rule:evenodd;stroke:#999;stroke-width:.5;stroke-linecap:butt;stroke-linejoin:miter;stroke-opacity:1;marker-end:url(#g)"/><circle cx="-443.558" cy="14.827" r="10" fill="#073983" fill-rule="evenodd" color="#000" style="fill:#b3b3b3;fill-opacity:1;stroke:none;paint-order:fill markers stroke" transform="scale(-1 1)"/><circle cx="-401.505" cy="14.827" r="10" fill="#d00000" fill-rule="evenodd" color="#000" style="fill:#b3b3b3;fill-opacity:1;stroke:none;paint-order:fill markers stroke" transform="scale(-1 1)"/><g fill="none" stroke="#000" stroke-width="2" marker-end="url(#c)"><path d="M210.569 26.728v6.548" style="stroke:#1a1a1a;stroke-opacity:1;marker-end:url(#c)"/><path d="M168.095 26.728v6.548" style="stroke:#1a1a1a;stroke-opacity:1;marker-end:url(#c)"/></g><path fill="none" stroke="#000" stroke-width="2" marker-end="url(#h)" d="M365.737 26.728v6.548" style="stroke:#1a1a1a;stroke-opacity:1;marker-end:url(#h)"/><path fill="none" stroke="#000" stroke-width="2" marker-end="url(#h)" d="M323.263 26.728v6.548" style="stroke:#1a1a1a;stroke-opacity:1;marker-end:url(#h)"/><g transform="matrix(1 0 0 1 130.308 -236.777)"><circle cx="96.343" cy="108.555" r="82.999" style="color:#000;overflow:visible;opacity:1;fill:#094067;fill-opacity:1;fill-rule:evenodd;stroke-width:0;paint-order:fill markers stroke;stop-color:#000"/><path d="M77.058 48.94v23.386h7.139a2.506 2.506 0 0 1 2.511-2.495h18.53a2.506 2.506 0 0 1 2.511 2.495h7.14V48.94Zm9.65 9.186h18.53a2.506 2.506 0 0 1 2.512 2.512 2.506 2.506 0 0 1-2.512 2.512h-18.53a2.506 2.506 0 0 1-2.512-2.512 2.506 2.506 0 0 1 2.512-2.512" style="color:#000;overflow:visible;opacity:1;fill:#f8f6f7;fill-opacity:1;fill-rule:evenodd;stroke-width:0;paint-order:fill markers stroke;stop-color:#000"/><path d="M40.99 78.723V90.7h109.966V78.344L135.7 66.828h-14.278v5.506q-.001.067-.007.133h5.042a2.446 2.446 0 0 1 2.452 2.451 2.446 2.446 0 0 1-2.452 2.452H65.49a2.446 2.446 0 0 1-2.452-2.452 2.446 2.446 0 0 1 2.452-2.45h5.043q-.006-.068-.007-.134v-5.506H56.158ZM47.983 98.724v58.73h95.98v-58.73Zm27.733 4.406a3.845 3.845 0 0 1 3.845 3.845 3.85 3.85 0 0 1-1.87 3.297v12.586c0 .894-.72 1.615-1.615 1.615H58.558c-.895 0-1.615-.72-1.615-1.615v-15.793c0-.894.72-1.615 1.615-1.615H72.19a3.85 3.85 0 0 1 3.526-2.32m27.722 0a3.845 3.845 0 0 1 3.844 3.845 3.85 3.85 0 0 1-1.87 3.297v12.586c0 .894-.72 1.615-1.614 1.615H86.279c-.895 0-1.615-.72-1.615-1.615v-15.793c0-.894.72-1.615 1.615-1.615h13.632a3.85 3.85 0 0 1 3.527-2.32m27.72 0a3.845 3.845 0 0 1 3.846 3.845 3.85 3.85 0 0 1-1.87 3.297v12.586c0 .894-.72 1.615-1.615 1.615H114c-.895 0-1.615-.72-1.615-1.615v-15.793c0-.894.72-1.615 1.615-1.615h13.633a3.85 3.85 0 0 1 3.526-2.32m-55.442 25.4a3.845 3.845 0 0 1 3.845 3.845 3.85 3.85 0 0 1-1.87 3.297v12.586c0 .894-.72 1.615-1.615 1.615H58.558c-.895 0-1.615-.72-1.615-1.615v-15.793c0-.894.72-1.615 1.615-1.615H72.19a3.85 3.85 0 0 1 3.526-2.32m27.722 0a3.845 3.845 0 0 1 3.844 3.845 3.85 3.85 0 0 1-1.87 3.297v12.586c0 .894-.72 1.615-1.614 1.615H86.279c-.895 0-1.615-.72-1.615-1.615v-15.793c0-.894.72-1.615 1.615-1.615h13.632a3.85 3.85 0 0 1 3.527-2.32m27.72 0a3.845 3.845 0 0 1 3.846 3.845 3.85 3.85 0 0 1-1.87 3.297v12.586c0 .894-.72 1.615-1.615 1.615H114c-.895 0-1.615-.72-1.615-1.615v-15.793c0-.894.72-1.615 1.615-1.615h13.633a3.85 3.85 0 0 1 3.526-2.32" style="color:#000;overflow:visible;opacity:1;fill:#f8f6f7;fill-opacity:1;fill-rule:evenodd;stroke-width:0;paint-order:fill markers stroke;stop-color:#000"/><path d="M47.982 95.711h95.981v3.013H47.982z" style="color:#000;overflow:visible;opacity:1;fill:#b3b3b3;fill-rule:evenodd;stroke-width:0;paint-order:fill markers stroke;stop-color:#000"/><path d="M99.886 108.443a3.85 3.85 0 0 0 2.714 2.284l-6.617 7.641a1.67 1.67 0 0 1-2.355.201l-4.936-4.16 2.14-2.538 3.504 2.953z" style="color:#000;overflow:visible;opacity:1;fill:#c31600;fill-opacity:1;fill-rule:evenodd;stroke-width:0;paint-order:fill markers stroke;stop-color:#000"/><path d="M127.607 108.443a3.85 3.85 0 0 0 2.715 2.284l-6.618 7.641a1.67 1.67 0 0 1-2.355.201l-4.936-4.16 2.14-2.538 3.504 2.953zM99.886 133.843a3.85 3.85 0 0 0 2.714 2.284l-6.617 7.641a1.67 1.67 0 0 1-2.355.201l-4.936-4.16 2.14-2.538 3.504 2.953z" style="color:#000;overflow:visible;opacity:1;fill:#f8f6f7;fill-opacity:1;fill-rule:evenodd;stroke-width:0;paint-order:fill markers stroke;stop-color:#000"/><path d="M127.607 133.843a3.85 3.85 0 0 0 2.715 2.284l-6.618 7.641a1.67 1.67 0 0 1-2.355.201l-4.936-4.16 2.14-2.538 3.504 2.953z" style="color:#000;overflow:visible;opacity:1;fill:#0098fa;fill-opacity:1;fill-rule:evenodd;stroke-width:0;paint-order:fill markers stroke;stop-color:#000"/><path d="M72.165 133.843a3.85 3.85 0 0 0 2.714 2.284l-6.617 7.641a1.67 1.67 0 0 1-2.355.201l-4.936-4.16 2.14-2.538 3.504 2.953z" style="color:#000;overflow:visible;opacity:1;fill:#c31600;fill-opacity:1;fill-rule:evenodd;stroke-width:0;paint-order:fill markers stroke;stop-color:#000"/><path d="M72.165 108.443a3.85 3.85 0 0 0 2.714 2.284l-6.617 7.641a1.67 1.67 0 0 1-2.355.201l-4.936-4.16 2.14-2.538 3.504 2.953z" style="color:#000;overflow:visible;opacity:1;fill:#0098fa;fill-opacity:1;fill-rule:evenodd;stroke-width:0;paint-order:fill markers stroke;stop-color:#000"/></g></svg>