<?xml version="1.0" encoding="UTF-8" standalone="no"?>
<svg
   width="256"
   height="256"
   viewBox="0 0 67.733 67.733"
   version="1.1"
   id="svg506"
   sodipodi:docname="assets.svg"
   xml:space="preserve"
   inkscape:version="1.2.2 (732a01da63, 2022-12-09)"
   xmlns:inkscape="http://www.inkscape.org/namespaces/inkscape"
   xmlns:sodipodi="http://sodipodi.sourceforge.net/DTD/sodipodi-0.dtd"
   xmlns="http://www.w3.org/2000/svg"
   xmlns:svg="http://www.w3.org/2000/svg"><sodipodi:namedview
     id="namedview508"
     pagecolor="#ffffff"
     bordercolor="#666666"
     borderopacity="1.0"
     inkscape:showpageshadow="2"
     inkscape:pageopacity="0.0"
     inkscape:pagecheckerboard="0"
     inkscape:deskcolor="#d1d1d1"
     showgrid="false"
     inkscape:zoom="0.88574219"
     inkscape:cx="1243.0254"
     inkscape:cy="-313.29658"
     inkscape:window-width="1920"
     inkscape:window-height="1010"
     inkscape:window-x="1438"
     inkscape:window-y="939"
     inkscape:window-maximized="1"
     inkscape:current-layer="g4643"><inkscape:page
       x="0"
       y="0"
       width="67.733002"
       height="67.733002"
       id="page767"
       inkscape:label="fragmented_coalition" /><inkscape:page
       x="77.733002"
       y="0"
       width="67.733002"
       height="67.733002"
       id="page769"
       inkscape:label="two_majors_with_minors" /><inkscape:page
       x="155.466"
       y="0"
       width="67.733002"
       height="67.733002"
       id="page1270"
       inkscape:label="two_major_oppositional" /><inkscape:page
       x="233.19901"
       y="0"
       width="67.733002"
       height="67.733002"
       id="page1448"
       inkscape:label="multi_major" /><inkscape:page
       x="310.93201"
       y="0"
       width="67.733002"
       height="67.733002"
       id="page1604"
       inkscape:label="balanced_major_minor" /><inkscape:grid
       type="xygrid"
       id="grid7627" /><inkscape:page
       x="388.66501"
       y="0"
       width="67.733002"
       height="67.733002"
       id="page8188"
       inkscape:label="custom_scenario" /><inkscape:page
       x="143.65164"
       y="-211.22145"
       width="165.99677"
       height="165.99673"
       id="page26354"
       inkscape:label="logo" /><inkscape:page
       x="323.61066"
       y="-195.3539"
       width="88.612839"
       height="7.3980656"
       id="page27729"
       inkscape:label="palette" /></sodipodi:namedview><defs
     id="defs460"><inkscape:perspective
       sodipodi:type="inkscape:persp3d"
       inkscape:vp_x="0 : 33.8665 : 1"
       inkscape:vp_y="0 : 1000 : 0"
       inkscape:vp_z="67.733 : 33.8665 : 1"
       inkscape:persp3d-origin="33.8665 : 22.577667 : 1"
       id="perspective7112" /><marker
       style="overflow:visible"
       id="a"
       refX="0"
       refY="0"
       orient="auto-start-reverse"
       markerWidth="3.3239999"
       markerHeight="3.8429999"
       viewBox="0 0 5.324 6.155"
       preserveAspectRatio="xMidYMid"><path
         transform="scale(0.5)"
         style="fill:context-stroke;fill-rule:evenodd;stroke:context-stroke;stroke-width:1pt"
         d="M 5.77,0 -2.88,5 V -5 Z"
         id="path457" /></marker><marker
       style="overflow:visible"
       id="a-1"
       refX="0"
       refY="0"
       orient="auto-start-reverse"
       markerWidth="2.3239999"
       markerHeight="2.687"
       viewBox="0 0 5.324 6.155"
       preserveAspectRatio="xMidYMid"><path
         transform="scale(0.5)"
         style="fill:context-stroke;fill-rule:evenodd;stroke:context-stroke;stroke-width:1pt"
         d="M 5.77,0 -2.88,5 V -5 Z"
         id="path726" /></marker><marker
       id="a-8"
       overflow="visible"
       markerHeight="2.313"
       markerWidth="2.0009999"
       orient="auto-start-reverse"
       preserveAspectRatio="xMidYMid"
       viewBox="0 0 5.324 6.155"><path
         d="M 2.885,0 -1.44,2.5 v -5 z"
         fill="context-stroke"
         fill-rule="evenodd"
         stroke="context-stroke"
         stroke-width="0.5pt"
         id="path1231" /></marker><marker
       style="overflow:visible"
       id="a-5"
       refX="0"
       refY="0"
       orient="auto-start-reverse"
       markerWidth="3.3239999"
       markerHeight="3.8429999"
       viewBox="0 0 5.324 6.155"
       preserveAspectRatio="xMidYMid"><path
         transform="scale(0.5)"
         style="fill:context-stroke;fill-rule:evenodd;stroke:context-stroke;stroke-width:1pt"
         d="M 5.77,0 -2.88,5 V -5 Z"
         id="path1421" /></marker><marker
       style="overflow:visible"
       id="a-18"
       refX="0"
       refY="0"
       orient="auto-start-reverse"
       markerWidth="2.324178"
       markerHeight="2.6869111"
       viewBox="0 0 5.3244081 6.1553851"
       preserveAspectRatio="xMidYMid"><path
         transform="scale(0.5)"
         style="fill:context-stroke;fill-rule:evenodd;stroke:context-stroke;stroke-width:1pt"
         d="M 5.77,0 -2.88,5 V -5 Z"
         id="path1567" /></marker><marker
       style="overflow:visible"
       id="a-18-2"
       refX="0"
       refY="0"
       orient="auto-start-reverse"
       markerWidth="2.3239999"
       markerHeight="2.687"
       viewBox="0 0 5.324 6.155"
       preserveAspectRatio="xMidYMid"><path
         transform="scale(0.5)"
         style="fill:context-stroke;fill-rule:evenodd;stroke:context-stroke;stroke-width:1pt"
         d="M 5.77,0 -2.88,5 V -5 Z"
         id="path1567-1" /></marker><marker
       style="overflow:visible"
       id="marker1967"
       refX="0"
       refY="0"
       orient="auto-start-reverse"
       markerWidth="2.3239999"
       markerHeight="2.687"
       viewBox="0 0 5.324 6.155"
       preserveAspectRatio="xMidYMid"><path
         transform="scale(0.5)"
         style="fill:context-stroke;fill-rule:evenodd;stroke:context-stroke;stroke-width:1pt"
         d="M 5.77,0 -2.88,5 V -5 Z"
         id="path1965" /></marker><marker
       style="overflow:visible"
       id="a-18-9"
       refX="0"
       refY="0"
       orient="auto-start-reverse"
       markerWidth="2.3239999"
       markerHeight="2.687"
       viewBox="0 0 5.324 6.155"
       preserveAspectRatio="xMidYMid"><path
         transform="scale(0.5)"
         style="fill:context-stroke;fill-rule:evenodd;stroke:context-stroke;stroke-width:1pt"
         d="M 5.77,0 -2.88,5 V -5 Z"
         id="path1567-4" /></marker><marker
       style="overflow:visible"
       id="a-2"
       refX="0"
       refY="0"
       orient="auto-start-reverse"
       markerWidth="2.324"
       markerHeight="2.687"
       viewBox="0 0 5.324 6.155"
       preserveAspectRatio="xMidYMid">
      <path
   transform="scale(.5)"
   style="fill:context-stroke;fill-rule:evenodd;stroke:context-stroke;stroke-width:1pt"
   d="m5.77 0-8.65 5V-5Z"
   id="path8137" />
    </marker><marker
       id="a-8-6"
       overflow="visible"
       markerHeight="2.313"
       markerWidth="2.0009999"
       orient="auto-start-reverse"
       preserveAspectRatio="xMidYMid"
       viewBox="0 0 5.324 6.155"><path
         d="M 2.885,0 -1.44,2.5 v -5 z"
         fill="context-stroke"
         fill-rule="evenodd"
         stroke="context-stroke"
         stroke-width="0.5pt"
         id="path1231-4" /></marker><marker
       id="marker14598"
       overflow="visible"
       markerHeight="2.313"
       markerWidth="2.0009999"
       orient="auto-start-reverse"
       preserveAspectRatio="xMidYMid"
       viewBox="0 0 5.324 6.155"><path
         d="M 2.885,0 -1.44,2.5 v -5 z"
         fill="context-stroke"
         fill-rule="evenodd"
         stroke="context-stroke"
         stroke-width="0.5pt"
         id="path14596" /></marker></defs><g
     id="g12396"
     transform="translate(0,1.0159187)"><circle
       style="color:#000000;overflow:visible;fill:#30a030;fill-opacity:1;fill-rule:evenodd;stroke:none;stroke-width:0.25;paint-order:fill markers stroke;stop-color:#000000"
       cx="33.867001"
       cy="-36.526424"
       r="5"
       id="circle462"
       transform="scale(1,-1)" /><circle
       style="color:#000000;overflow:visible;fill:#9fff39;fill-opacity:1;fill-rule:evenodd;stroke:none;stroke-width:0.25;paint-order:fill markers stroke;stop-color:#000000"
       cx="33.980999"
       cy="-13.679422"
       r="2.5"
       id="circle464"
       transform="scale(1,-1)" /><path
       style="fill:none;fill-rule:evenodd;stroke:#1a1a1a;stroke-width:1;stroke-linecap:butt;stroke-linejoin:miter;stroke-dasharray:none;stroke-opacity:1;marker-end:url(#a)"
       d="M 32.607,30.861429 V 19.18143"
       id="path466" /><path
       style="fill:none;fill-rule:evenodd;stroke:#1a1a1a;stroke-width:0.5;stroke-linecap:butt;stroke-linejoin:miter;stroke-opacity:1;marker-end:url(#a)"
       d="M 35.169,16.98843 V 29.963429"
       id="path468" /></g><circle
     style="color:#000000;overflow:visible;fill:#ff2400;fill-opacity:1;fill-rule:evenodd;stroke:none;stroke-width:0.25;paint-order:fill markers stroke;stop-color:#000000"
     cx="6.0500002"
     cy="34.772999"
     r="2.5"
     id="circle470" /><circle
     style="color:#000000;overflow:visible;fill:#ff7100;fill-opacity:1;fill-rule:evenodd;stroke:none;stroke-width:0.25;paint-order:fill markers stroke;stop-color:#000000"
     cx="18.898001"
     cy="39.444004"
     r="5"
     id="circle472" /><circle
     style="color:#000000;overflow:visible;fill:#862cff;fill-opacity:1;fill-rule:evenodd;stroke:none;stroke-width:0.25;paint-order:fill markers stroke;stop-color:#000000"
     cx="28.586"
     cy="52.730999"
     r="2.5"
     id="circle474" /><path
     style="fill:none;fill-rule:evenodd;stroke:#1a1a1a;stroke-width:1;stroke-linecap:butt;stroke-linejoin:miter;stroke-dasharray:none;stroke-opacity:1;marker-end:url(#a)"
     d="m 14.539,26.037 1.874,5.698"
     id="path476" /><path
     style="fill:none;fill-rule:evenodd;stroke:#1a1a1a;stroke-width:0.5;stroke-linecap:butt;stroke-linejoin:miter;stroke-opacity:1;marker-end:url(#a)"
     d="M 6.656,31.424 8.642,25.899"
     id="path478" /><path
     style="fill:none;fill-rule:evenodd;stroke:#1a1a1a;stroke-width:0.5;stroke-linecap:butt;stroke-linejoin:miter;stroke-opacity:1;marker-end:url(#a)"
     d="M 26.426,50.244 22.368,44.891"
     id="path480" /><circle
     style="color:#000000;overflow:visible;fill:#c31600;fill-opacity:1;fill-rule:evenodd;stroke:none;stroke-width:0.25;paint-order:fill markers stroke;stop-color:#000000"
     cx="12.84"
     cy="14.826998"
     r="10"
     id="circle482" /><circle
     style="color:#000000;overflow:visible;fill:#ffae42;fill-opacity:1;fill-rule:evenodd;stroke:none;stroke-width:0.25;paint-order:fill markers stroke;stop-color:#000000"
     cx="-61.684002"
     cy="34.772999"
     r="2.5"
     transform="scale(-1,1)"
     id="circle484" /><circle
     style="color:#000000;overflow:visible;fill:#094067;fill-opacity:1;fill-rule:evenodd;stroke:none;stroke-width:0.25;paint-order:fill markers stroke;stop-color:#000000"
     cx="-54.894001"
     cy="14.826998"
     r="10"
     transform="scale(-1,1)"
     id="circle486" /><circle
     style="color:#000000;overflow:visible;fill:#652265;fill-opacity:1;fill-rule:evenodd;stroke:none;stroke-width:0.25;paint-order:fill markers stroke;stop-color:#000000"
     cx="-48.834999"
     cy="39.444004"
     r="5"
     transform="scale(-1,1)"
     id="circle488" /><circle
     style="color:#000000;overflow:visible;fill:#008080;fill-opacity:1;fill-rule:evenodd;stroke:none;stroke-width:0.25;paint-order:fill markers stroke;stop-color:#000000"
     cx="-39.146999"
     cy="52.730999"
     r="2.5"
     transform="scale(-1,1)"
     id="circle490" /><path
     style="fill:none;fill-rule:evenodd;stroke:#1a1a1a;stroke-width:1;stroke-linecap:butt;stroke-linejoin:miter;stroke-dasharray:none;stroke-opacity:1;marker-end:url(#a)"
     d="M 53.194,26.037 51.32,31.734"
     id="path492" /><path
     style="fill:none;fill-rule:evenodd;stroke:#1a1a1a;stroke-width:0.5;stroke-linecap:butt;stroke-linejoin:miter;stroke-opacity:1;marker-end:url(#a)"
     d="M 61.077,31.424 59.091,25.899"
     id="path494" /><path
     style="fill:none;fill-rule:evenodd;stroke:#1a1a1a;stroke-width:0.5;stroke-linecap:butt;stroke-linejoin:miter;stroke-opacity:1;marker-end:url(#a)"
     d="M 40.962,50.157 45.279,45.15"
     id="path496" /><circle
     style="color:#000000;overflow:visible;fill:#ffdd55;fill-opacity:1;fill-rule:evenodd;stroke:none;stroke-width:0.25;paint-order:fill markers stroke;stop-color:#000000"
     cx="41.995998"
     cy="61.100002"
     r="2.5"
     id="circle498" /><circle
     style="color:#000000;overflow:visible;fill:#d60a72;fill-opacity:1;fill-rule:evenodd;stroke:none;stroke-width:0.25;paint-order:fill markers stroke;stop-color:#000000"
     cx="25.737"
     cy="61.100002"
     r="2.5"
     id="circle500" /><path
     style="fill:none;fill-rule:evenodd;stroke:#1a1a1a;stroke-width:0.5;stroke-linecap:butt;stroke-linejoin:miter;stroke-opacity:1;marker-end:url(#a)"
     d="m 28.988,61.1 h 8.979"
     id="path502" /><circle
     style="color:#000000;overflow:visible;fill:#30a030;fill-opacity:1;fill-rule:evenodd;stroke:none;stroke-width:0.25;paint-order:fill markers stroke;stop-color:#000000"
     cx="111.59901"
     cy="-37.542343"
     r="5"
     transform="scale(1,-1)"
     id="circle731" /><circle
     style="color:#000000;overflow:visible;fill:#094067;fill-opacity:1;fill-rule:evenodd;stroke:none;stroke-width:0.25;paint-order:fill markers stroke;stop-color:#000000"
     cx="-132.62651"
     cy="14.826998"
     r="10"
     transform="scale(-1,1)"
     id="circle733" /><circle
     style="color:#000000;overflow:visible;fill:#652265;fill-opacity:1;fill-rule:evenodd;stroke:none;stroke-width:0.25;paint-order:fill markers stroke;stop-color:#000000"
     cx="-132.836"
     cy="53.447346"
     r="5"
     transform="scale(-1,1)"
     id="circle735" /><path
     style="fill:none;fill-rule:evenodd;stroke:#1a1a1a;stroke-width:1.5;stroke-linecap:butt;stroke-linejoin:miter;stroke-dasharray:none;stroke-opacity:1;marker-end:url(#a-1)"
     d="m 132.836,27.321344 v 17.563"
     id="path737" /><circle
     style="color:#000000;overflow:visible;fill:#c31600;fill-opacity:1;fill-rule:evenodd;stroke:none;stroke-width:0.25;paint-order:fill markers stroke;stop-color:#000000"
     cx="-90.572502"
     cy="14.826998"
     r="10"
     transform="scale(-1,1)"
     id="circle739" /><circle
     style="color:#000000;overflow:visible;fill:#ff7100;fill-opacity:1;fill-rule:evenodd;stroke:none;stroke-width:0.25;paint-order:fill markers stroke;stop-color:#000000"
     cx="-90.362"
     cy="53.447346"
     r="5"
     transform="scale(-1,1)"
     id="circle741" /><path
     style="fill:none;fill-rule:evenodd;stroke:#1a1a1a;stroke-width:1.5;stroke-linecap:butt;stroke-linejoin:miter;stroke-dasharray:none;stroke-opacity:1;marker-end:url(#a-1)"
     d="m 90.362003,26.791344 v 18.271"
     id="path743" /><path
     style="fill:none;fill-rule:evenodd;stroke:#1a1a1a;stroke-width:1.5;stroke-linecap:butt;stroke-linejoin:miter;stroke-dasharray:none;stroke-opacity:1;marker-end:url(#a-1)"
     d="m 117.91906,40.227015 8.07894,6.591329"
     id="path745"
     sodipodi:nodetypes="cc" /><path
     style="fill:none;fill-rule:evenodd;stroke:#1a1a1a;stroke-width:1.5;stroke-linecap:butt;stroke-linejoin:miter;stroke-dasharray:none;stroke-opacity:1;marker-end:url(#a-1)"
     d="m 95.830003,48.146344 7.955997,-6.215"
     id="path747" /><path
     style="font-variation-settings:normal;vector-effect:none;fill:none;fill-opacity:1;fill-rule:evenodd;stroke:#1a1a1a;stroke-width:1.5;stroke-linecap:butt;stroke-linejoin:miter;stroke-miterlimit:4;stroke-dasharray:none;stroke-dashoffset:0;stroke-opacity:1;-inkscape-stroke:none;marker-end:url(#a-1);stop-color:#000000"
     d="m 125.453,53.286344 -25.861997,-0.308"
     id="path749" /><path
     style="fill:none;fill-rule:evenodd;stroke:#1a1a1a;stroke-width:0.449792;stroke-linecap:butt;stroke-linejoin:miter;stroke-dasharray:none;stroke-opacity:1;marker-end:url(#a-1)"
     d="m 97.205003,23.152344 9.429997,9.429"
     id="path751" /><path
     style="fill:none;fill-rule:evenodd;stroke:#1a1a1a;stroke-width:0.449792;stroke-linecap:butt;stroke-linejoin:miter;stroke-dasharray:none;stroke-opacity:1;marker-end:url(#a-1)"
     d="M 126.13512,23.748565 117.551,32.966344"
     id="path753"
     sodipodi:nodetypes="cc" /><circle
     cx="189.33202"
     cy="59.170166"
     r="5"
     color="#000000"
     fill="#30a030"
     fill-rule="evenodd"
     stroke="#4d4d4d"
     stroke-width="0.25"
     style="stroke:none;paint-order:fill markers stroke"
     id="circle1236" /><circle
     transform="scale(-1,1)"
     cx="-210.35951"
     cy="14.826996"
     r="10"
     color="#000000"
     fill="#073983"
     fill-rule="evenodd"
     stroke="#4d4d4d"
     stroke-width="0.25"
     style="stroke:none;paint-order:fill markers stroke;fill:#094067;fill-opacity:1"
     id="circle1238" /><circle
     transform="scale(-1,1)"
     cx="-210.56902"
     cy="42.700165"
     r="5"
     color="#000000"
     fill="#650065"
     fill-rule="evenodd"
     stroke="#4d4d4d"
     stroke-width="0.25"
     style="fill:#652265;fill-opacity:1;stroke:none;paint-order:fill markers stroke"
     id="circle1240" /><circle
     transform="scale(-1,1)"
     cx="-168.30551"
     cy="14.826996"
     r="10"
     color="#000000"
     fill="#d00000"
     fill-rule="evenodd"
     stroke="#4d4d4d"
     stroke-width="0.25"
     style="stroke:none;paint-order:fill markers stroke;fill:#c31600;fill-opacity:1"
     id="circle1244" /><circle
     transform="scale(-1,1)"
     cx="-168.09502"
     cy="42.700165"
     r="5"
     color="#000000"
     fill="#ff8800"
     fill-rule="evenodd"
     stroke="#4d4d4d"
     stroke-width="0.25"
     style="fill:#ff7100;fill-opacity:1;stroke:none;paint-order:fill markers stroke"
     id="circle1246" /><path
     d="m 195.31701,55.950167 10.49,-7.766"
     fill="none"
     marker-end="url(#a-8)"
     stroke="#000000"
     id="path1250"
     style="marker-end:url(#a-8);stroke:#1a1a1a;stroke-opacity:1" /><path
     d="m 184.40901,55.830167 -10.978,-8.132"
     fill="none"
     marker-end="url(#a-8)"
     stroke="#000000"
     id="path1252"
     style="marker-end:url(#a-8);stroke:#1a1a1a;stroke-opacity:1" /><path
     d="m 190.35201,15.287167 h 8.047"
     fill="none"
     marker-end="url(#a-8)"
     stroke="#ff0000"
     stroke-dasharray="2, 1"
     stroke-dashoffset="1.3"
     id="path1254"
     style="marker-end:url(#a-8)" /><path
     d="M 189.33201,6.945509 V 47.802167"
     fill="none"
     stroke="#ff0000"
     stroke-width="0.265"
     id="path1256"
     sodipodi:nodetypes="cc" /><path
     d="m 188.49901,15.287167 h -8.047"
     fill="none"
     marker-end="url(#a-8)"
     stroke="#ff0000"
     stroke-dasharray="2, 1"
     stroke-dashoffset="1.3"
     id="path1258"
     style="marker-end:url(#a-8)" /><circle
     style="color:#000000;overflow:visible;fill:#c31600;fill-opacity:1;fill-rule:evenodd;stroke:none;stroke-width:0.25;paint-order:fill markers stroke;stop-color:#000000"
     cx="246.03851"
     cy="14.951996"
     r="10"
     id="circle1426" /><circle
     style="color:#000000;font-variation-settings:normal;overflow:visible;vector-effect:none;fill:#094067;fill-opacity:1;fill-rule:evenodd;stroke:none;stroke-width:0.25;stroke-linecap:butt;stroke-linejoin:miter;stroke-miterlimit:4;stroke-dasharray:none;stroke-dashoffset:0;stroke-opacity:1;-inkscape-stroke:none;paint-order:fill markers stroke;stop-color:#000000"
     cx="288.0925"
     cy="14.951996"
     r="10"
     id="circle1428" /><path
     style="fill:none;fill-rule:evenodd;stroke:#000000;stroke-width:1;stroke-linecap:butt;stroke-linejoin:miter;stroke-dasharray:none;stroke-opacity:1;marker-start:url(#a-5);marker-end:url(#a-5)"
     d="m 259.19644,14.951996 h 15.66244"
     id="path1430"
     sodipodi:nodetypes="cc" /><circle
     style="color:#000000;overflow:visible;fill:#ffdd55;fill-opacity:1;fill-rule:evenodd;stroke:none;stroke-width:0.25;paint-order:fill markers stroke;stop-color:#000000"
     cx="-177.40271"
     cy="205.95775"
     r="10"
     transform="rotate(-120)"
     id="circle1432" /><path
     style="fill:none;fill-rule:evenodd;stroke:#000000;stroke-width:1;stroke-linecap:butt;stroke-linejoin:miter;stroke-dasharray:none;stroke-opacity:1;marker-start:url(#a-5);marker-end:url(#a-5)"
     d="M 260.632,39.51254 252.46373,26.549435"
     id="path1434"
     sodipodi:nodetypes="cc" /><path
     style="fill:none;fill-rule:evenodd;stroke:#000000;stroke-width:1;stroke-linecap:butt;stroke-linejoin:miter;stroke-dasharray:none;stroke-opacity:1;marker-start:url(#a-5);marker-end:url(#a-5)"
     d="m 273.5,39.51254 8.54066,-13.35802"
     id="path1436"
     sodipodi:nodetypes="cc" /><circle
     cx="344.798"
     cy="59.170166"
     r="5"
     color="#000000"
     fill="#30a030"
     fill-rule="evenodd"
     stroke="#4d4d4d"
     stroke-width="0.25"
     style="stroke:none;paint-order:fill markers stroke"
     id="circle1692" /><circle
     transform="scale(-1,1)"
     cx="-366.035"
     cy="42.700165"
     r="5"
     color="#000000"
     fill="#650065"
     fill-rule="evenodd"
     stroke="#4d4d4d"
     stroke-width="0.25"
     style="stroke:none;paint-order:fill markers stroke;fill:#652265;fill-opacity:1"
     id="circle1696" /><g
     id="g8265"><circle
       transform="scale(-1,1)"
       cx="-365.8255"
       cy="14.826996"
       r="10"
       color="#000000"
       fill="#073983"
       fill-rule="evenodd"
       stroke="#4d4d4d"
       stroke-width="0.25"
       style="stroke:none;paint-order:fill markers stroke;fill:#094067;fill-opacity:1"
       id="circle1694" /><circle
       transform="scale(-1,1)"
       cx="-323.77151"
       cy="14.826996"
       r="10"
       color="#000000"
       fill="#d00000"
       fill-rule="evenodd"
       stroke="#4d4d4d"
       stroke-width="0.25"
       style="stroke:none;paint-order:fill markers stroke;fill:#c31600;fill-opacity:1"
       id="circle1700" /></g><circle
     transform="scale(-1,1)"
     cx="-323.561"
     cy="42.700165"
     r="5"
     color="#000000"
     fill="#ff8800"
     fill-rule="evenodd"
     stroke="#4d4d4d"
     stroke-width="0.25"
     style="stroke:none;paint-order:fill markers stroke;fill:#ff7100;fill-opacity:1"
     id="circle1702" /><path
     d="m 350.4843,56.99566 10.49,-7.766"
     fill="none"
     marker-end="url(#a-8)"
     stroke="#000000"
     id="path1706"
     style="font-variation-settings:normal;opacity:1;vector-effect:none;fill:none;fill-opacity:1;stroke:#000000;stroke-width:1.5;stroke-linecap:butt;stroke-linejoin:miter;stroke-miterlimit:4;stroke-dasharray:none;stroke-dashoffset:0;stroke-opacity:1;-inkscape-stroke:none;marker-end:url(#a-18);stop-color:#000000;stop-opacity:1" /><circle
     cx="344.798"
     cy="37.474438"
     r="5"
     color="#000000"
     fill="#30a030"
     fill-rule="evenodd"
     stroke="#4d4d4d"
     stroke-width="0.25"
     style="fill:#ffdd55;fill-opacity:1;stroke:none;paint-order:fill markers stroke"
     id="circle1748" /><g
     id="g2267"
     transform="translate(1.5636541,6.8791332)"><path
       style="fill:none;fill-rule:evenodd;stroke:#000000;stroke-width:1.5;stroke-linecap:butt;stroke-linejoin:miter;stroke-dasharray:none;stroke-opacity:1;marker-end:url(#a-18-2)"
       d="m 338.90549,24.566962 -6.315,-6.587"
       id="path1588" /><path
       style="fill:none;fill-rule:evenodd;stroke:#000000;stroke-width:1.5;stroke-linecap:butt;stroke-linejoin:miter;stroke-dasharray:none;stroke-opacity:1;marker-end:url(#a-18-2)"
       d="m 347.29749,25.002962 6.587,-6.914"
       id="path1590" /></g><path
     d="m 327.77322,47.793289 9.89258,7.093897"
     fill="none"
     marker-end="url(#a-8)"
     stroke="#000000"
     id="path6938"
     style="font-variation-settings:normal;opacity:1;vector-effect:none;fill:none;fill-opacity:1;stroke:#000000;stroke-width:1.5;stroke-linecap:butt;stroke-linejoin:miter;stroke-miterlimit:4;stroke-dasharray:none;stroke-dashoffset:0;stroke-opacity:1;-inkscape-stroke:none;marker-end:url(#a-18);stop-color:#000000;stop-opacity:1"
     sodipodi:nodetypes="cc" /><g
     id="g4643"
     transform="matrix(0.9999951,0,0,0.9999951,333.15921,-272.07903)"><rect
       style="color:#000000;overflow:visible;fill:#30a030;fill-opacity:1;fill-rule:evenodd;stroke-width:0;paint-order:fill markers stroke;stop-color:#000000"
       id="rect426"
       width="7.3981047"
       height="7.3981047"
       x="34.843216"
       y="76.725502" /><rect
       style="color:#000000;overflow:visible;fill:#ffae42;fill-opacity:1;fill-rule:evenodd;stroke-width:0;paint-order:fill markers stroke;stop-color:#000000"
       id="rect428"
       width="7.3981047"
       height="7.3981047"
       x="12.647315"
       y="76.725502" /><rect
       style="color:#000000;overflow:visible;fill:#9fff39;fill-opacity:1;fill-rule:evenodd;stroke-width:0;paint-order:fill markers stroke;stop-color:#000000"
       id="rect430"
       width="7.3981047"
       height="7.3981047"
       x="27.44458"
       y="76.725502" /><rect
       style="color:#000000;overflow:visible;fill:#ffdd55;fill-opacity:1;fill-rule:evenodd;stroke-width:0;paint-order:fill markers stroke;stop-color:#000000"
       id="rect432"
       width="7.3981047"
       height="7.3981047"
       x="20.045948"
       y="76.725502" /><rect
       style="color:#000000;overflow:visible;fill:#c31600;fill-opacity:1;fill-rule:evenodd;stroke-width:0;paint-order:fill markers stroke;stop-color:#000000"
       id="rect434"
       width="7.3981047"
       height="7.3981047"
       x="-9.5485878"
       y="76.725502" /><rect
       style="color:#000000;overflow:visible;fill:#ff2400;fill-opacity:1;fill-rule:evenodd;stroke-width:0;paint-order:fill markers stroke;stop-color:#000000"
       id="rect436"
       width="7.3981047"
       height="7.3981047"
       x="-2.1499534"
       y="76.725502" /><rect
       style="color:#000000;overflow:visible;fill:#008080;fill-opacity:1;fill-rule:evenodd;stroke-width:0;paint-order:fill markers stroke;stop-color:#000000"
       id="rect442"
       width="7.3981047"
       height="7.3981047"
       x="42.241848"
       y="76.725502" /><rect
       style="color:#000000;overflow:visible;fill:#ff7100;fill-opacity:1;fill-rule:evenodd;stroke-width:0;paint-order:fill markers stroke;stop-color:#000000"
       id="rect444"
       width="7.3981047"
       height="7.3981047"
       x="5.2486806"
       y="76.725502" /><rect
       style="color:#000000;overflow:visible;fill:#d60a72;fill-opacity:1;fill-rule:evenodd;stroke-width:0;paint-order:fill markers stroke;stop-color:#000000"
       id="rect438"
       width="7.3981047"
       height="7.3981047"
       x="71.66658"
       y="76.725502" /><rect
       style="color:#000000;overflow:visible;fill:#652265;fill-opacity:1;fill-rule:evenodd;stroke-width:0;paint-order:fill markers stroke;stop-color:#000000"
       id="rect440"
       width="7.3981047"
       height="7.3981047"
       x="64.267944"
       y="76.725502" /><rect
       style="color:#000000;overflow:visible;fill:#862cff;fill-opacity:1;fill-rule:evenodd;stroke-width:0;paint-order:fill markers stroke;stop-color:#000000"
       id="rect446"
       width="7.3981047"
       height="7.3981047"
       x="56.869308"
       y="76.725502" /><rect
       style="color:#000000;overflow:visible;opacity:0.97;fill:#094067;fill-opacity:1;fill-rule:evenodd;stroke-width:0;paint-order:fill markers stroke;stop-color:#000000"
       id="rect15679"
       width="7.3981047"
       height="7.3981047"
       x="49.471203"
       y="76.725502" /></g><circle
     style="color:#000000;overflow:visible;fill:#b3b3b3;fill-opacity:1;fill-rule:evenodd;stroke:none;stroke-width:0.250001;paint-order:fill markers stroke;stop-color:#000000"
     cx="-179.8365"
     cy="376.14276"
     r="5"
     transform="matrix(-0.5,0.8660254,0.8660254,0.5,0,0)"
     id="circle8142" /><circle
     style="color:#000000;overflow:visible;fill:#b3b3b3;fill-opacity:1;fill-rule:evenodd;stroke:none;stroke-width:0.250001;paint-order:fill markers stroke;stop-color:#000000"
     cx="-242.5605"
     cy="-355.78076"
     r="5"
     transform="matrix(-0.5,-0.8660254,-0.8660254,0.5,0,0)"
     id="circle8144" /><circle
     style="color:#000000;overflow:visible;fill:#b3b3b3;fill-opacity:1;fill-rule:evenodd;stroke:none;stroke-width:0.250001;paint-order:fill markers stroke;stop-color:#000000"
     cx="-165.2305"
     cy="392.50177"
     r="10"
     transform="matrix(-0.5,0.8660254,0.8660254,0.5,0,0)"
     id="circle8146" /><circle
     style="color:#000000;overflow:visible;fill:#b3b3b3;fill-opacity:1;fill-rule:evenodd;stroke:none;stroke-width:0.250001;paint-order:fill markers stroke;stop-color:#000000"
     cx="422.53201"
     cy="-11.113"
     r="5"
     transform="scale(1,-1)"
     id="circle8148" /><circle
     style="color:#000000;overflow:visible;fill:#b3b3b3;fill-opacity:1;fill-rule:evenodd;stroke:none;stroke-width:0.250001;paint-order:fill markers stroke;stop-color:#000000"
     cx="32.250999"
     cy="-401.02701"
     r="2.5"
     transform="rotate(90)"
     id="circle8152" /><circle
     style="color:#000000;overflow:visible;fill:#b3b3b3;fill-opacity:1;fill-rule:evenodd;stroke:none;stroke-width:0.250001;paint-order:fill markers stroke;stop-color:#000000"
     cx="45.534"
     cy="-401.02701"
     r="2.5"
     transform="rotate(90)"
     id="circle8154" /><circle
     style="color:#000000;overflow:visible;fill:#b3b3b3;fill-opacity:1;fill-rule:evenodd;stroke:none;stroke-width:0.250001;paint-order:fill markers stroke;stop-color:#000000"
     cx="58.818001"
     cy="-401.02701"
     r="2.5"
     transform="rotate(90)"
     id="circle8156" /><circle
     style="color:#000000;overflow:visible;fill:#b3b3b3;fill-opacity:1;fill-rule:evenodd;stroke:none;stroke-width:0.250001;paint-order:fill markers stroke;stop-color:#000000"
     cx="35.955002"
     cy="-444.03702"
     r="2.5"
     transform="rotate(90)"
     id="circle8160" /><circle
     style="color:#000000;overflow:visible;fill:#b3b3b3;fill-opacity:1;fill-rule:evenodd;stroke:none;stroke-width:0.250001;paint-order:fill markers stroke;stop-color:#000000"
     cx="45.534"
     cy="-444.03702"
     r="2.5"
     transform="rotate(90)"
     id="circle8162" /><circle
     style="color:#000000;overflow:visible;fill:#b3b3b3;fill-opacity:1;fill-rule:evenodd;stroke:none;stroke-width:0.250001;paint-order:fill markers stroke;stop-color:#000000"
     cx="58.818001"
     cy="-444.03702"
     r="2.5"
     transform="rotate(90)"
     id="circle8164" /><path
     style="fill:none;fill-rule:evenodd;stroke:#999999;stroke-width:0.5;stroke-linecap:butt;stroke-linejoin:miter;stroke-opacity:1;marker-start:url(#a-2);marker-end:url(#a-2)"
     d="m 408.81001,23.412 3.267,3.967"
     id="path8166" /><path
     style="fill:none;fill-rule:evenodd;stroke:#999999;stroke-width:0.5;stroke-linecap:butt;stroke-linejoin:miter;stroke-opacity:1;marker-start:url(#a-2);marker-end:url(#a-2)"
     d="m 404.68801,47.602 7,2.8"
     id="path8168" /><path
     style="fill:none;fill-rule:evenodd;stroke:#999999;stroke-width:0.5;stroke-linecap:butt;stroke-linejoin:miter;stroke-opacity:1;marker-start:url(#a-2);marker-end:url(#a-2)"
     d="m 426.77801,38.269 -1.167,3.81"
     id="path8170" /><path
     style="fill:none;fill-rule:evenodd;stroke:#999999;stroke-width:0.5;stroke-linecap:butt;stroke-linejoin:miter;stroke-opacity:1;marker-start:url(#a-2)"
     d="m 401.03201,36.387 -0.077,5.133"
     id="path8172" /><path
     style="fill:none;fill-rule:evenodd;stroke:#999999;stroke-width:0.5;stroke-linecap:butt;stroke-linejoin:miter;stroke-opacity:1;marker-start:url(#a-2);marker-end:url(#a-2)"
     d="m 443.89001,50.014 -0.078,3.811"
     id="path8174" /><path
     style="fill:none;fill-rule:evenodd;stroke:#999999;stroke-width:0.5;stroke-linecap:butt;stroke-linejoin:miter;stroke-opacity:1;marker-start:url(#a-2)"
     d="m 424.75501,17.719 3.5,8.09"
     id="path8176" /><path
     style="fill:none;fill-rule:evenodd;stroke:#999999;stroke-width:0.5;stroke-linecap:butt;stroke-linejoin:miter;stroke-opacity:1;marker-end:url(#a-2)"
     d="m 444.27901,26.43 -0.028,1.888 -0.05,3.324"
     id="path8178" /><circle
     transform="scale(-1,1)"
     cx="-443.5585"
     cy="14.826996"
     r="10"
     color="#000000"
     fill="#073983"
     fill-rule="evenodd"
     stroke="#4d4d4d"
     stroke-width="0.25"
     style="fill:#b3b3b3;fill-opacity:1;stroke:none;paint-order:fill markers stroke"
     id="circle8321" /><circle
     transform="scale(-1,1)"
     cx="-401.50452"
     cy="14.826996"
     r="10"
     color="#000000"
     fill="#d00000"
     fill-rule="evenodd"
     stroke="#4d4d4d"
     stroke-width="0.25"
     style="fill:#b3b3b3;fill-opacity:1;stroke:none;paint-order:fill markers stroke"
     id="circle8323" /><g
     id="g14530"><path
       d="m 210.56901,26.727831 0,6.548618"
       fill="none"
       marker-end="url(#a-8)"
       stroke="#000000"
       stroke-width="2"
       id="path1242"
       style="stroke:#1a1a1a;stroke-opacity:1;marker-end:url(#a-8)"
       sodipodi:nodetypes="cc" /><path
       d="m 168.09501,26.727831 v 6.548618"
       fill="none"
       marker-end="url(#a-8)"
       stroke="#000000"
       stroke-width="2"
       id="path14066"
       style="stroke:#1a1a1a;stroke-opacity:1;marker-end:url(#a-8)"
       sodipodi:nodetypes="cc" /></g><path
     d="m 365.73705,26.727831 v 6.548618"
     fill="none"
     marker-end="url(#a-8-6)"
     stroke="#000000"
     stroke-width="2"
     id="path1242-0"
     style="stroke:#1a1a1a;stroke-opacity:1;marker-end:url(#a-8-6)"
     sodipodi:nodetypes="cc" /><path
     d="m 323.26305,26.727831 v 6.548618"
     fill="none"
     marker-end="url(#a-8-6)"
     stroke="#000000"
     stroke-width="2"
     id="path14066-6"
     style="stroke:#1a1a1a;stroke-opacity:1;marker-end:url(#a-8-6)"
     sodipodi:nodetypes="cc" /><g
     id="layer1"
     transform="matrix(0.99999508,0,0,0.99999508,130.30786,-236.77729)"><circle
       style="color:#000000;overflow:visible;opacity:1;fill:#094067;fill-opacity:1;fill-rule:evenodd;stroke-width:0;paint-order:fill markers stroke;stop-color:#000000"
       id="path7490"
       cx="96.342613"
       cy="108.55474"
       r="82.998772" /><path
       id="rect352"
       style="color:#000000;overflow:visible;opacity:1;fill:#f8f6f7;fill-opacity:1;fill-rule:evenodd;stroke-width:0;paint-order:fill markers stroke;stop-color:#000000"
       d="m 77.058346,48.940682 v 23.385136 h 7.138582 c 0.0092,-1.383703 1.125537,-2.494938 2.511475,-2.494938 H 105.2375 c 1.38594,0 2.50232,1.111235 2.51148,2.494938 h 7.1391 V 48.940682 Z m 9.650057,9.185486 h 18.529617 c 1.39166,0 2.51199,1.120334 2.51199,2.511991 0,1.391657 -1.12033,2.511992 -2.51199,2.511992 H 86.708403 c -1.391658,0 -2.511992,-1.120335 -2.511992,-2.511992 0,-1.391657 1.120334,-2.511991 2.511992,-2.511991 z" /><path
       id="rect354"
       style="color:#000000;overflow:visible;opacity:1;fill:#f8f6f7;fill-opacity:1;fill-rule:evenodd;stroke-width:0;paint-order:fill markers stroke;stop-color:#000000"
       d="M 40.99078,78.722504 V 90.69989 H 150.95565 V 78.344333 L 135.7002,66.827962 h -14.27867 v 5.505607 c 0,0.04523 -0.004,0.08923 -0.007,0.133842 h 5.04259 c 1.35798,0 2.45153,1.093033 2.45153,2.451013 0,1.357981 -1.09355,2.45153 -2.45153,2.45153 H 65.488509 c -1.35798,0 -2.451014,-1.093549 -2.451014,-2.45153 0,-1.35798 1.093034,-2.451013 2.451014,-2.451013 h 5.043103 c -0.0024,-0.04461 -0.0067,-0.08861 -0.0067,-0.133842 V 66.827962 H 56.158327 Z" /><path
       id="rect356"
       style="color:#000000;overflow:visible;opacity:1;fill:#f8f6f7;fill-opacity:1;fill-rule:evenodd;stroke-width:0;paint-order:fill markers stroke;stop-color:#000000"
       d="M 47.982601,98.724207 V 157.45396 H 143.96382 V 98.724207 Z m 27.733708,4.405933 a 3.8447337,3.8447337 0 0 1 3.844726,3.84524 3.8447337,3.8447337 0 0 1 -1.869653,3.29644 v 12.5858 c 0,0.89479 -0.720101,1.61489 -1.614889,1.61489 H 58.557666 c -0.894788,0 -1.614888,-0.7201 -1.614888,-1.61489 V 107.0653 c 0,-0.89479 0.7201,-1.61541 1.614888,-1.61541 h 13.632243 a 3.8447337,3.8447337 0 0 1 3.5264,-2.31975 z m 27.721301,0 a 3.8447337,3.8447337 0 0 1 3.84473,3.84524 3.8447337,3.8447337 0 0 1 -1.86965,3.29644 v 12.5858 c 0,0.89479 -0.7201,1.61489 -1.61489,1.61489 H 86.278971 c -0.894788,0 -1.614888,-0.7201 -1.614888,-1.61489 V 107.0653 c 0,-0.89479 0.7201,-1.61541 1.614888,-1.61541 h 13.632243 a 3.8447337,3.8447337 0 0 1 3.526396,-2.31975 z m 27.72131,0 a 3.8447337,3.8447337 0 0 1 3.84473,3.84524 3.8447337,3.8447337 0 0 1 -1.86966,3.29644 v 12.5858 c 0,0.89479 -0.7201,1.61489 -1.61489,1.61489 h -17.51882 c -0.89479,0 -1.61489,-0.7201 -1.61489,-1.61489 V 107.0653 c 0,-0.89479 0.7201,-1.61541 1.61489,-1.61541 h 13.63224 a 3.8447337,3.8447337 0 0 1 3.5264,-2.31975 z m -55.442611,25.4 a 3.8447337,3.8447337 0 0 1 3.844726,3.84524 3.8447337,3.8447337 0 0 1 -1.869653,3.29644 v 12.5858 c 0,0.89479 -0.720101,1.61489 -1.614889,1.61489 H 58.557666 c -0.894788,0 -1.614888,-0.7201 -1.614888,-1.61489 V 132.4653 c 0,-0.89479 0.7201,-1.61541 1.614888,-1.61541 h 13.632243 a 3.8447337,3.8447337 0 0 1 3.5264,-2.31975 z m 27.721301,0 a 3.8447337,3.8447337 0 0 1 3.84473,3.84524 3.8447337,3.8447337 0 0 1 -1.86965,3.29644 v 12.5858 c 0,0.89479 -0.7201,1.61489 -1.61489,1.61489 H 86.278971 c -0.894788,0 -1.614888,-0.7201 -1.614888,-1.61489 V 132.4653 c 0,-0.89479 0.7201,-1.61541 1.614888,-1.61541 h 13.632243 a 3.8447337,3.8447337 0 0 1 3.526396,-2.31975 z m 27.72131,0 a 3.8447337,3.8447337 0 0 1 3.84473,3.84524 3.8447337,3.8447337 0 0 1 -1.86966,3.29644 v 12.5858 c 0,0.89479 -0.7201,1.61489 -1.61489,1.61489 h -17.51882 c -0.89479,0 -1.61489,-0.7201 -1.61489,-1.61489 V 132.4653 c 0,-0.89479 0.7201,-1.61541 1.61489,-1.61541 h 13.63224 a 3.8447337,3.8447337 0 0 1 3.5264,-2.31975 z" /><rect
       style="color:#000000;overflow:visible;opacity:1;fill:#b3b3b3;fill-rule:evenodd;stroke-width:0;paint-order:fill markers stroke;stop-color:#000000"
       id="rect738"
       width="95.981468"
       height="3.0126917"
       x="47.982479"
       y="95.711449" /><path
       style="color:#000000;overflow:visible;opacity:1;fill:#c31600;fill-opacity:1;fill-rule:evenodd;stroke-width:0;paint-order:fill markers stroke;stop-color:#000000"
       d="m 99.885892,108.44269 a 3.8447337,3.8447337 0 0 0 2.714558,2.28462 l -6.617161,7.64088 c -0.596657,0.708 -1.647396,0.79768 -2.355412,0.20102 l -4.935616,-4.15944 2.139921,-2.53886 3.503662,2.95279 z"
       id="path878" /><path
       style="color:#000000;overflow:visible;opacity:1;fill:#f8f6f7;fill-opacity:1;fill-rule:evenodd;stroke-width:0;paint-order:fill markers stroke;stop-color:#000000"
       d="m 127.60708,108.44269 a 3.8447337,3.8447337 0 0 0 2.71456,2.28462 l -6.61716,7.64088 c -0.59666,0.708 -1.6474,0.79768 -2.35541,0.20102 l -4.93562,-4.15944 2.13992,-2.53886 3.50366,2.95279 z"
       id="path874" /><path
       style="color:#000000;overflow:visible;opacity:1;fill:#f8f6f7;fill-opacity:1;fill-rule:evenodd;stroke-width:0;paint-order:fill markers stroke;stop-color:#000000"
       d="m 99.885892,133.8427 a 3.8447337,3.8447337 0 0 0 2.714558,2.28462 l -6.617161,7.64088 c -0.596657,0.708 -1.647396,0.79768 -2.355412,0.20102 l -4.935616,-4.15944 2.139921,-2.53886 3.503662,2.95279 z"
       id="path866" /><path
       style="color:#000000;overflow:visible;opacity:1;fill:#0098fa;fill-opacity:1;fill-rule:evenodd;stroke-width:0;paint-order:fill markers stroke;stop-color:#000000"
       d="m 127.60708,133.8427 a 3.8447337,3.8447337 0 0 0 2.71456,2.28462 l -6.61716,7.64088 c -0.59666,0.708 -1.6474,0.79768 -2.35541,0.20102 l -4.93562,-4.15944 2.13992,-2.53886 3.50366,2.95279 z"
       id="path862" /><path
       style="color:#000000;overflow:visible;opacity:1;fill:#c31600;fill-opacity:1;fill-rule:evenodd;stroke-width:0;paint-order:fill markers stroke;stop-color:#000000"
       d="m 72.164705,133.8427 a 3.8447337,3.8447337 0 0 0 2.71456,2.28462 l -6.61716,7.64088 c -0.59666,0.708 -1.6474,0.79768 -2.35541,0.20102 l -4.93562,-4.15944 2.13992,-2.53886 3.50366,2.95279 z"
       id="path858" /><path
       style="color:#000000;overflow:visible;opacity:1;fill:#0098fa;fill-opacity:1;fill-rule:evenodd;stroke-width:0;paint-order:fill markers stroke;stop-color:#000000"
       d="m 72.164705,108.44269 a 3.8447337,3.8447337 0 0 0 2.71456,2.28462 l -6.61716,7.64088 c -0.59666,0.708 -1.6474,0.79768 -2.35541,0.20102 l -4.93562,-4.15944 2.13992,-2.53886 3.50366,2.95279 z"
       id="path870" /></g></svg>
