<?xml version="1.0" encoding="UTF-8" standalone="no"?>
<!-- Created with Inkscape (http://www.inkscape.org/) -->

<svg
   width="8.4666662mm"
   height="8.4666672mm"
   viewBox="0 0 8.4666663 8.4666672"
   version="1.1"
   id="svg5"
   xml:space="preserve"
   xmlns="http://www.w3.org/2000/svg"
   xmlns:svg="http://www.w3.org/2000/svg"><defs
     id="defs2" /><g
     id="layer1"
     transform="translate(-81.441548,-87.08176)"><path
       id="path512"
       style="color:#000000;overflow:visible;fill:#000000;fill-rule:evenodd;stroke:none;stroke-width:0.1;-inkscape-stroke:none;paint-order:fill markers stroke;stop-color:#000000"
       d="m 85.674881,87.969561 a 1.0149362,1.0149362 0 0 0 -1.014925,1.014925 1.0149362,1.0149362 0 0 0 1.014925,1.014925 1.0149362,1.0149362 0 0 0 1.014925,-1.014925 1.0149362,1.0149362 0 0 0 -1.014925,-1.014925 z m -2.15594,0.574642 a 0.73707453,0.73761507 0 0 0 -0.736906,0.737423 0.73707453,0.73761507 0 0 0 0.736906,0.737422 0.73707453,0.73761507 0 0 0 0.737422,-0.737422 0.73707453,0.73761507 0 0 0 -0.737422,-0.737423 z m 4.349088,0 a 0.73707453,0.73761507 0 0 0 -0.736906,0.737423 0.73707453,0.73761507 0 0 0 0.736906,0.737422 0.73707453,0.73761507 0 0 0 0.736906,-0.737422 0.73707453,0.73761507 0 0 0 -0.736906,-0.737423 z m -3.062862,1.745113 c -0.398131,0 -0.718819,0.320689 -0.718819,0.718819 v 1.159619 c 0,0.616969 -0.06044,0.548852 0.612882,0.695048 l 0.09302,1.570964 c 0.0074,0.125506 0.101135,0.22686 0.226859,0.22686 h 0.655774 0.655774 c 0.125727,0 0.219404,-0.101354 0.22686,-0.22686 l 0.09302,-1.570964 c 0.67332,-0.146196 0.612883,-0.07808 0.612883,-0.695048 v -1.159619 c 0,-0.39813 -0.320688,-0.718819 -0.718819,-0.718819 h -0.869715 z m -1.923397,0.03256 c -0.301128,0 -0.553454,0.35906 -0.553454,0.553972 v 1.13068 c 0,0.47549 -0.04621,0.423216 0.472322,0.535885 l 0.07183,1.474845 c 0.0057,0.09672 0.07785,0.174666 0.174667,0.174666 h 0.504878 0.344166 c 0.09682,0 0.169483,-0.07794 0.175183,-0.174666 l 0.04703,-0.976685 c -0.0728,-0.02841 -0.145463,-0.07003 -0.210323,-0.14366 -0.101163,-0.114855 -0.123308,-0.253942 -0.129708,-0.362252 -0.0064,-0.10831 -0.0016,-0.217715 -0.0016,-0.366903 v -1.159619 c 0,-0.262677 0.100696,-0.503752 0.2651,-0.686263 h -0.489893 z m 4.426087,0 c 0.164403,0.182511 0.2651,0.423586 0.2651,0.686263 v 1.159619 c 0,0.149188 0.0048,0.258593 -0.0016,0.366903 -0.0064,0.10831 -0.02855,0.247397 -0.129707,0.362252 -0.06486,0.07363 -0.137528,0.115252 -0.210324,0.14366 l 0.04703,0.976685 c 0.0057,0.09673 0.07836,0.174666 0.175183,0.174666 h 0.344165 0.504879 c 0.09682,0 0.168924,-0.07795 0.174666,-0.174666 l 0.07183,-1.474845 c 0.518534,-0.112669 0.472323,-0.06039 0.472323,-0.535885 v -1.13068 c 0,-0.194912 -0.252326,-0.553972 -0.553455,-0.553972 h -0.670243 z" /></g></svg>
