<?xml version="1.0" encoding="UTF-8" standalone="no"?>
<!-- Created with Inkscape (http://www.inkscape.org/) -->

<svg
  viewBox="0 0 8.4666644 8.4666682"
  version="1.1"
  id="svg5"
  xmlSpace="preserve"
  xmlns="http://www.w3.org/2000/svg">
  <defs
    id="defs2" />
  <g
    id="layer1"
    transform="translate(-90.711338,-87.08176)">
    <path
      id="path1131"
      style="color:#000000;overflow:visible;fill:#000000;fill-rule:evenodd;stroke:none;stroke-width:0.1;-inkscape-stroke:none;paint-order:fill markers stroke;stop-color:#000000"
      d="m 94.944705,87.969407 a 1.0149362,1.0149362 0 0 0 -1.01496,1.014961 1.0149362,1.0149362 0 0 0 1.01496,1.014883 1.0149362,1.0149362 0 0 0 1.01496,-1.014883 1.0149362,1.0149362 0 0 0 -1.01496,-1.014961 z m -0.86995,2.319877 c -0.39813,0 -0.71867,0.320465 -0.71867,0.718596 v 1.159977 c 0,0.616969 -0.0604,0.549002 0.61288,0.695199 l 0.0932,1.570779 c 0.007,0.125506 0.10122,0.226946 0.22695,0.226946 h 0.65558 0.65559 c 0.12573,0 0.21949,-0.10144 0.22694,-0.226946 l 0.0932,-1.570779 c 0.67332,-0.146197 0.61289,-0.07823 0.61289,-0.695199 V 91.00788 c 0,-0.398131 -0.32054,-0.718596 -0.71868,-0.718596 h -0.86994 z" />
  </g>
</svg>