<svg xmlns="http://www.w3.org/2000/svg" xml:space="preserve" width="627.392" height="627.392"
  viewBox="0 0 165.997 165.997"><g transform="matrix(1 0 0 1 -13.344 -25.556)"><circle cx="96.343" cy="108.555" r="82.999" style="color:#000;overflow:visible;opacity:1;fill:#094067;fill-opacity:1;fill-rule:evenodd;stroke-width:0;paint-order:fill markers stroke;stop-color:#000"/><path d="M77.058 48.94v23.386h7.139a2.506 2.506 0 0 1 2.511-2.495h18.53a2.506 2.506 0 0 1 2.511 2.495h7.14V48.94Zm9.65 9.186h18.53a2.506 2.506 0 0 1 2.512 2.512 2.506 2.506 0 0 1-2.512 2.512h-18.53a2.506 2.506 0 0 1-2.512-2.512 2.506 2.506 0 0 1 2.512-2.512" style="color:#000;overflow:visible;opacity:1;fill:#f8f6f7;fill-opacity:1;fill-rule:evenodd;stroke-width:0;paint-order:fill markers stroke;stop-color:#000"/><path d="M40.99 78.723V90.7h109.966V78.344L135.7 66.828h-14.278v5.506q-.001.067-.007.133h5.042a2.446 2.446 0 0 1 2.452 2.451 2.446 2.446 0 0 1-2.452 2.452H65.49a2.446 2.446 0 0 1-2.452-2.452 2.446 2.446 0 0 1 2.452-2.45h5.043q-.006-.068-.007-.134v-5.506H56.158ZM47.983 98.724v58.73h95.98v-58.73Zm27.733 4.406a3.845 3.845 0 0 1 3.845 3.845 3.85 3.85 0 0 1-1.87 3.297v12.586c0 .894-.72 1.615-1.615 1.615H58.558c-.895 0-1.615-.72-1.615-1.615v-15.793c0-.894.72-1.615 1.615-1.615H72.19a3.85 3.85 0 0 1 3.526-2.32m27.722 0a3.845 3.845 0 0 1 3.844 3.845 3.85 3.85 0 0 1-1.87 3.297v12.586c0 .894-.72 1.615-1.614 1.615H86.279c-.895 0-1.615-.72-1.615-1.615v-15.793c0-.894.72-1.615 1.615-1.615h13.632a3.85 3.85 0 0 1 3.527-2.32m27.72 0a3.845 3.845 0 0 1 3.846 3.845 3.85 3.85 0 0 1-1.87 3.297v12.586c0 .894-.72 1.615-1.615 1.615H114c-.895 0-1.615-.72-1.615-1.615v-15.793c0-.894.72-1.615 1.615-1.615h13.633a3.85 3.85 0 0 1 3.526-2.32m-55.442 25.4a3.845 3.845 0 0 1 3.845 3.845 3.85 3.85 0 0 1-1.87 3.297v12.586c0 .894-.72 1.615-1.615 1.615H58.558c-.895 0-1.615-.72-1.615-1.615v-15.793c0-.894.72-1.615 1.615-1.615H72.19a3.85 3.85 0 0 1 3.526-2.32m27.722 0a3.845 3.845 0 0 1 3.844 3.845 3.85 3.85 0 0 1-1.87 3.297v12.586c0 .894-.72 1.615-1.614 1.615H86.279c-.895 0-1.615-.72-1.615-1.615v-15.793c0-.894.72-1.615 1.615-1.615h13.632a3.85 3.85 0 0 1 3.527-2.32m27.72 0a3.845 3.845 0 0 1 3.846 3.845 3.85 3.85 0 0 1-1.87 3.297v12.586c0 .894-.72 1.615-1.615 1.615H114c-.895 0-1.615-.72-1.615-1.615v-15.793c0-.894.72-1.615 1.615-1.615h13.633a3.85 3.85 0 0 1 3.526-2.32" style="color:#000;overflow:visible;opacity:1;fill:#f8f6f7;fill-opacity:1;fill-rule:evenodd;stroke-width:0;paint-order:fill markers stroke;stop-color:#000"/><path d="M47.982 95.711h95.981v3.013H47.982z" style="color:#000;overflow:visible;opacity:1;fill:#b3b3b3;fill-rule:evenodd;stroke-width:0;paint-order:fill markers stroke;stop-color:#000"/><path d="M99.886 108.443a3.85 3.85 0 0 0 2.714 2.284l-6.617 7.641a1.67 1.67 0 0 1-2.355.201l-4.936-4.16 2.14-2.538 3.504 2.953z" style="color:#000;overflow:visible;opacity:1;fill:#c31600;fill-opacity:1;fill-rule:evenodd;stroke-width:0;paint-order:fill markers stroke;stop-color:#000"/><path d="M127.607 108.443a3.85 3.85 0 0 0 2.715 2.284l-6.618 7.641a1.67 1.67 0 0 1-2.355.201l-4.936-4.16 2.14-2.538 3.504 2.953zM99.886 133.843a3.85 3.85 0 0 0 2.714 2.284l-6.617 7.641a1.67 1.67 0 0 1-2.355.201l-4.936-4.16 2.14-2.538 3.504 2.953z" style="color:#000;overflow:visible;opacity:1;fill:#f8f6f7;fill-opacity:1;fill-rule:evenodd;stroke-width:0;paint-order:fill markers stroke;stop-color:#000"/><path d="M127.607 133.843a3.85 3.85 0 0 0 2.715 2.284l-6.618 7.641a1.67 1.67 0 0 1-2.355.201l-4.936-4.16 2.14-2.538 3.504 2.953z" style="color:#000;overflow:visible;opacity:1;fill:#0098fa;fill-opacity:1;fill-rule:evenodd;stroke-width:0;paint-order:fill markers stroke;stop-color:#000"/><path d="M72.165 133.843a3.85 3.85 0 0 0 2.714 2.284l-6.617 7.641a1.67 1.67 0 0 1-2.355.201l-4.936-4.16 2.14-2.538 3.504 2.953z" style="color:#000;overflow:visible;opacity:1;fill:#c31600;fill-opacity:1;fill-rule:evenodd;stroke-width:0;paint-order:fill markers stroke;stop-color:#000"/><path d="M72.165 108.443a3.85 3.85 0 0 0 2.714 2.284l-6.617 7.641a1.67 1.67 0 0 1-2.355.201l-4.936-4.16 2.14-2.538 3.504 2.953z" style="color:#000;overflow:visible;opacity:1;fill:#0098fa;fill-opacity:1;fill-rule:evenodd;stroke-width:0;paint-order:fill markers stroke;stop-color:#000"/></g></svg>